Pliska-BoldItalic.ufo
<glyph name="parenleft" format="1">
  <advance width="333"/>
  <unicode hex="0028"/>
  <outline>
    <contour>
      <point x="326" y="685" type="curve"/>
      <point x="344" y="665" type="line"/>
      <point x="263" y="591"/>
      <point x="226" y="543"/>
      <point x="190" y="462" type="curve" smooth="yes"/>
      <point x="147" y="366"/>
      <point x="122" y="237"/>
      <point x="122" y="110" type="curve" smooth="yes"/>
      <point x="122" y="-6"/>
      <point x="138" y="-68"/>
      <point x="193" y="-164" type="curve"/>
      <point x="170" y="-179" type="line"/>
      <point x="69" y="-41"/>
      <point x="28" y="70"/>
      <point x="28" y="207" type="curve" smooth="yes"/>
      <point x="28" y="279"/>
      <point x="41" y="344"/>
      <point x="68" y="404" type="curve" smooth="yes"/>
      <point x="114" y="508"/>
      <point x="174" y="573"/>
    </contour>
  </outline>
</glyph>
<glyph name="one" format="1">
  <advance width="500"/>
  <unicode hex="0031"/>
  <outline>
    <contour>
      <point x="5" y="0" type="line"/>
      <point x="5" y="23" type="line"/>
      <point x="77" y="23"/>
      <point x="109" y="42"/>
      <point x="124" y="97" type="curve" smooth="yes"/>
      <point x="252" y="556" type="line" smooth="yes"/>
      <point x="254" y="565"/>
      <point x="256" y="574"/>
      <point x="256" y="580" type="curve" smooth="yes"/>
      <point x="256" y="602"/>
      <point x="241" y="613"/>
      <point x="210" y="613" type="curve" smooth="yes"/>
      <point x="191" y="613"/>
      <point x="174" y="612"/>
      <point x="147" y="608" type="curve"/>
      <point x="149" y="631" type="line"/>
      <point x="265" y="648"/>
      <point x="328" y="661"/>
      <point x="419" y="683" type="curve"/>
      <point x="265" y="123" type="line" smooth="yes"/>
      <point x="254" y="83"/>
      <point x="253" y="78"/>
      <point x="253" y="69" type="curve" smooth="yes"/>
      <point x="253" y="32"/>
      <point x="271" y="24"/>
      <point x="350" y="23" type="curve"/>
      <point x="350" y="0" type="line"/>
    </contour>
  </outline>
</glyph>
<glyph name="three" format="1">
  <advance width="500"/>
  <unicode hex="0033"/>
  <outline>
    <contour>
      <point x="128" y="347" type="curve"/>
      <point x="132" y="369" type="line"/>
      <point x="176" y="378"/>
      <point x="321" y="406"/>
      <point x="321" y="524" type="curve" smooth="yes"/>
      <point x="321" y="563"/>
      <point x="298" y="612"/>
      <point x="236" y="612" type="curve" smooth="yes"/>
      <point x="173" y="612"/>
      <point x="144" y="573"/>
      <point x="118" y="537" type="curve"/>
      <point x="97" y="550" type="line"/>
      <point x="137" y="614"/>
      <point x="200" y="683"/>
      <point x="304" y="683" type="curve" smooth="yes"/>
      <point x="369" y="683"/>
      <point x="450" y="639"/>
      <point x="450" y="547" type="curve" smooth="yes"/>
      <point x="450" y="505"/>
      <point x="433" y="448"/>
      <point x="343" y="403" type="curve" smooth="yes"/>
      <point x="331" y="397" type="line"/>
      <point x="375" y="365"/>
      <point x="408" y="328"/>
      <point x="408" y="247" type="curve" smooth="yes"/>
      <point x="408" y="103"/>
      <point x="275" y="-13"/>
      <point x="120" y="-13" type="curve" smooth="yes"/>
      <point x="-7" y="-13"/>
      <point x="-15" y="52"/>
      <point x="-15" y="63" type="curve" smooth="yes"/>
      <point x="-15" y="116"/>
      <point x="25" y="123"/>
      <point x="42" y="123" type="curve" smooth="yes"/>
      <point x="80" y="123"/>
      <point x="90" y="108"/>
      <point x="132" y="45" type="curve" smooth="yes"/>
      <point x="140" y="33"/>
      <point x="157" y="27"/>
      <point x="176" y="27" type="curve" smooth="yes"/>
      <point x="234" y="27"/>
      <point x="285" y="97"/>
      <point x="285" y="190" type="curve" smooth="yes"/>
      <point x="285" y="290"/>
      <point x="228" y="347"/>
    </contour>
  </outline>
</glyph>
<glyph name="six" format="1">
  <advance width="500"/>
  <unicode hex="0036"/>
  <outline>
    <contour>
      <point x="503" y="679" type="curve"/>
      <point x="509" y="655" type="line"/>
      <point x="362" y="602"/>
      <point x="278" y="507"/>
      <point x="231" y="409" type="curve"/>
      <point x="251" y="416"/>
      <point x="266" y="422"/>
      <point x="294" y="422" type="curve" smooth="yes"/>
      <point x="345" y="422"/>
      <point x="443" y="397"/>
      <point x="443" y="250" type="curve" smooth="yes"/>
      <point x="443" y="94"/>
      <point x="323" y="-15"/>
      <point x="201" y="-15" type="curve" smooth="yes"/>
      <point x="43" y="-15"/>
      <point x="23" y="125"/>
      <point x="23" y="201" type="curve" smooth="yes"/>
      <point x="23" y="383"/>
      <point x="174" y="632"/>
    </contour>
    <contour>
      <point x="135" y="95" type="curve" smooth="yes"/>
      <point x="135" y="70"/>
      <point x="136" y="17"/>
      <point x="192" y="17" type="curve" smooth="yes"/>
      <point x="224" y="17"/>
      <point x="248" y="40"/>
      <point x="266" y="88" type="curve" smooth="yes"/>
      <point x="270" y="99"/>
      <point x="319" y="235"/>
      <point x="319" y="311" type="curve" smooth="yes"/>
      <point x="319" y="331"/>
      <point x="319" y="382"/>
      <point x="256" y="382" type="curve" smooth="yes"/>
      <point x="212" y="382"/>
      <point x="209" y="373"/>
      <point x="178" y="291" type="curve" smooth="yes"/>
      <point x="157" y="233"/>
      <point x="135" y="154"/>
    </contour>
  </outline>
</glyph>
<glyph name="at" format="1">
  <advance width="832"/>
  <unicode hex="0040"/>
  <outline>
    <contour>
      <point x="545" y="463" type="curve"/>
      <point x="556" y="501" type="line"/>
      <point x="627" y="501" type="line"/>
      <point x="562" y="244" type="line" smooth="yes"/>
      <point x="560" y="238"/>
      <point x="560" y="233"/>
      <point x="560" y="224" type="curve" smooth="yes"/>
      <point x="560" y="195"/>
      <point x="574" y="179"/>
      <point x="597" y="179" type="curve" smooth="yes"/>
      <point x="627" y="179"/>
      <point x="654" y="196"/>
      <point x="677" y="230" type="curve" smooth="yes"/>
      <point x="706" y="271"/>
      <point x="724" y="329"/>
      <point x="724" y="379" type="curve" smooth="yes"/>
      <point x="724" y="525"/>
      <point x="594" y="646"/>
      <point x="437" y="646" type="curve" smooth="yes"/>
      <point x="272" y="646"/>
      <point x="154" y="511"/>
      <point x="154" y="322" type="curve" smooth="yes"/>
      <point x="154" y="151"/>
      <point x="277" y="28"/>
      <point x="449" y="28" type="curve" smooth="yes"/>
      <point x="518" y="28"/>
      <point x="569" y="40"/>
      <point x="647" y="76" type="curve"/>
      <point x="660" y="41" type="line"/>
      <point x="563" y="-4"/>
      <point x="511" y="-18"/>
      <point x="439" y="-18" type="curve" smooth="yes"/>
      <point x="228" y="-18"/>
      <point x="63" y="134"/>
      <point x="63" y="328" type="curve" smooth="yes"/>
      <point x="63" y="527"/>
      <point x="228" y="685"/>
      <point x="436" y="685" type="curve" smooth="yes"/>
      <point x="624" y="685"/>
      <point x="770" y="555"/>
      <point x="770" y="387" type="curve" smooth="yes"/>
      <point x="770" y="255"/>
      <point x="683" y="142"/>
      <point x="583" y="142" type="curve" smooth="yes"/>
      <point x="534" y="142"/>
      <point x="492" y="176"/>
      <point x="490" y="217" type="curve"/>
      <point x="455" y="171"/>
      <point x="408" y="143"/>
      <point x="365" y="143" type="curve" smooth="yes"/>
      <point x="313" y="143"/>
      <point x="272" y="193"/>
      <point x="272" y="257" type="curve" smooth="yes"/>
      <point x="272" y="330"/>
      <point x="304" y="409"/>
      <point x="355" y="463" type="curve" smooth="yes"/>
      <point x="386" y="496"/>
      <point x="430" y="515"/>
      <point x="473" y="515" type="curve" smooth="yes"/>
      <point x="509" y="515"/>
      <point x="523" y="505"/>
    </contour>
    <contour>
      <point x="486" y="467" type="curve" smooth="yes"/>
      <point x="484.852" y="467.092"/>
      <point x="483.684" y="467.137"/>
      <point x="482.499" y="467.137" type="curve" smooth="yes"/>
      <point x="457.889" y="467.137"/>
      <point x="425.714" y="447.53"/>
      <point x="399" y="417" type="curve" smooth="yes"/>
      <point x="366" y="379"/>
      <point x="348" y="329"/>
      <point x="348" y="275" type="curve" smooth="yes"/>
      <point x="348" y="223"/>
      <point x="371" y="190"/>
      <point x="407" y="190" type="curve" smooth="yes"/>
      <point x="436" y="190"/>
      <point x="466" y="215"/>
      <point x="488" y="257" type="curve" smooth="yes"/>
      <point x="509" y="298"/>
      <point x="526" y="358"/>
      <point x="528" y="402" type="curve" smooth="yes"/>
      <point x="528.118" y="404.306"/>
      <point x="528.177" y="406.56"/>
      <point x="528.177" y="408.76" type="curve" smooth="yes"/>
      <point x="528.177" y="443.761"/>
      <point x="513.285" y="465.118"/>
    </contour>
  </outline>
</glyph>
<glyph name="C" format="1">
  <advance width="667"/>
  <unicode hex="0043"/>
  <outline>
    <contour>
      <point x="677" y="685" type="line"/>
      <point x="626" y="451" type="line"/>
      <point x="594" y="457" type="line"/>
      <point x="596" y="468"/>
      <point x="597" y="480"/>
      <point x="597" y="491" type="curve" smooth="yes"/>
      <point x="597" y="577"/>
      <point x="559" y="650"/>
      <point x="464" y="650" type="curve" smooth="yes"/>
      <point x="286" y="650"/>
      <point x="186" y="359"/>
      <point x="186" y="214" type="curve" smooth="yes"/>
      <point x="186" y="121"/>
      <point x="227" y="35"/>
      <point x="330" y="35" type="curve" smooth="yes"/>
      <point x="427" y="35"/>
      <point x="488" y="79"/>
      <point x="546" y="153" type="curve"/>
      <point x="576" y="131" type="line"/>
      <point x="515" y="38"/>
      <point x="416" y="-18"/>
      <point x="304" y="-18" type="curve" smooth="yes"/>
      <point x="149" y="-18"/>
      <point x="32" y="80"/>
      <point x="32" y="240" type="curve" smooth="yes"/>
      <point x="32" y="467"/>
      <point x="203" y="685"/>
      <point x="441" y="685" type="curve" smooth="yes"/>
      <point x="506" y="685"/>
      <point x="569" y="656"/>
      <point x="607" y="656" type="curve" smooth="yes"/>
      <point x="626" y="656"/>
      <point x="639" y="669"/>
      <point x="647" y="685" type="curve"/>
    </contour>
  </outline>
</glyph>
<glyph name="K" format="1">
  <advance width="688"/>
  <unicode hex="004B"/>
  <outline>
    <contour>
      <point x="189" y="604" type="curve" smooth="yes"/>
      <point x="189" y="635"/>
      <point x="168" y="637"/>
      <point x="116" y="644" type="curve"/>
      <point x="116" y="669" type="line"/>
      <point x="426" y="669" type="line"/>
      <point x="426" y="644" type="line"/>
      <point x="367" y="639"/>
      <point x="346" y="624"/>
      <point x="332" y="572" type="curve" smooth="yes"/>
      <point x="270" y="344" type="line"/>
      <point x="476" y="520"/>
      <point x="544" y="588"/>
      <point x="544" y="617" type="curve" smooth="yes"/>
      <point x="544" y="632"/>
      <point x="534" y="639"/>
      <point x="509" y="642" type="curve" smooth="yes"/>
      <point x="506" y="642"/>
      <point x="497" y="643"/>
      <point x="488" y="644" type="curve"/>
      <point x="488" y="669" type="line"/>
      <point x="699" y="669" type="line"/>
      <point x="699" y="644" type="line"/>
      <point x="656" y="638"/>
      <point x="648" y="635"/>
      <point x="605" y="596" type="curve" smooth="yes"/>
      <point x="389" y="398" type="line"/>
      <point x="546" y="60" type="line" smooth="yes"/>
      <point x="557" y="36"/>
      <point x="571" y="29"/>
      <point x="609" y="25" type="curve"/>
      <point x="609" y="0" type="line"/>
      <point x="329" y="0" type="line"/>
      <point x="329" y="25" type="line"/>
      <point x="367" y="28"/>
      <point x="394" y="30"/>
      <point x="394" y="52" type="curve" smooth="yes"/>
      <point x="394" y="63"/>
      <point x="390" y="75"/>
      <point x="381" y="95" type="curve" smooth="yes"/>
      <point x="268" y="337" type="line"/>
      <point x="201" y="88" type="line" smooth="yes"/>
      <point x="200" y="83"/>
      <point x="199" y="77"/>
      <point x="199" y="71" type="curve" smooth="yes"/>
      <point x="199" y="38"/>
      <point x="213" y="29"/>
      <point x="265" y="25" type="curve"/>
      <point x="265" y="0" type="line"/>
      <point x="-24" y="0" type="line"/>
      <point x="-24" y="25" type="line"/>
      <point x="25" y="31"/>
      <point x="41" y="44"/>
      <point x="56" y="97" type="curve" smooth="yes"/>
      <point x="178" y="546" type="line" smooth="yes"/>
      <point x="185" y="572"/>
      <point x="189" y="593"/>
    </contour>
  </outline>
</glyph>
<glyph name="Q" format="1">
  <advance width="722"/>
  <unicode hex="0051"/>
  <outline>
    <contour>
      <point x="691" y="444" type="curve" smooth="yes"/>
      <point x="691" y="231.505"/>
      <point x="497.055" y="-17.7087"/>
      <point x="272.685" y="-17.7087" type="curve" smooth="yes"/>
      <point x="265.817" y="-17.7087"/>
      <point x="258.92" y="-17.4752"/>
      <point x="252" y="-17" type="curve"/>
      <point x="246" y="-23"/>
      <point x="206" y="-59"/>
      <point x="206" y="-65" type="curve" smooth="yes"/>
      <point x="206" y="-69"/>
      <point x="235" y="-71"/>
      <point x="239" y="-71" type="curve" smooth="yes"/>
      <point x="278" y="-75"/>
      <point x="317" y="-79"/>
      <point x="354" y="-90" type="curve" smooth="yes"/>
      <point x="395" y="-102"/>
      <point x="435" y="-118"/>
      <point x="479" y="-118" type="curve" smooth="yes"/>
      <point x="547" y="-118"/>
      <point x="589" y="-88"/>
      <point x="634" y="-40" type="curve"/>
      <point x="655" y="-59" type="line"/>
      <point x="590" y="-150"/>
      <point x="517" y="-208"/>
      <point x="400" y="-208" type="curve" smooth="yes"/>
      <point x="313" y="-208"/>
      <point x="239" y="-161"/>
      <point x="154" y="-161" type="curve" smooth="yes"/>
      <point x="116" y="-161"/>
      <point x="77" y="-175"/>
      <point x="42" y="-189" type="curve"/>
      <point x="28" y="-165" type="line"/>
      <point x="47" y="-149"/>
      <point x="199" y="-27"/>
      <point x="203" y="-16" type="curve"/>
      <point x="192" y="0"/>
      <point x="27" y="26"/>
      <point x="27" y="207" type="curve" smooth="yes"/>
      <point x="27" y="430"/>
      <point x="211" y="685"/>
      <point x="449" y="685" type="curve" smooth="yes"/>
      <point x="592" y="685"/>
      <point x="691" y="588"/>
    </contour>
    <contour>
      <point x="547" y="526" type="curve" smooth="yes"/>
      <point x="547" y="593"/>
      <point x="518" y="651"/>
      <point x="442" y="651" type="curve" smooth="yes"/>
      <point x="274" y="651"/>
      <point x="171" y="284"/>
      <point x="171" y="150" type="curve" smooth="yes"/>
      <point x="171" y="79"/>
      <point x="195" y="17"/>
      <point x="275" y="17" type="curve" smooth="yes"/>
      <point x="445" y="17"/>
      <point x="547" y="390"/>
    </contour>
  </outline>
</glyph>
<glyph name="asciicircum" format="1">
  <advance width="570"/>
  <unicode hex="005E"/>
  <outline>
    <contour>
      <point x="156" y="304" type="line"/>
      <point x="67" y="304" type="line"/>
      <point x="245" y="669" type="line"/>
      <point x="325" y="669" type="line"/>
      <point x="503" y="304" type="line"/>
      <point x="414" y="304" type="line"/>
      <point x="285" y="576" type="line"/>
    </contour>
  </outline>
</glyph>
<glyph name="d" format="1">
  <advance width="500"/>
  <unicode hex="0064"/>
  <outline>
    <contour>
      <point x="517" y="699" type="curve"/>
      <point x="406" y="294" type="line" smooth="yes"/>
      <point x="396" y="258"/>
      <point x="349" y="97"/>
      <point x="349" y="73" type="curve" smooth="yes"/>
      <point x="349" y="66"/>
      <point x="353" y="59"/>
      <point x="361" y="59" type="curve" smooth="yes"/>
      <point x="381" y="59"/>
      <point x="417" y="114"/>
      <point x="427" y="131" type="curve"/>
      <point x="449" y="115" type="line"/>
      <point x="418" y="64"/>
      <point x="366" y="-11"/>
      <point x="300" y="-11" type="curve" smooth="yes"/>
      <point x="263" y="-11"/>
      <point x="240" y="12"/>
      <point x="240" y="50" type="curve" smooth="yes"/>
      <point x="240" y="72"/>
      <point x="245" y="94"/>
      <point x="250" y="115" type="curve"/>
      <point x="248" y="114" type="line"/>
      <point x="212" y="53"/>
      <point x="164" y="-13"/>
      <point x="85" y="-13" type="curve" smooth="yes"/>
      <point x="15" y="-13"/>
      <point x="-21" y="51"/>
      <point x="-21" y="114" type="curve" smooth="yes"/>
      <point x="-21" y="238"/>
      <point x="110" y="462"/>
      <point x="248" y="462" type="curve" smooth="yes"/>
      <point x="280" y="462"/>
      <point x="301" y="452"/>
      <point x="323" y="429" type="curve"/>
      <point x="331" y="458"/>
      <point x="370" y="591"/>
      <point x="370" y="613" type="curve" smooth="yes"/>
      <point x="370" y="640.524"/>
      <point x="345.098" y="643.145"/>
      <point x="322.879" y="643.145" type="curve" smooth="yes"/>
      <point x="317.651" y="643.145"/>
      <point x="312.571" y="643"/>
      <point x="308" y="643" type="curve"/>
      <point x="308" y="670" type="line"/>
      <point x="378" y="676"/>
      <point x="448" y="683"/>
    </contour>
    <contour>
      <point x="308" y="368" type="curve" smooth="yes"/>
      <point x="308" y="391"/>
      <point x="298" y="420"/>
      <point x="270" y="420" type="curve" smooth="yes"/>
      <point x="184" y="420"/>
      <point x="103" y="190"/>
      <point x="103" y="118" type="curve" smooth="yes"/>
      <point x="103" y="93"/>
      <point x="114" y="59"/>
      <point x="145" y="59" type="curve" smooth="yes"/>
      <point x="225" y="59"/>
      <point x="308" y="300"/>
    </contour>
  </outline>
</glyph>
<glyph name="j" format="1">
  <advance width="278"/>
  <unicode hex="006A"/>
  <outline>
    <contour>
      <point x="239" y="462" type="curve"/>
      <point x="125" y="24" type="line" smooth="yes"/>
      <point x="98" y="-80"/>
      <point x="43" y="-207"/>
      <point x="-83" y="-207" type="curve" smooth="yes"/>
      <point x="-131" y="-207"/>
      <point x="-189" y="-186"/>
      <point x="-189" y="-130" type="curve" smooth="yes"/>
      <point x="-189" y="-103"/>
      <point x="-168" y="-77"/>
      <point x="-140" y="-77" type="curve" smooth="yes"/>
      <point x="-113" y="-77"/>
      <point x="-91" y="-99"/>
      <point x="-91" y="-126" type="curve" smooth="yes"/>
      <point x="-91" y="-147"/>
      <point x="-106" y="-156"/>
      <point x="-106" y="-164" type="curve" smooth="yes"/>
      <point x="-106" y="-171"/>
      <point x="-89" y="-176"/>
      <point x="-84" y="-176" type="curve" smooth="yes"/>
      <point x="-38" y="-176"/>
      <point x="-20" y="-78"/>
      <point x="-11" y="-45" type="curve" smooth="yes"/>
      <point x="81" y="310" type="line" smooth="yes"/>
      <point x="86" y="331"/>
      <point x="93" y="354"/>
      <point x="93" y="376" type="curve" smooth="yes"/>
      <point x="93" y="402.863"/>
      <point x="71.7937" y="407.93"/>
      <point x="50.1782" y="407.93" type="curve" smooth="yes"/>
      <point x="43.6303" y="407.93"/>
      <point x="37.0449" y="407.465"/>
      <point x="31" y="407" type="curve"/>
      <point x="31" y="434" type="line"/>
      <point x="101" y="440"/>
      <point x="170" y="447"/>
    </contour>
    <contour>
      <point x="210" y="685" type="curve" smooth="yes"/>
      <point x="248" y="685"/>
      <point x="279" y="654"/>
      <point x="279" y="617" type="curve" smooth="yes"/>
      <point x="279" y="580"/>
      <point x="248" y="550"/>
      <point x="210" y="550" type="curve" smooth="yes"/>
      <point x="173" y="550"/>
      <point x="144" y="580"/>
      <point x="144" y="619" type="curve" smooth="yes"/>
      <point x="144" y="654"/>
      <point x="175" y="685"/>
    </contour>
  </outline>
</glyph>
<glyph name="k" format="1">
  <advance width="500"/>
  <unicode hex="006B"/>
  <outline>
    <contour>
      <point x="149" y="188" type="line"/>
      <point x="99" y="0" type="line"/>
      <point x="-23" y="0" type="line"/>
      <point x="133" y="567" type="line" smooth="yes"/>
      <point x="138" y="586"/>
      <point x="141" y="600"/>
      <point x="141" y="609" type="curve" smooth="yes"/>
      <point x="141" y="632"/>
      <point x="127" y="643"/>
      <point x="99" y="643" type="curve" smooth="yes"/>
      <point x="95" y="643"/>
      <point x="86" y="643"/>
      <point x="78" y="642" type="curve"/>
      <point x="78" y="669" type="line"/>
      <point x="157" y="677"/>
      <point x="209" y="685"/>
      <point x="286" y="699" type="curve"/>
      <point x="163" y="239" type="line"/>
      <point x="289" y="338"/>
      <point x="327" y="375"/>
      <point x="327" y="401" type="curve" smooth="yes"/>
      <point x="327" y="417"/>
      <point x="315" y="422"/>
      <point x="276" y="424" type="curve"/>
      <point x="276" y="449" type="line"/>
      <point x="483" y="449" type="line"/>
      <point x="483" y="424" type="line"/>
      <point x="437" y="418"/>
      <point x="416" y="406"/>
      <point x="348" y="348" type="curve" smooth="yes"/>
      <point x="285" y="293" type="line"/>
      <point x="323" y="98"/>
      <point x="335" y="63"/>
      <point x="363" y="63" type="curve" smooth="yes"/>
      <point x="382" y="63"/>
      <point x="398" y="80"/>
      <point x="425" y="127" type="curve"/>
      <point x="447" y="116" type="line"/>
      <point x="397" y="25"/>
      <point x="361" y="-8"/>
      <point x="311" y="-8" type="curve" smooth="yes"/>
      <point x="249" y="-8"/>
      <point x="219" y="45"/>
      <point x="188" y="215" type="curve"/>
    </contour>
  </outline>
</glyph>
<glyph name="q" format="1">
  <advance width="500"/>
  <unicode hex="0071"/>
  <outline>
    <contour>
      <point x="471" y="449" type="line"/>
      <point x="317" y="-81" type="line" smooth="yes"/>
      <point x="307" y="-114"/>
      <point x="305" y="-130"/>
      <point x="305" y="-145" type="curve" smooth="yes"/>
      <point x="305" y="-176.41"/>
      <point x="338.826" y="-178.021"/>
      <point x="363.112" y="-178.021" type="curve" smooth="yes"/>
      <point x="365.888" y="-178.021"/>
      <point x="368.538" y="-178"/>
      <point x="371" y="-178" type="curve"/>
      <point x="371" y="-205" type="line"/>
      <point x="104" y="-205" type="line"/>
      <point x="104" y="-178" type="line"/>
      <point x="158" y="-176"/>
      <point x="178" y="-170"/>
      <point x="194" y="-115" type="curve" smooth="yes"/>
      <point x="254" y="89" type="line"/>
      <point x="252" y="91" type="line"/>
      <point x="220" y="38"/>
      <point x="173" y="-13"/>
      <point x="106" y="-13" type="curve" smooth="yes"/>
      <point x="20" y="-13"/>
      <point x="1" y="59"/>
      <point x="1" y="130" type="curve" smooth="yes"/>
      <point x="1" y="250"/>
      <point x="139" y="462"/>
      <point x="270" y="462" type="curve" smooth="yes"/>
      <point x="320" y="462"/>
      <point x="340" y="441"/>
      <point x="346" y="394" type="curve"/>
      <point x="348" y="394" type="line"/>
      <point x="362" y="449" type="line"/>
    </contour>
    <contour>
      <point x="325" y="369" type="curve" smooth="yes"/>
      <point x="325" y="392"/>
      <point x="317" y="419"/>
      <point x="289" y="419" type="curve" smooth="yes"/>
      <point x="205" y="419"/>
      <point x="126" y="193"/>
      <point x="126" y="123" type="curve" smooth="yes"/>
      <point x="126" y="93"/>
      <point x="128" y="59"/>
      <point x="167" y="59" type="curve" smooth="yes"/>
      <point x="254" y="59"/>
      <point x="325" y="298"/>
    </contour>
  </outline>
</glyph>
<glyph name="braceright" format="1">
  <advance width="348"/>
  <unicode hex="007D"/>
  <outline>
    <contour>
      <point x="-129" y="-187" type="curve"/>
      <point x="-126" y="-175" type="line"/>
      <point x="-45" y="-160"/>
      <point x="-8" y="-127"/>
      <point x="12" y="-51" type="curve" smooth="yes"/>
      <point x="57" y="120" type="line" smooth="yes"/>
      <point x="80" y="205"/>
      <point x="110" y="231"/>
      <point x="208" y="250" type="curve"/>
      <point x="133" y="270"/>
      <point x="116" y="284"/>
      <point x="116" y="326" type="curve" smooth="yes"/>
      <point x="116" y="348"/>
      <point x="125" y="390"/>
      <point x="144" y="456" type="curve" smooth="yes"/>
      <point x="165" y="526"/>
      <point x="175" y="572"/>
      <point x="175" y="597" type="curve" smooth="yes"/>
      <point x="175" y="641"/>
      <point x="151" y="663"/>
      <point x="94" y="674" type="curve"/>
      <point x="97" y="686" type="line"/>
      <point x="190" y="684"/>
      <point x="229" y="676"/>
      <point x="254" y="655" type="curve" smooth="yes"/>
      <point x="271" y="640"/>
      <point x="279" y="621"/>
      <point x="279" y="598" type="curve" smooth="yes"/>
      <point x="279" y="567"/>
      <point x="263" y="493"/>
      <point x="244" y="436" type="curve" smooth="yes"/>
      <point x="228" y="388"/>
      <point x="218" y="344"/>
      <point x="218" y="320" type="curve" smooth="yes"/>
      <point x="218" y="285"/>
      <point x="240" y="266"/>
      <point x="302" y="250" type="curve"/>
      <point x="213" y="230"/>
      <point x="185" y="206"/>
      <point x="165" y="134" type="curve" smooth="yes"/>
      <point x="119" y="-45" type="line" smooth="yes"/>
      <point x="88" y="-154"/>
      <point x="30" y="-187"/>
    </contour>
  </outline>
</glyph>
<glyph name="asciitilde" format="1">
  <advance width="570"/>
  <unicode hex="007E"/>
  <outline>
    <contour>
      <point x="461" y="308" type="curve"/>
      <point x="516" y="260" type="line"/>
      <point x="470" y="197"/>
      <point x="439" y="175"/>
      <point x="393" y="175" type="curve" smooth="yes"/>
      <point x="360" y="175"/>
      <point x="334" y="183"/>
      <point x="288" y="208" type="curve" smooth="yes"/>
      <point x="242" y="233"/>
      <point x="211" y="243"/>
      <point x="176" y="243" type="curve" smooth="yes"/>
      <point x="147" y="243"/>
      <point x="131" y="233"/>
      <point x="107" y="201" type="curve"/>
      <point x="54" y="247" type="line"/>
      <point x="87" y="305"/>
      <point x="125" y="331"/>
      <point x="175" y="331" type="curve" smooth="yes"/>
      <point x="212" y="331"/>
      <point x="233" y="324"/>
      <point x="311" y="290" type="curve" smooth="yes"/>
      <point x="360" y="268"/>
      <point x="375" y="263"/>
      <point x="393" y="263" type="curve" smooth="yes"/>
      <point x="416" y="263"/>
      <point x="436" y="276"/>
    </contour>
  </outline>
</glyph>
<glyph name="exclamdown" format="1">
  <advance width="389"/>
  <unicode hex="00A1"/>
  <outline>
    <contour>
      <point x="193" y="275" type="curve"/>
      <point x="222" y="267" type="line"/>
      <point x="192" y="114"/>
      <point x="173" y="-11"/>
      <point x="169" y="-86" type="curve" smooth="yes"/>
      <point x="167" y="-128"/>
      <point x="165" y="-141"/>
      <point x="157" y="-159" type="curve" smooth="yes"/>
      <point x="143" y="-188"/>
      <point x="118" y="-205"/>
      <point x="88" y="-205" type="curve" smooth="yes"/>
      <point x="47" y="-205"/>
      <point x="19" y="-176"/>
      <point x="19" y="-131" type="curve" smooth="yes"/>
      <point x="19" y="-105"/>
      <point x="24" y="-89"/>
      <point x="50" y="-43" type="curve" smooth="yes"/>
      <point x="106" y="66"/>
      <point x="151" y="167"/>
    </contour>
    <contour>
      <point x="248" y="494" type="curve" smooth="yes"/>
      <point x="290" y="494"/>
      <point x="320" y="464"/>
      <point x="320" y="423" type="curve" smooth="yes"/>
      <point x="320" y="381"/>
      <point x="288" y="348"/>
      <point x="247" y="348" type="curve" smooth="yes"/>
      <point x="209" y="348"/>
      <point x="174" y="383"/>
      <point x="174" y="423" type="curve" smooth="yes"/>
      <point x="174" y="463"/>
      <point x="207" y="494"/>
    </contour>
  </outline>
</glyph>
<glyph name="sterling" format="1">
  <advance width="500"/>
  <unicode hex="00A3"/>
  <outline>
    <contour>
      <point x="394" y="370" type="line"/>
      <point x="384" y="310" type="line"/>
      <point x="269" y="310" type="line"/>
      <point x="256" y="252"/>
      <point x="231" y="184"/>
      <point x="205" y="141" type="curve" smooth="yes"/>
      <point x="194" y="124" type="line"/>
      <point x="254" y="101"/>
      <point x="287" y="92"/>
      <point x="319" y="92" type="curve" smooth="yes"/>
      <point x="367" y="92"/>
      <point x="387" y="106"/>
      <point x="409" y="155" type="curve"/>
      <point x="434" y="155" type="line"/>
      <point x="422" y="98"/>
      <point x="411" y="71"/>
      <point x="390" y="43" type="curve" smooth="yes"/>
      <point x="365" y="8"/>
      <point x="325" y="-12"/>
      <point x="283" y="-12" type="curve" smooth="yes"/>
      <point x="241" y="-12"/>
      <point x="208" y="4"/>
      <point x="156" y="49" type="curve"/>
      <point x="129" y="6"/>
      <point x="101" y="-11"/>
      <point x="58" y="-11" type="curve" smooth="yes"/>
      <point x="5" y="-11"/>
      <point x="-32" y="25"/>
      <point x="-32" y="75" type="curve" smooth="yes"/>
      <point x="-32" y="127"/>
      <point x="7" y="162"/>
      <point x="64" y="162" type="curve" smooth="yes"/>
      <point x="85" y="162"/>
      <point x="100" y="159"/>
      <point x="125" y="148" type="curve"/>
      <point x="132" y="215"/>
      <point x="134" y="226"/>
      <point x="144" y="310" type="curve"/>
      <point x="35" y="310" type="line"/>
      <point x="45" y="370" type="line"/>
      <point x="150" y="370" type="line"/>
      <point x="175" y="494"/>
      <point x="199" y="551"/>
      <point x="248" y="607" type="curve" smooth="yes"/>
      <point x="290" y="656"/>
      <point x="344" y="683"/>
      <point x="401" y="683" type="curve" smooth="yes"/>
      <point x="464" y="683"/>
      <point x="510" y="644"/>
      <point x="510" y="592" type="curve" smooth="yes"/>
      <point x="510" y="554"/>
      <point x="483" y="524"/>
      <point x="449" y="524" type="curve" smooth="yes"/>
      <point x="419" y="524"/>
      <point x="396" y="546"/>
      <point x="396" y="575" type="curve" smooth="yes"/>
      <point x="396" y="585"/>
      <point x="398" y="597"/>
      <point x="400" y="609" type="curve" smooth="yes"/>
      <point x="402" y="616"/>
      <point x="403" y="623"/>
      <point x="403" y="628" type="curve" smooth="yes"/>
      <point x="403" y="640"/>
      <point x="393" y="649"/>
      <point x="379" y="649" type="curve" smooth="yes"/>
      <point x="350" y="649"/>
      <point x="329" y="622"/>
      <point x="319" y="572" type="curve" smooth="yes"/>
      <point x="280" y="370" type="line"/>
    </contour>
    <contour>
      <point x="113" y="90" type="curve"/>
      <point x="91" y="111"/>
      <point x="71" y="120"/>
      <point x="49" y="120" type="curve" smooth="yes"/>
      <point x="18" y="120"/>
      <point x="-2" y="100"/>
      <point x="-2" y="70" type="curve" smooth="yes"/>
      <point x="-2" y="40"/>
      <point x="21" y="19"/>
      <point x="54" y="19" type="curve" smooth="yes"/>
      <point x="84" y="19"/>
      <point x="102" y="41"/>
    </contour>
  </outline>
</glyph>
<glyph name="section" format="1">
  <advance width="500"/>
  <unicode hex="00A7"/>
  <outline>
    <contour>
      <point x="288" y="125" type="curve"/>
      <point x="286" y="121" type="line"/>
      <point x="329" y="67"/>
      <point x="345" y="33"/>
      <point x="345" y="-9" type="curve" smooth="yes"/>
      <point x="345" y="-84"/>
      <point x="273" y="-143"/>
      <point x="181" y="-143" type="curve" smooth="yes"/>
      <point x="99" y="-143"/>
      <point x="36" y="-97"/>
      <point x="36" y="-38" type="curve" smooth="yes"/>
      <point x="36" y="-3"/>
      <point x="61" y="22"/>
      <point x="94" y="22" type="curve" smooth="yes"/>
      <point x="126" y="22"/>
      <point x="150" y="1"/>
      <point x="150" y="-28" type="curve" smooth="yes"/>
      <point x="150" y="-48"/>
      <point x="144" y="-59"/>
      <point x="128" y="-73" type="curve" smooth="yes"/>
      <point x="118" y="-81"/>
      <point x="115" y="-86"/>
      <point x="115" y="-91" type="curve" smooth="yes"/>
      <point x="115" y="-106"/>
      <point x="148" y="-120"/>
      <point x="182" y="-120" type="curve" smooth="yes"/>
      <point x="232" y="-120"/>
      <point x="268" y="-88"/>
      <point x="268" y="-44" type="curve" smooth="yes"/>
      <point x="268" y="-11"/>
      <point x="256" y="9"/>
      <point x="185" y="95" type="curve" smooth="yes"/>
      <point x="119" y="175" type="line" smooth="yes"/>
      <point x="84" y="217"/>
      <point x="68" y="256"/>
      <point x="68" y="299" type="curve" smooth="yes"/>
      <point x="68" y="368"/>
      <point x="115" y="425"/>
      <point x="172" y="425" type="curve" smooth="yes"/>
      <point x="184" y="425"/>
      <point x="209" y="422"/>
      <point x="221" y="419" type="curve"/>
      <point x="223" y="422" type="line"/>
      <point x="188" y="461"/>
      <point x="168" y="507"/>
      <point x="168" y="551" type="curve" smooth="yes"/>
      <point x="168" y="630"/>
      <point x="232" y="685"/>
      <point x="323" y="685" type="curve" smooth="yes"/>
      <point x="402" y="685"/>
      <point x="459" y="644"/>
      <point x="459" y="587" type="curve" smooth="yes"/>
      <point x="459" y="552"/>
      <point x="434" y="526"/>
      <point x="401" y="526" type="curve" smooth="yes"/>
      <point x="371" y="526"/>
      <point x="346" y="551"/>
      <point x="346" y="580" type="curve" smooth="yes"/>
      <point x="346" y="595"/>
      <point x="352" y="605"/>
      <point x="368" y="618" type="curve" smooth="yes"/>
      <point x="378" y="625"/>
      <point x="382" y="630"/>
      <point x="382" y="635" type="curve" smooth="yes"/>
      <point x="382" y="650"/>
      <point x="354" y="663"/>
      <point x="323" y="663" type="curve" smooth="yes"/>
      <point x="274" y="663"/>
      <point x="238" y="633"/>
      <point x="238" y="590" type="curve" smooth="yes"/>
      <point x="238" y="558"/>
      <point x="256" y="526"/>
      <point x="306" y="467" type="curve" smooth="yes"/>
      <point x="375" y="386" type="line" smooth="yes"/>
      <point x="413" y="341"/>
      <point x="435" y="290"/>
      <point x="435" y="243" type="curve" smooth="yes"/>
      <point x="435" y="177"/>
      <point x="382" y="121"/>
      <point x="318" y="121" type="curve" smooth="yes"/>
      <point x="308" y="121"/>
      <point x="300" y="122"/>
    </contour>
    <contour>
      <point x="195" y="400" type="curve" smooth="yes"/>
      <point x="164" y="400"/>
      <point x="139" y="374"/>
      <point x="139" y="342" type="curve" smooth="yes"/>
      <point x="139" y="321"/>
      <point x="151" y="291"/>
      <point x="168" y="266" type="curve" smooth="yes"/>
      <point x="192" y="233"/>
      <point x="220" y="200"/>
      <point x="243" y="179" type="curve" smooth="yes"/>
      <point x="267" y="156"/>
      <point x="283" y="148"/>
      <point x="305" y="148" type="curve" smooth="yes"/>
      <point x="336" y="148"/>
      <point x="364" y="175"/>
      <point x="364" y="206" type="curve" smooth="yes"/>
      <point x="364" y="273"/>
      <point x="253" y="400"/>
    </contour>
  </outline>
</glyph>
<glyph name="acute" format="1">
  <advance width="380"/>
  <unicode hex="00B4"/>
  <outline>
    <contour>
      <point x="119" y="516" type="line"/>
      <point x="70" y="516" type="line"/>
      <point x="192" y="647" type="line" smooth="yes"/>
      <point x="227" y="685"/>
      <point x="244" y="697"/>
      <point x="262" y="697" type="curve" smooth="yes"/>
      <point x="288" y="697"/>
      <point x="310" y="675"/>
      <point x="310" y="650" type="curve" smooth="yes"/>
      <point x="310" y="631"/>
      <point x="301" y="620"/>
      <point x="271" y="603" type="curve" smooth="yes"/>
    </contour>
  </outline>
</glyph>
<glyph name="ordmasculine" format="1">
  <advance width="300"/>
  <unicode hex="00BA"/>
  <outline>
    <contour>
      <point x="243" y="685" type="curve" smooth="yes"/>
      <point x="303.97" y="685"/>
      <point x="347.145" y="646.6"/>
      <point x="347.145" y="592.46" type="curve" smooth="yes"/>
      <point x="347.145" y="590.657"/>
      <point x="347.097" y="588.837"/>
      <point x="347" y="587" type="curve" smooth="yes"/>
      <point x="342" y="488"/>
      <point x="254" y="400"/>
      <point x="162" y="400" type="curve" smooth="yes"/>
      <point x="101" y="400"/>
      <point x="56" y="438"/>
      <point x="56" y="489" type="curve" smooth="yes"/>
      <point x="56" y="589"/>
      <point x="148" y="685"/>
    </contour>
    <contour>
      <point x="241" y="665" type="curve" smooth="yes"/>
      <point x="240.471" y="665.026"/>
      <point x="239.941" y="665.04"/>
      <point x="239.408" y="665.04" type="curve" smooth="yes"/>
      <point x="219.789" y="665.04"/>
      <point x="197.551" y="647.181"/>
      <point x="181" y="617" type="curve" smooth="yes"/>
      <point x="158" y="576"/>
      <point x="137" y="499"/>
      <point x="137" y="455" type="curve" smooth="yes"/>
      <point x="137" y="433"/>
      <point x="148" y="420"/>
      <point x="165" y="420" type="curve" smooth="yes"/>
      <point x="188" y="420"/>
      <point x="208" y="440"/>
      <point x="229" y="483" type="curve" smooth="yes"/>
      <point x="248.193" y="523.406"/>
      <point x="266.075" y="585.832"/>
      <point x="266.075" y="630.399" type="curve" smooth="yes"/>
      <point x="266.075" y="651.374"/>
      <point x="257.146" y="664.05"/>
    </contour>
  </outline>
</glyph>
<glyph name="threequarters" format="1">
  <advance width="750"/>
  <unicode hex="00BE"/>
  <outline>
    <contour>
      <point x="634" y="683" type="line"/>
      <point x="199" y="-14" type="line"/>
      <point x="141" y="-14" type="line"/>
      <point x="576" y="683" type="line"/>
    </contour>
    <contour>
      <point x="693" y="149" type="line"/>
      <point x="676" y="88" type="line"/>
      <point x="632" y="88" type="line"/>
      <point x="604" y="0" type="line"/>
      <point x="518" y="0" type="line"/>
      <point x="545" y="88" type="line"/>
      <point x="386" y="88" type="line"/>
      <point x="402" y="155" type="line"/>
      <point x="680" y="410" type="line"/>
      <point x="726" y="410" type="line"/>
      <point x="648" y="149" type="line"/>
    </contour>
    <contour>
      <point x="430" y="149" type="line"/>
      <point x="562" y="149" type="line"/>
      <point x="614" y="319" type="line"/>
    </contour>
    <contour>
      <point x="100" y="481" type="curve"/>
      <point x="102" y="495" type="line"/>
      <point x="184" y="510"/>
      <point x="223" y="537"/>
      <point x="223" y="580" type="curve" smooth="yes"/>
      <point x="223" y="612"/>
      <point x="202" y="632"/>
      <point x="168" y="632" type="curve" smooth="yes"/>
      <point x="140" y="632"/>
      <point x="121" y="622"/>
      <point x="93" y="590" type="curve"/>
      <point x="79" y="603" type="line"/>
      <point x="119" y="659"/>
      <point x="159" y="683"/>
      <point x="212" y="683" type="curve" smooth="yes"/>
      <point x="268" y="683"/>
      <point x="311" y="648"/>
      <point x="311" y="602" type="curve" smooth="yes"/>
      <point x="311" y="565"/>
      <point x="297" y="548"/>
      <point x="239" y="515" type="curve" smooth="yes"/>
      <point x="232" y="511" type="line"/>
      <point x="270" y="485"/>
      <point x="284" y="462"/>
      <point x="284" y="423" type="curve" smooth="yes"/>
      <point x="284" y="336"/>
      <point x="198" y="265"/>
      <point x="92" y="265" type="curve" smooth="yes"/>
      <point x="39" y="265"/>
      <point x="7" y="284"/>
      <point x="7" y="315" type="curve" smooth="yes"/>
      <point x="7" y="339"/>
      <point x="23" y="356"/>
      <point x="44" y="356" type="curve" smooth="yes"/>
      <point x="60" y="356"/>
      <point x="74" y="347"/>
      <point x="87" y="328" type="curve" smooth="yes"/>
      <point x="108" y="300"/>
      <point x="111" y="298"/>
      <point x="130" y="298" type="curve" smooth="yes"/>
      <point x="169" y="298"/>
      <point x="200" y="338"/>
      <point x="200" y="390" type="curve" smooth="yes"/>
      <point x="200" y="448"/>
      <point x="167" y="478"/>
    </contour>
  </outline>
</glyph>
<glyph name="Agrave" format="1">
  <advance width="691"/>
  <unicode hex="00C0"/>
  <outline>
    <contour>
      <point x="617" y="0" type="line"/>
      <point x="313" y="0" type="line"/>
      <point x="313" y="25" type="line"/>
      <point x="353" y="28"/>
      <point x="392" y="30"/>
      <point x="392" y="81" type="curve" smooth="yes"/>
      <point x="392" y="123"/>
      <point x="383" y="167"/>
      <point x="377" y="208" type="curve"/>
      <point x="162" y="208" type="line"/>
      <point x="146" y="180"/>
      <point x="88" y="97"/>
      <point x="88" y="60" type="curve" smooth="yes"/>
      <point x="88" y="27"/>
      <point x="129" y="25"/>
      <point x="153" y="25" type="curve"/>
      <point x="153" y="0" type="line"/>
      <point x="-43" y="0" type="line"/>
      <point x="-43" y="25" type="line"/>
      <point x="1" y="36"/>
      <point x="16" y="57"/>
      <point x="40" y="95" type="curve" smooth="yes"/>
      <point x="412" y="683" type="line"/>
      <point x="437" y="683" type="line"/>
      <point x="533" y="111" type="line" smooth="yes"/>
      <point x="545" y="41"/>
      <point x="547" y="32"/>
      <point x="617" y="25" type="curve"/>
    </contour>
    <contour>
      <point x="185" y="248" type="line"/>
      <point x="370" y="248" type="line"/>
      <point x="333" y="491" type="line"/>
    </contour>
    <contour>
      <point x="509" y="723" type="line"/>
      <point x="464" y="723" type="line"/>
      <point x="331" y="812" type="line" smooth="yes"/>
      <point x="309" y="827"/>
      <point x="297" y="844"/>
      <point x="297" y="859" type="curve" smooth="yes"/>
      <point x="297" y="883"/>
      <point x="318" y="904"/>
      <point x="342" y="904" type="curve" smooth="yes"/>
      <point x="361" y="904"/>
      <point x="382" y="891"/>
      <point x="398" y="870" type="curve" smooth="yes"/>
    </contour>
  </outline>
</glyph>
<glyph name="Aring" format="1">
  <advance width="691"/>
  <unicode hex="00C5"/>
  <outline>
    <contour>
      <point x="617" y="0" type="line"/>
      <point x="313" y="0" type="line"/>
      <point x="313" y="25" type="line"/>
      <point x="353" y="28"/>
      <point x="392" y="30"/>
      <point x="392" y="81" type="curve" smooth="yes"/>
      <point x="392" y="123"/>
      <point x="383" y="167"/>
      <point x="377" y="208" type="curve"/>
      <point x="162" y="208" type="line"/>
      <point x="146" y="180"/>
      <point x="88" y="97"/>
      <point x="88" y="60" type="curve" smooth="yes"/>
      <point x="88" y="27"/>
      <point x="129" y="25"/>
      <point x="153" y="25" type="curve"/>
      <point x="153" y="0" type="line"/>
      <point x="-43" y="0" type="line"/>
      <point x="-43" y="25" type="line"/>
      <point x="1" y="36"/>
      <point x="16" y="57"/>
      <point x="40" y="95" type="curve" smooth="yes"/>
      <point x="412" y="683" type="line"/>
      <point x="437" y="683" type="line"/>
      <point x="533" y="111" type="line" smooth="yes"/>
      <point x="545" y="41"/>
      <point x="547" y="32"/>
      <point x="617" y="25" type="curve"/>
    </contour>
    <contour>
      <point x="185" y="248" type="line"/>
      <point x="370" y="248" type="line"/>
      <point x="333" y="491" type="line"/>
    </contour>
    <contour>
      <point x="446" y="950" type="curve" smooth="yes"/>
      <point x="504" y="950"/>
      <point x="552" y="902"/>
      <point x="552" y="843" type="curve" smooth="yes"/>
      <point x="552" y="784"/>
      <point x="504" y="736"/>
      <point x="445" y="736" type="curve" smooth="yes"/>
      <point x="386" y="736"/>
      <point x="339" y="785"/>
      <point x="339" y="845" type="curve" smooth="yes"/>
      <point x="339" y="902"/>
      <point x="388" y="950"/>
    </contour>
    <contour>
      <point x="444" y="902" type="curve" smooth="yes"/>
      <point x="414" y="902"/>
      <point x="387" y="874"/>
      <point x="387" y="843" type="curve" smooth="yes"/>
      <point x="387" y="811"/>
      <point x="413" y="784"/>
      <point x="444" y="784" type="curve" smooth="yes"/>
      <point x="477" y="784"/>
      <point x="504" y="810"/>
      <point x="504" y="842" type="curve" smooth="yes"/>
      <point x="504" y="875"/>
      <point x="477" y="902"/>
    </contour>
  </outline>
</glyph>
<glyph name="Iacute" format="1">
  <advance width="393"/>
  <unicode hex="00CD"/>
  <outline>
    <contour>
      <point x="189" y="607" type="curve" smooth="yes"/>
      <point x="189" y="635"/>
      <point x="169" y="636"/>
      <point x="116" y="644" type="curve"/>
      <point x="116" y="669" type="line"/>
      <point x="414" y="669" type="line"/>
      <point x="414" y="644" type="line"/>
      <point x="363" y="638"/>
      <point x="347" y="625"/>
      <point x="332" y="572" type="curve" smooth="yes"/>
      <point x="218" y="152" type="line" smooth="yes"/>
      <point x="205" y="103"/>
      <point x="200" y="80"/>
      <point x="200" y="65" type="curve" smooth="yes"/>
      <point x="200" y="37"/>
      <point x="215" y="28"/>
      <point x="272" y="25" type="curve"/>
      <point x="272" y="0" type="line"/>
      <point x="-24" y="0" type="line"/>
      <point x="-24" y="25" type="line"/>
      <point x="25" y="31"/>
      <point x="42" y="45"/>
      <point x="56" y="97" type="curve" smooth="yes"/>
      <point x="179" y="546" type="line" smooth="yes"/>
      <point x="184" y="564"/>
      <point x="189" y="595"/>
    </contour>
    <contour>
      <point x="272" y="723" type="line"/>
      <point x="223" y="723" type="line"/>
      <point x="345" y="854" type="line" smooth="yes"/>
      <point x="380" y="892"/>
      <point x="397" y="904"/>
      <point x="415" y="904" type="curve" smooth="yes"/>
      <point x="441" y="904"/>
      <point x="463" y="882"/>
      <point x="463" y="857" type="curve" smooth="yes"/>
      <point x="463" y="838"/>
      <point x="454" y="827"/>
      <point x="424" y="810" type="curve" smooth="yes"/>
    </contour>
  </outline>
</glyph>
<glyph name="Eth" format="1">
  <advance width="722"/>
  <unicode hex="00D0"/>
  <outline>
    <contour>
      <point x="109" y="644" type="curve"/>
      <point x="109" y="669" type="line"/>
      <point x="399" y="669" type="line" smooth="yes"/>
      <point x="588" y="669"/>
      <point x="700" y="567"/>
      <point x="700" y="396" type="curve" smooth="yes"/>
      <point x="700" y="169"/>
      <point x="510" y="0"/>
      <point x="255" y="0" type="curve" smooth="yes"/>
      <point x="-31" y="0" type="line"/>
      <point x="-31" y="25" type="line"/>
      <point x="18" y="31"/>
      <point x="34" y="46"/>
      <point x="49" y="97" type="curve" smooth="yes"/>
      <point x="112" y="329" type="line"/>
      <point x="10" y="329" type="line"/>
      <point x="22" y="373" type="line"/>
      <point x="124" y="373" type="line"/>
      <point x="180" y="582" type="line" smooth="yes"/>
      <point x="181.788" y="588.483"/>
      <point x="182.602" y="594.266"/>
      <point x="182.602" y="599.428" type="curve" smooth="yes"/>
      <point x="182.602" y="640.447"/>
      <point x="131.206" y="642.224"/>
    </contour>
    <contour>
      <point x="192" y="76" type="line" smooth="yes"/>
      <point x="191.137" y="72.8365"/>
      <point x="190.688" y="69.7143"/>
      <point x="190.688" y="66.687" type="curve" smooth="yes"/>
      <point x="190.688" y="48.6617"/>
      <point x="206.615" y="34"/>
      <point x="246" y="34" type="curve" smooth="yes"/>
      <point x="341" y="34"/>
      <point x="412" y="71"/>
      <point x="465" y="147" type="curve" smooth="yes"/>
      <point x="519" y="224"/>
      <point x="553" y="343"/>
      <point x="553" y="457" type="curve" smooth="yes"/>
      <point x="553" y="579"/>
      <point x="499" y="638"/>
      <point x="388" y="638" type="curve" smooth="yes"/>
      <point x="356" y="638"/>
      <point x="340" y="627"/>
      <point x="333" y="600" type="curve" smooth="yes"/>
      <point x="272" y="373" type="line"/>
      <point x="394" y="373" type="line"/>
      <point x="382" y="329" type="line"/>
      <point x="260" y="329" type="line"/>
    </contour>
  </outline>
</glyph>
<glyph name="Oacute" format="1">
  <advance width="722"/>
  <unicode hex="00D3"/>
  <outline>
    <contour>
      <point x="691" y="444" type="curve" smooth="yes"/>
      <point x="691" y="225"/>
      <point x="493" y="-18"/>
      <point x="265" y="-18" type="curve" smooth="yes"/>
      <point x="135" y="-18"/>
      <point x="27" y="73"/>
      <point x="27" y="207" type="curve" smooth="yes"/>
      <point x="27" y="430"/>
      <point x="211" y="685"/>
      <point x="449" y="685" type="curve" smooth="yes"/>
      <point x="592" y="685"/>
      <point x="691" y="588"/>
    </contour>
    <contour>
      <point x="547" y="526" type="curve" smooth="yes"/>
      <point x="547" y="593"/>
      <point x="518" y="651"/>
      <point x="442" y="651" type="curve" smooth="yes"/>
      <point x="274" y="651"/>
      <point x="171" y="284"/>
      <point x="171" y="150" type="curve" smooth="yes"/>
      <point x="171" y="79"/>
      <point x="195" y="16"/>
      <point x="275" y="16" type="curve" smooth="yes"/>
      <point x="445" y="16"/>
      <point x="547" y="391"/>
    </contour>
    <contour>
      <point x="458" y="723" type="line"/>
      <point x="409" y="723" type="line"/>
      <point x="531" y="854" type="line" smooth="yes"/>
      <point x="566" y="892"/>
      <point x="583" y="904"/>
      <point x="601" y="904" type="curve" smooth="yes"/>
      <point x="627" y="904"/>
      <point x="649" y="882"/>
      <point x="649" y="857" type="curve" smooth="yes"/>
      <point x="649" y="838"/>
      <point x="640" y="827"/>
      <point x="610" y="810" type="curve" smooth="yes"/>
    </contour>
  </outline>
</glyph>
<glyph name="Thorn" format="1">
  <advance width="611"/>
  <unicode hex="00DE"/>
  <outline>
    <contour>
      <point x="573" y="377" type="curve" smooth="yes"/>
      <point x="573" y="239"/>
      <point x="430" y="182"/>
      <point x="312" y="182" type="curve" smooth="yes"/>
      <point x="281" y="182"/>
      <point x="250" y="184"/>
      <point x="219" y="187" type="curve"/>
      <point x="211" y="152"/>
      <point x="195" y="105"/>
      <point x="195" y="68" type="curve" smooth="yes"/>
      <point x="195" y="26"/>
      <point x="235" y="26"/>
      <point x="267" y="25" type="curve"/>
      <point x="267" y="0" type="line"/>
      <point x="-27" y="0" type="line"/>
      <point x="-27" y="25" type="line"/>
      <point x="24" y="34"/>
      <point x="39" y="45"/>
      <point x="53" y="97" type="curve" smooth="yes"/>
      <point x="176" y="546" type="line" smooth="yes"/>
      <point x="181" y="563"/>
      <point x="186" y="584"/>
      <point x="186" y="602" type="curve" smooth="yes"/>
      <point x="186" y="643"/>
      <point x="145" y="640"/>
      <point x="113" y="644" type="curve"/>
      <point x="113" y="669" type="line"/>
      <point x="407" y="669" type="line"/>
      <point x="406" y="644" type="line"/>
      <point x="336" y="634"/>
      <point x="333" y="596"/>
      <point x="312" y="534" type="curve"/>
      <point x="426" y="534"/>
      <point x="573" y="530"/>
    </contour>
    <contour>
      <point x="427" y="406" type="curve" smooth="yes"/>
      <point x="427" y="462"/>
      <point x="404" y="502"/>
      <point x="342" y="502" type="curve" smooth="yes"/>
      <point x="308" y="502"/>
      <point x="301" y="487"/>
      <point x="293" y="458" type="curve" smooth="yes"/>
      <point x="229" y="219" type="line"/>
      <point x="242" y="218"/>
      <point x="254" y="217"/>
      <point x="267" y="217" type="curve" smooth="yes"/>
      <point x="382" y="217"/>
      <point x="427" y="298"/>
    </contour>
  </outline>
</glyph>
<glyph name="egrave" format="1">
  <advance width="444"/>
  <unicode hex="00E8"/>
  <outline>
    <contour>
      <point x="398" y="373" type="curve" smooth="yes"/>
      <point x="398" y="259"/>
      <point x="230" y="197"/>
      <point x="141" y="183" type="curve"/>
      <point x="137" y="167"/>
      <point x="135" y="151"/>
      <point x="135" y="134" type="curve" smooth="yes"/>
      <point x="135" y="87"/>
      <point x="151" y="52"/>
      <point x="202" y="52" type="curve" smooth="yes"/>
      <point x="255" y="52"/>
      <point x="291" y="104"/>
      <point x="317" y="143" type="curve"/>
      <point x="346" y="126" type="line"/>
      <point x="301" y="52"/>
      <point x="250" y="-12"/>
      <point x="155" y="-12" type="curve" smooth="yes"/>
      <point x="65" y="-12"/>
      <point x="5" y="53"/>
      <point x="5" y="142" type="curve" smooth="yes"/>
      <point x="5" y="289"/>
      <point x="141" y="463"/>
      <point x="295" y="463" type="curve" smooth="yes"/>
      <point x="349" y="463"/>
      <point x="398" y="432"/>
    </contour>
    <contour>
      <point x="306" y="396" type="curve" smooth="yes"/>
      <point x="306" y="415"/>
      <point x="299" y="430"/>
      <point x="277" y="430" type="curve" smooth="yes"/>
      <point x="210" y="430"/>
      <point x="160" y="268"/>
      <point x="148" y="215" type="curve"/>
      <point x="235" y="238"/>
      <point x="306" y="301"/>
    </contour>
    <contour>
      <point x="393" y="516" type="line"/>
      <point x="348" y="516" type="line"/>
      <point x="215" y="605" type="line" smooth="yes"/>
      <point x="193" y="620"/>
      <point x="181" y="637"/>
      <point x="181" y="652" type="curve" smooth="yes"/>
      <point x="181" y="676"/>
      <point x="202" y="697"/>
      <point x="226" y="697" type="curve" smooth="yes"/>
      <point x="245" y="697"/>
      <point x="266" y="684"/>
      <point x="282" y="663" type="curve" smooth="yes"/>
    </contour>
  </outline>
</glyph>
<glyph name="eth" format="1">
  <advance width="500"/>
  <unicode hex="00F0"/>
  <outline>
    <contour>
      <point x="454" y="664" type="line"/>
      <point x="347" y="608" type="line"/>
      <point x="404" y="547"/>
      <point x="441" y="465"/>
      <point x="441" y="380" type="curve" smooth="yes"/>
      <point x="441" y="219"/>
      <point x="348" y="-13"/>
      <point x="157" y="-13" type="curve" smooth="yes"/>
      <point x="70" y="-13"/>
      <point x="-3" y="45"/>
      <point x="-3" y="136" type="curve" smooth="yes"/>
      <point x="-3" y="280"/>
      <point x="118" y="462"/>
      <point x="274" y="462" type="curve" smooth="yes"/>
      <point x="303" y="462"/>
      <point x="329" y="445"/>
      <point x="343" y="420" type="curve"/>
      <point x="345" y="424" type="line"/>
      <point x="342" y="479"/>
      <point x="317" y="531"/>
      <point x="283" y="574" type="curve"/>
      <point x="164" y="512" type="line"/>
      <point x="131" y="543" type="line"/>
      <point x="253" y="607" type="line"/>
      <point x="221" y="638"/>
      <point x="181" y="665"/>
      <point x="137" y="672" type="curve"/>
      <point x="181" y="699" type="line"/>
      <point x="230" y="693"/>
      <point x="275" y="670"/>
      <point x="313" y="639" type="curve"/>
      <point x="420" y="696" type="line"/>
    </contour>
    <contour>
      <point x="322" y="369" type="curve" smooth="yes"/>
      <point x="322" y="402"/>
      <point x="312" y="433"/>
      <point x="274" y="433" type="curve" smooth="yes"/>
      <point x="171" y="433"/>
      <point x="116" y="166"/>
      <point x="116" y="86" type="curve" smooth="yes"/>
      <point x="116" y="50"/>
      <point x="124" y="16"/>
      <point x="168" y="16" type="curve" smooth="yes"/>
      <point x="264" y="16"/>
      <point x="322" y="294"/>
    </contour>
  </outline>
</glyph>
<glyph name="ocircumflex" format="1">
  <advance width="500"/>
  <unicode hex="00F4"/>
  <outline>
    <contour>
      <point x="322" y="369" type="curve" smooth="yes"/>
      <point x="322" y="402"/>
      <point x="312" y="433"/>
      <point x="274" y="433" type="curve" smooth="yes"/>
      <point x="171" y="433"/>
      <point x="116" y="166"/>
      <point x="116" y="86" type="curve" smooth="yes"/>
      <point x="116" y="50"/>
      <point x="124" y="16"/>
      <point x="168" y="16" type="curve" smooth="yes"/>
      <point x="264" y="16"/>
      <point x="322" y="294"/>
    </contour>
    <contour>
      <point x="284" y="462" type="curve" smooth="yes"/>
      <point x="375" y="462"/>
      <point x="441" y="399"/>
      <point x="441" y="311" type="curve" smooth="yes"/>
      <point x="441" y="142"/>
      <point x="305" y="-13"/>
      <point x="156" y="-13" type="curve" smooth="yes"/>
      <point x="64" y="-13"/>
      <point x="-3" y="50"/>
      <point x="-3" y="135" type="curve" smooth="yes"/>
      <point x="-3" y="303"/>
      <point x="137" y="462"/>
    </contour>
    <contour>
      <point x="420" y="516" type="line"/>
      <point x="332" y="611" type="line"/>
      <point x="201" y="516" type="line"/>
      <point x="144" y="516" type="line"/>
      <point x="304" y="690" type="line"/>
      <point x="385" y="690" type="line"/>
      <point x="471" y="516" type="line"/>
    </contour>
  </outline>
</glyph>
<glyph name="thorn" format="1">
  <advance width="500"/>
  <unicode hex="00FE"/>
  <outline>
    <contour>
      <point x="69" y="-114" type="line" smooth="yes"/>
      <point x="66.081" y="-125.287"/>
      <point x="64.6768" y="-134.567"/>
      <point x="64.6768" y="-142.2" type="curve" smooth="yes"/>
      <point x="64.6768" y="-173.795"/>
      <point x="88.73" y="-177.195"/>
      <point x="129" y="-178" type="curve"/>
      <point x="129" y="-205" type="line"/>
      <point x="-120" y="-205" type="line"/>
      <point x="-120" y="-178" type="line"/>
      <point x="-118.235" y="-178.036"/>
      <point x="-116.52" y="-178.055"/>
      <point x="-114.851" y="-178.055" type="curve" smooth="yes"/>
      <point x="-70.1985" y="-178.055"/>
      <point x="-59.3517" y="-164.335"/>
      <point x="-42" y="-93" type="curve" smooth="yes"/>
      <point x="120" y="537" type="line" smooth="yes"/>
      <point x="132" y="583"/>
      <point x="137" y="606"/>
      <point x="137" y="612" type="curve" smooth="yes"/>
      <point x="137" y="635"/>
      <point x="123" y="642"/>
      <point x="74" y="642" type="curve"/>
      <point x="74" y="669" type="line"/>
      <point x="163" y="679"/>
      <point x="212" y="686"/>
      <point x="280" y="699" type="curve"/>
      <point x="185" y="359" type="line"/>
      <point x="188" y="356" type="line"/>
      <point x="238" y="431"/>
      <point x="282" y="462"/>
      <point x="339" y="462" type="curve" smooth="yes"/>
      <point x="404" y="462"/>
      <point x="446" y="414"/>
      <point x="446" y="341" type="curve" smooth="yes"/>
      <point x="446" y="168"/>
      <point x="304" y="-13"/>
      <point x="169" y="-13" type="curve" smooth="yes"/>
      <point x="148" y="-13"/>
      <point x="136" y="-9"/>
      <point x="101" y="9" type="curve"/>
    </contour>
    <contour>
      <point x="282" y="391" type="curve"/>
      <point x="282" y="390" type="line"/>
      <point x="281.028" y="390.075"/>
      <point x="280.047" y="390.112"/>
      <point x="279.056" y="390.112" type="curve" smooth="yes"/>
      <point x="253.545" y="390.112"/>
      <point x="222.066" y="365.542"/>
      <point x="198" y="328" type="curve" smooth="yes"/>
      <point x="167" y="282"/>
      <point x="113" y="79"/>
      <point x="113" y="58" type="curve" smooth="yes"/>
      <point x="113" y="38"/>
      <point x="130" y="22"/>
      <point x="152" y="22" type="curve" smooth="yes"/>
      <point x="259" y="22"/>
      <point x="321" y="291"/>
      <point x="321" y="334" type="curve" smooth="yes"/>
      <point x="321" y="366"/>
      <point x="308" y="389"/>
    </contour>
  </outline>
</glyph>
<glyph name="cacute" format="1">
  <advance width="444"/>
  <unicode hex="0107"/>
  <outline>
    <contour>
      <point x="392" y="374" type="curve" smooth="yes"/>
      <point x="392" y="335"/>
      <point x="371" y="302"/>
      <point x="329" y="302" type="curve" smooth="yes"/>
      <point x="299" y="302"/>
      <point x="272" y="323"/>
      <point x="272" y="354" type="curve" smooth="yes"/>
      <point x="272" y="381"/>
      <point x="293" y="398"/>
      <point x="293" y="412" type="curve" smooth="yes"/>
      <point x="293" y="424"/>
      <point x="280" y="429"/>
      <point x="270" y="429" type="curve" smooth="yes"/>
      <point x="182" y="429"/>
      <point x="123" y="218"/>
      <point x="123" y="148" type="curve" smooth="yes"/>
      <point x="123" y="101"/>
      <point x="141" y="51"/>
      <point x="196" y="51" type="curve" smooth="yes"/>
      <point x="251" y="51"/>
      <point x="290" y="100"/>
      <point x="318" y="141" type="curve"/>
      <point x="346" y="123" type="line"/>
      <point x="294" y="48"/>
      <point x="244" y="-13"/>
      <point x="144" y="-13" type="curve" smooth="yes"/>
      <point x="54" y="-13"/>
      <point x="-5" y="52"/>
      <point x="-5" y="141" type="curve" smooth="yes"/>
      <point x="-5" y="281"/>
      <point x="128" y="462"/>
      <point x="277" y="462" type="curve" smooth="yes"/>
      <point x="331" y="462"/>
      <point x="392" y="437"/>
    </contour>
    <contour>
      <point x="253" y="516" type="line"/>
      <point x="204" y="516" type="line"/>
      <point x="326" y="647" type="line" smooth="yes"/>
      <point x="361" y="685"/>
      <point x="378" y="697"/>
      <point x="396" y="697" type="curve" smooth="yes"/>
      <point x="422" y="697"/>
      <point x="444" y="675"/>
      <point x="444" y="650" type="curve" smooth="yes"/>
      <point x="444" y="631"/>
      <point x="435" y="620"/>
      <point x="405" y="603" type="curve" smooth="yes"/>
    </contour>
  </outline>
</glyph>
<glyph name="gcedilla" format="1">
  <advance width="500"/>
  <unicode hex="0123"/>
  <outline>
    <contour>
      <point x="478" y="373" type="line"/>
      <point x="411" y="373" type="line"/>
      <point x="415" y="359"/>
      <point x="417" y="345"/>
      <point x="417" y="330" type="curve" smooth="yes"/>
      <point x="417" y="214"/>
      <point x="300" y="153"/>
      <point x="197" y="153" type="curve" smooth="yes"/>
      <point x="180" y="153"/>
      <point x="165" y="161"/>
      <point x="149" y="161" type="curve" smooth="yes"/>
      <point x="136" y="161"/>
      <point x="122" y="139"/>
      <point x="122" y="127" type="curve" smooth="yes"/>
      <point x="122" y="60"/>
      <point x="375" y="91"/>
      <point x="375" y="-55" type="curve" smooth="yes"/>
      <point x="375" y="-171"/>
      <point x="221" y="-203"/>
      <point x="132" y="-203" type="curve" smooth="yes"/>
      <point x="69" y="-203"/>
      <point x="-52" y="-183"/>
      <point x="-52" y="-100" type="curve" smooth="yes"/>
      <point x="-52" y="-26"/>
      <point x="19" y="-8"/>
      <point x="78" y="6" type="curve"/>
      <point x="78" y="8" type="line"/>
      <point x="48" y="18"/>
      <point x="19" y="37"/>
      <point x="19" y="72" type="curve" smooth="yes"/>
      <point x="19" y="124"/>
      <point x="76" y="148"/>
      <point x="115" y="170" type="curve"/>
      <point x="65" y="189"/>
      <point x="35" y="229"/>
      <point x="35" y="283" type="curve" smooth="yes"/>
      <point x="35" y="398"/>
      <point x="158" y="462"/>
      <point x="259" y="462" type="curve" smooth="yes"/>
      <point x="297" y="462"/>
      <point x="337" y="453"/>
      <point x="367" y="429" type="curve"/>
      <point x="478" y="429" type="line"/>
    </contour>
    <contour>
      <point x="300" y="369" type="curve" smooth="yes"/>
      <point x="300" y="398"/>
      <point x="288" y="431"/>
      <point x="254" y="431" type="curve" smooth="yes"/>
      <point x="188" y="431"/>
      <point x="151" y="301"/>
      <point x="151" y="248" type="curve" smooth="yes"/>
      <point x="151" y="218"/>
      <point x="157" y="184"/>
      <point x="195" y="184" type="curve" smooth="yes"/>
      <point x="263" y="184"/>
      <point x="300" y="315"/>
    </contour>
    <contour>
      <point x="266" y="-99" type="curve" smooth="yes"/>
      <point x="266" y="-72"/>
      <point x="248" y="-54"/>
      <point x="225" y="-43" type="curve" smooth="yes"/>
      <point x="214" y="-38"/>
      <point x="122" y="-6"/>
      <point x="113" y="-6" type="curve" smooth="yes"/>
      <point x="84" y="-6"/>
      <point x="35" y="-61"/>
      <point x="35" y="-90" type="curve" smooth="yes"/>
      <point x="35" y="-146"/>
      <point x="97" y="-169"/>
      <point x="144" y="-169" type="curve" smooth="yes"/>
      <point x="190" y="-169"/>
      <point x="266" y="-160"/>
    </contour>
    <contour>
      <point x="403" y="800" type="curve"/>
      <point x="415" y="779" type="line"/>
      <point x="344" y="741"/>
      <point x="309" y="706"/>
      <point x="309" y="674" type="curve" smooth="yes"/>
      <point x="309" y="661"/>
      <point x="316" y="652"/>
      <point x="336" y="639" type="curve" smooth="yes"/>
      <point x="363" y="620"/>
      <point x="372" y="606"/>
      <point x="372" y="582" type="curve" smooth="yes"/>
      <point x="372" y="544"/>
      <point x="345" y="516"/>
      <point x="308" y="516" type="curve" smooth="yes"/>
      <point x="262" y="516"/>
      <point x="231" y="551"/>
      <point x="231" y="604" type="curve" smooth="yes"/>
      <point x="231" y="677"/>
      <point x="299" y="754"/>
    </contour>
  </outline>
</glyph>
<glyph name="imacron" format="1">
  <advance width="278"/>
  <unicode hex="012B"/>
  <outline>
    <contour>
      <point x="238" y="127" type="line"/>
      <point x="199" y="67"/>
      <point x="152" y="-9"/>
      <point x="71" y="-9" type="curve" smooth="yes"/>
      <point x="29" y="-9"/>
      <point x="2" y="16"/>
      <point x="2" y="58" type="curve" smooth="yes"/>
      <point x="2" y="135"/>
      <point x="80" y="312"/>
      <point x="80" y="375" type="curve" smooth="yes"/>
      <point x="80" y="403.107"/>
      <point x="54.6093" y="407.275"/>
      <point x="32.2508" y="407.275" type="curve" smooth="yes"/>
      <point x="28.3587" y="407.275"/>
      <point x="24.5584" y="407.148"/>
      <point x="21" y="407" type="curve"/>
      <point x="21" y="434" type="line"/>
      <point x="88" y="439"/>
      <point x="157" y="447"/>
      <point x="223" y="462" type="curve"/>
      <point x="206" y="399"/>
      <point x="123" y="123"/>
      <point x="123" y="76" type="curve" smooth="yes"/>
      <point x="123" y="68"/>
      <point x="130" y="61"/>
      <point x="138" y="61" type="curve" smooth="yes"/>
      <point x="164" y="61"/>
      <point x="203" y="121"/>
      <point x="216" y="141" type="curve"/>
    </contour>
    <contour>
      <point x="357" y="623" type="line"/>
      <point x="341" y="553" type="line"/>
      <point x="15" y="553" type="line"/>
      <point x="32" y="623" type="line"/>
    </contour>
  </outline>
</glyph>
<glyph name="Iogonek" format="1">
  <advance width="389"/>
  <unicode hex="012E"/>
  <outline>
    <contour>
      <point x="181" y="607" type="curve"/>
      <point x="180" y="607" type="line"/>
      <point x="180" y="635"/>
      <point x="160" y="636"/>
      <point x="107" y="644" type="curve"/>
      <point x="107" y="669" type="line"/>
      <point x="405" y="669" type="line"/>
      <point x="405" y="644" type="line"/>
      <point x="354" y="638"/>
      <point x="338" y="625"/>
      <point x="323" y="572" type="curve" smooth="yes"/>
      <point x="209" y="152" type="line" smooth="yes"/>
      <point x="196" y="103"/>
      <point x="191" y="80"/>
      <point x="191" y="65" type="curve" smooth="yes"/>
      <point x="191" y="37"/>
      <point x="206" y="28"/>
      <point x="263" y="25" type="curve"/>
      <point x="263" y="0" type="line"/>
      <point x="250" y="-11"/>
      <point x="243" y="-27"/>
      <point x="243" y="-45" type="curve" smooth="yes"/>
      <point x="243" y="-81"/>
      <point x="267" y="-104"/>
      <point x="306" y="-104" type="curve" smooth="yes"/>
      <point x="335" y="-104"/>
      <point x="353" y="-89"/>
      <point x="367" y="-84" type="curve"/>
      <point x="389" y="-98" type="line"/>
      <point x="364" y="-144"/>
      <point x="316" y="-173"/>
      <point x="266" y="-173" type="curve" smooth="yes"/>
      <point x="205" y="-173"/>
      <point x="160" y="-139"/>
      <point x="160" y="-92" type="curve" smooth="yes"/>
      <point x="160" y="-65"/>
      <point x="169" y="-45"/>
      <point x="203" y="0" type="curve"/>
      <point x="-32" y="0" type="line"/>
      <point x="-32" y="25" type="line"/>
      <point x="17" y="31"/>
      <point x="34" y="45"/>
      <point x="48" y="97" type="curve" smooth="yes"/>
      <point x="171" y="546" type="line" smooth="yes"/>
      <point x="176" y="564"/>
      <point x="181" y="595"/>
    </contour>
  </outline>
</glyph>
<glyph name="ij" format="1">
  <advance width="547"/>
  <unicode hex="0133"/>
  <outline>
    <contour>
      <point x="546" y="616" type="curve" smooth="yes"/>
      <point x="546" y="578"/>
      <point x="514" y="550"/>
      <point x="477" y="550" type="curve" smooth="yes"/>
      <point x="439" y="550"/>
      <point x="411" y="581"/>
      <point x="411" y="618" type="curve" smooth="yes"/>
      <point x="411" y="653"/>
      <point x="442" y="684"/>
      <point x="477" y="684" type="curve" smooth="yes"/>
      <point x="514" y="684"/>
      <point x="546" y="653"/>
    </contour>
    <contour>
      <point x="263" y="616" type="curve" smooth="yes"/>
      <point x="263" y="578"/>
      <point x="231" y="550"/>
      <point x="194" y="550" type="curve" smooth="yes"/>
      <point x="156" y="550"/>
      <point x="128" y="581"/>
      <point x="128" y="618" type="curve" smooth="yes"/>
      <point x="128" y="653"/>
      <point x="159" y="684"/>
      <point x="194" y="684" type="curve" smooth="yes"/>
      <point x="231" y="684"/>
      <point x="263" y="653"/>
    </contour>
    <contour>
      <point x="506" y="462" type="curve"/>
      <point x="392" y="24" type="line" smooth="yes"/>
      <point x="365" y="-80"/>
      <point x="310" y="-207"/>
      <point x="184" y="-207" type="curve" smooth="yes"/>
      <point x="137" y="-207"/>
      <point x="78" y="-186"/>
      <point x="78" y="-130" type="curve" smooth="yes"/>
      <point x="78" y="-103"/>
      <point x="99" y="-77"/>
      <point x="127" y="-77" type="curve" smooth="yes"/>
      <point x="154" y="-77"/>
      <point x="176" y="-99"/>
      <point x="176" y="-126" type="curve" smooth="yes"/>
      <point x="176" y="-147"/>
      <point x="161" y="-156"/>
      <point x="161" y="-164" type="curve" smooth="yes"/>
      <point x="161" y="-171"/>
      <point x="178" y="-176"/>
      <point x="183" y="-176" type="curve" smooth="yes"/>
      <point x="229" y="-176"/>
      <point x="247" y="-78"/>
      <point x="256" y="-45" type="curve" smooth="yes"/>
      <point x="314" y="178" type="line" smooth="yes"/>
      <point x="316" y="187"/>
      <point x="319" y="195"/>
      <point x="321" y="204" type="curve"/>
      <point x="272" y="126"/>
      <point x="189" y="-9"/>
      <point x="85" y="-9" type="curve" smooth="yes"/>
      <point x="30" y="-9"/>
      <point x="7" y="17"/>
      <point x="7" y="69" type="curve" smooth="yes"/>
      <point x="7" y="144"/>
      <point x="80" y="312"/>
      <point x="80" y="375" type="curve" smooth="yes"/>
      <point x="80" y="403.107"/>
      <point x="55.3348" y="407.275"/>
      <point x="32.5735" y="407.275" type="curve" smooth="yes"/>
      <point x="28.6112" y="407.275"/>
      <point x="24.7067" y="407.148"/>
      <point x="21" y="407" type="curve"/>
      <point x="21" y="434" type="line"/>
      <point x="88" y="439"/>
      <point x="157" y="447"/>
      <point x="223" y="462" type="curve"/>
      <point x="193" y="352"/>
      <point x="159" y="241"/>
      <point x="133" y="130" type="curve" smooth="yes"/>
      <point x="130" y="130"/>
      <point x="127" y="93"/>
      <point x="127" y="87" type="curve" smooth="yes"/>
      <point x="127" y="71"/>
      <point x="134" y="63"/>
      <point x="150" y="63" type="curve" smooth="yes"/>
      <point x="189" y="63"/>
      <point x="244" y="146"/>
      <point x="267" y="176" type="curve" smooth="yes"/>
      <point x="302" y="223"/>
      <point x="327" y="263"/>
      <point x="342" y="321" type="curve" smooth="yes"/>
      <point x="347" y="339"/>
      <point x="351" y="358"/>
      <point x="351" y="376" type="curve" smooth="yes"/>
      <point x="351" y="403"/>
      <point x="337.5" y="408.062"/>
      <point x="318.516" y="408.062" type="curve" smooth="yes"/>
      <point x="312.188" y="408.062"/>
      <point x="305.25" y="407.5"/>
      <point x="298" y="407" type="curve"/>
      <point x="298" y="434" type="line"/>
      <point x="368" y="440"/>
      <point x="437" y="447"/>
    </contour>
  </outline>
</glyph>
<glyph name="kcedilla" format="1">
  <advance width="500"/>
  <unicode hex="0137"/>
  <outline>
    <contour>
      <point x="91" y="-234" type="curve"/>
      <point x="84" y="-218" type="line"/>
      <point x="123" y="-208"/>
      <point x="157" y="-187"/>
      <point x="157" y="-158" type="curve" smooth="yes"/>
      <point x="157" y="-150"/>
      <point x="153" y="-144"/>
      <point x="145" y="-141" type="curve" smooth="yes"/>
      <point x="126" y="-134"/>
      <point x="100" y="-121"/>
      <point x="100" y="-93" type="curve" smooth="yes"/>
      <point x="100" y="-60"/>
      <point x="124" y="-40"/>
      <point x="153" y="-40" type="curve" smooth="yes"/>
      <point x="194" y="-40"/>
      <point x="221" y="-70"/>
      <point x="221" y="-112" type="curve" smooth="yes"/>
      <point x="221" y="-176"/>
      <point x="155" y="-218"/>
    </contour>
    <contour>
      <point x="149" y="188" type="line"/>
      <point x="99" y="0" type="line"/>
      <point x="-23" y="0" type="line"/>
      <point x="133" y="567" type="line" smooth="yes"/>
      <point x="138" y="586"/>
      <point x="141" y="600"/>
      <point x="141" y="609" type="curve" smooth="yes"/>
      <point x="141" y="632"/>
      <point x="127" y="643"/>
      <point x="99" y="643" type="curve" smooth="yes"/>
      <point x="95" y="643"/>
      <point x="86" y="643"/>
      <point x="78" y="642" type="curve"/>
      <point x="78" y="669" type="line"/>
      <point x="157" y="677"/>
      <point x="209" y="685"/>
      <point x="286" y="699" type="curve"/>
      <point x="163" y="239" type="line"/>
      <point x="289" y="338"/>
      <point x="327" y="375"/>
      <point x="327" y="401" type="curve" smooth="yes"/>
      <point x="327" y="417"/>
      <point x="315" y="422"/>
      <point x="276" y="424" type="curve"/>
      <point x="276" y="449" type="line"/>
      <point x="483" y="449" type="line"/>
      <point x="483" y="424" type="line"/>
      <point x="437" y="418"/>
      <point x="416" y="406"/>
      <point x="348" y="348" type="curve" smooth="yes"/>
      <point x="285" y="293" type="line"/>
      <point x="323" y="98"/>
      <point x="335" y="63"/>
      <point x="363" y="63" type="curve" smooth="yes"/>
      <point x="382" y="63"/>
      <point x="398" y="80"/>
      <point x="425" y="127" type="curve"/>
      <point x="447" y="116" type="line"/>
      <point x="397" y="25"/>
      <point x="361" y="-8"/>
      <point x="311" y="-8" type="curve" smooth="yes"/>
      <point x="249" y="-8"/>
      <point x="219" y="45"/>
      <point x="188" y="215" type="curve"/>
    </contour>
  </outline>
</glyph>
<glyph name="kgreenlandic" format="1">
  <advance width="517"/>
  <unicode hex="0138"/>
  <outline>
    <contour>
      <point x="239" y="461" type="curve"/>
      <point x="180" y="239" type="line"/>
      <point x="306" y="338"/>
      <point x="344" y="375"/>
      <point x="344" y="401" type="curve" smooth="yes"/>
      <point x="344" y="417"/>
      <point x="332" y="422"/>
      <point x="293" y="424" type="curve"/>
      <point x="293" y="449" type="line"/>
      <point x="500" y="449" type="line"/>
      <point x="500" y="424" type="line"/>
      <point x="454" y="418"/>
      <point x="433" y="406"/>
      <point x="365" y="348" type="curve" smooth="yes"/>
      <point x="302" y="293" type="line"/>
      <point x="340" y="98"/>
      <point x="352" y="63"/>
      <point x="380" y="63" type="curve" smooth="yes"/>
      <point x="399" y="63"/>
      <point x="415" y="80"/>
      <point x="442" y="127" type="curve"/>
      <point x="464" y="116" type="line"/>
      <point x="414" y="25"/>
      <point x="378" y="-8"/>
      <point x="328" y="-8" type="curve" smooth="yes"/>
      <point x="266" y="-8"/>
      <point x="236" y="45"/>
      <point x="205" y="215" type="curve"/>
      <point x="166" y="188" type="line"/>
      <point x="116" y="0" type="line"/>
      <point x="-6" y="0" type="line"/>
      <point x="83" y="328" type="line" smooth="yes"/>
      <point x="90.2346" y="353.723"/>
      <point x="93.5922" y="366.523"/>
      <point x="93.5922" y="375.749" type="curve" smooth="yes"/>
      <point x="93.5922" y="378"/>
      <point x="93.3923" y="380.038"/>
      <point x="93" y="382" type="curve" smooth="yes"/>
      <point x="89" y="401"/>
      <point x="81" y="406"/>
      <point x="39" y="407" type="curve"/>
      <point x="39" y="434" type="line"/>
      <point x="95" y="436"/>
      <point x="175" y="447"/>
    </contour>
  </outline>
</glyph>
<glyph name="Lcedilla" format="1">
  <advance width="609"/>
  <unicode hex="013B"/>
  <outline>
    <contour>
      <point x="189" y="-234" type="curve"/>
      <point x="182" y="-218" type="line"/>
      <point x="221" y="-208"/>
      <point x="255" y="-187"/>
      <point x="255" y="-158" type="curve" smooth="yes"/>
      <point x="255" y="-150"/>
      <point x="251" y="-144"/>
      <point x="243" y="-141" type="curve" smooth="yes"/>
      <point x="224" y="-134"/>
      <point x="198" y="-121"/>
      <point x="198" y="-93" type="curve" smooth="yes"/>
      <point x="198" y="-60"/>
      <point x="222" y="-40"/>
      <point x="251" y="-40" type="curve" smooth="yes"/>
      <point x="292" y="-40"/>
      <point x="319" y="-70"/>
      <point x="319" y="-112" type="curve" smooth="yes"/>
      <point x="319" y="-176"/>
      <point x="253" y="-218"/>
    </contour>
    <contour>
      <point x="189" y="607" type="curve" smooth="yes"/>
      <point x="189" y="635"/>
      <point x="169" y="636"/>
      <point x="116" y="644" type="curve"/>
      <point x="116" y="669" type="line"/>
      <point x="433" y="669" type="line"/>
      <point x="433" y="644" type="line"/>
      <point x="367" y="640"/>
      <point x="348" y="627"/>
      <point x="332" y="572" type="curve" smooth="yes"/>
      <point x="203" y="94" type="line" smooth="yes"/>
      <point x="200" y="83"/>
      <point x="198" y="70"/>
      <point x="198" y="62" type="curve" smooth="yes"/>
      <point x="198" y="41"/>
      <point x="218" y="32"/>
      <point x="262" y="32" type="curve" smooth="yes"/>
      <point x="344" y="32"/>
      <point x="415" y="52"/>
      <point x="469" y="90" type="curve" smooth="yes"/>
      <point x="508" y="118"/>
      <point x="530" y="143"/>
      <point x="564" y="199" type="curve"/>
      <point x="588" y="194" type="line"/>
      <point x="529" y="0" type="line"/>
      <point x="-24" y="0" type="line"/>
      <point x="-24" y="25" type="line"/>
      <point x="25" y="32"/>
      <point x="42" y="45"/>
      <point x="56" y="97" type="curve" smooth="yes"/>
      <point x="179" y="546" type="line" smooth="yes"/>
      <point x="184" y="564"/>
      <point x="189" y="595"/>
    </contour>
  </outline>
</glyph>
<glyph name="Lcaron" format="1">
  <advance width="609"/>
  <unicode hex="013D"/>
  <outline>
    <contour>
      <point x="480" y="401" type="curve"/>
      <point x="468" y="422" type="line"/>
      <point x="539" y="460"/>
      <point x="574" y="495"/>
      <point x="574" y="527" type="curve" smooth="yes"/>
      <point x="574" y="540"/>
      <point x="567" y="549"/>
      <point x="547" y="562" type="curve" smooth="yes"/>
      <point x="520" y="581"/>
      <point x="511" y="595"/>
      <point x="511" y="619" type="curve" smooth="yes"/>
      <point x="511" y="657"/>
      <point x="538" y="685"/>
      <point x="575" y="685" type="curve" smooth="yes"/>
      <point x="621" y="685"/>
      <point x="652" y="650"/>
      <point x="652" y="597" type="curve" smooth="yes"/>
      <point x="652" y="524"/>
      <point x="584" y="447"/>
    </contour>
    <contour>
      <point x="189" y="607" type="curve" smooth="yes"/>
      <point x="189" y="635"/>
      <point x="169" y="636"/>
      <point x="116" y="644" type="curve"/>
      <point x="116" y="669" type="line"/>
      <point x="433" y="669" type="line"/>
      <point x="433" y="644" type="line"/>
      <point x="367" y="640"/>
      <point x="348" y="627"/>
      <point x="332" y="572" type="curve" smooth="yes"/>
      <point x="203" y="94" type="line" smooth="yes"/>
      <point x="200" y="83"/>
      <point x="198" y="70"/>
      <point x="198" y="62" type="curve" smooth="yes"/>
      <point x="198" y="41"/>
      <point x="218" y="32"/>
      <point x="262" y="32" type="curve" smooth="yes"/>
      <point x="344" y="32"/>
      <point x="415" y="52"/>
      <point x="469" y="90" type="curve" smooth="yes"/>
      <point x="508" y="118"/>
      <point x="530" y="143"/>
      <point x="564" y="199" type="curve"/>
      <point x="588" y="194" type="line"/>
      <point x="529" y="0" type="line"/>
      <point x="-24" y="0" type="line"/>
      <point x="-24" y="25" type="line"/>
      <point x="25" y="32"/>
      <point x="42" y="45"/>
      <point x="56" y="97" type="curve" smooth="yes"/>
      <point x="179" y="546" type="line" smooth="yes"/>
      <point x="184" y="564"/>
      <point x="189" y="595"/>
    </contour>
  </outline>
</glyph>
<glyph name="Lslash" format="1">
  <advance width="609"/>
  <unicode hex="0141"/>
  <outline>
    <contour>
      <point x="588" y="194" type="line"/>
      <point x="529" y="0" type="line"/>
      <point x="-24" y="0" type="line"/>
      <point x="-24" y="25" type="line"/>
      <point x="26" y="32"/>
      <point x="42" y="48"/>
      <point x="56" y="97" type="curve" smooth="yes"/>
      <point x="106" y="278" type="line"/>
      <point x="2" y="222" type="line"/>
      <point x="24" y="292" type="line"/>
      <point x="124" y="345" type="line"/>
      <point x="138" y="396"/>
      <point x="189" y="545"/>
      <point x="189" y="602" type="curve" smooth="yes"/>
      <point x="189" y="644"/>
      <point x="149" y="639"/>
      <point x="116" y="644" type="curve"/>
      <point x="116" y="669" type="line"/>
      <point x="433" y="669" type="line"/>
      <point x="433" y="644" type="line"/>
      <point x="376" y="641"/>
      <point x="348" y="631"/>
      <point x="332" y="572" type="curve" smooth="yes"/>
      <point x="288" y="410" type="line"/>
      <point x="438" y="491" type="line"/>
      <point x="417" y="421" type="line"/>
      <point x="269" y="338" type="line"/>
      <point x="254" y="282"/>
      <point x="198" y="110"/>
      <point x="198" y="62" type="curve" smooth="yes"/>
      <point x="198" y="32"/>
      <point x="242" y="32"/>
      <point x="263" y="32" type="curve" smooth="yes"/>
      <point x="393" y="32"/>
      <point x="500" y="82"/>
      <point x="564" y="199" type="curve"/>
    </contour>
  </outline>
</glyph>
<glyph name="napostrophe" format="1">
  <advance width="658"/>
  <unicode hex="0149"/>
  <outline>
    <contour>
      <point x="38" y="516" type="curve"/>
      <point x="26" y="537" type="line"/>
      <point x="97" y="575"/>
      <point x="132" y="610"/>
      <point x="132" y="642" type="curve" smooth="yes"/>
      <point x="132" y="655"/>
      <point x="125" y="664"/>
      <point x="105" y="677" type="curve" smooth="yes"/>
      <point x="78" y="696"/>
      <point x="69" y="710"/>
      <point x="69" y="734" type="curve" smooth="yes"/>
      <point x="69" y="772"/>
      <point x="96" y="800"/>
      <point x="133" y="800" type="curve" smooth="yes"/>
      <point x="179" y="800"/>
      <point x="210" y="765"/>
      <point x="210" y="712" type="curve" smooth="yes"/>
      <point x="210" y="639"/>
      <point x="142" y="562"/>
    </contour>
    <contour>
      <point x="595" y="122" type="line"/>
      <point x="561" y="64"/>
      <point x="514" y="-9"/>
      <point x="438" y="-9" type="curve" smooth="yes"/>
      <point x="395" y="-9"/>
      <point x="368" y="10"/>
      <point x="368" y="56" type="curve" smooth="yes"/>
      <point x="368" y="143"/>
      <point x="456" y="319"/>
      <point x="456" y="368" type="curve" smooth="yes"/>
      <point x="456" y="381"/>
      <point x="443" y="390"/>
      <point x="431" y="390" type="curve" smooth="yes"/>
      <point x="330" y="390"/>
      <point x="234" y="65"/>
      <point x="217" y="0" type="curve"/>
      <point x="96" y="0" type="line"/>
      <point x="110" y="52"/>
      <point x="198" y="346"/>
      <point x="198" y="381" type="curve" smooth="yes"/>
      <point x="198" y="403.801"/>
      <point x="174.792" y="407.371"/>
      <point x="155.913" y="407.371" type="curve" smooth="yes"/>
      <point x="151.608" y="407.371"/>
      <point x="147.528" y="407.186"/>
      <point x="144" y="407" type="curve"/>
      <point x="144" y="434" type="line"/>
      <point x="209" y="434"/>
      <point x="281" y="447"/>
      <point x="344" y="461" type="curve"/>
      <point x="284" y="275" type="line"/>
      <point x="287" y="273" type="line"/>
      <point x="335" y="344"/>
      <point x="403" y="462"/>
      <point x="500" y="462" type="curve" smooth="yes"/>
      <point x="552" y="462"/>
      <point x="576" y="437"/>
      <point x="576" y="383" type="curve" smooth="yes"/>
      <point x="576" y="298"/>
      <point x="489" y="137"/>
      <point x="489" y="77" type="curve" smooth="yes"/>
      <point x="489" y="68"/>
      <point x="494" y="59"/>
      <point x="504" y="59" type="curve" smooth="yes"/>
      <point x="527" y="59"/>
      <point x="562" y="118"/>
      <point x="573" y="135" type="curve"/>
    </contour>
  </outline>
</glyph>
<glyph name="obreve" format="1">
  <advance width="500"/>
  <unicode hex="014F"/>
  <outline>
    <contour>
      <point x="322" y="369" type="curve" smooth="yes"/>
      <point x="322" y="402"/>
      <point x="312" y="433"/>
      <point x="274" y="433" type="curve" smooth="yes"/>
      <point x="171" y="433"/>
      <point x="116" y="166"/>
      <point x="116" y="86" type="curve" smooth="yes"/>
      <point x="116" y="50"/>
      <point x="124" y="16"/>
      <point x="168" y="16" type="curve" smooth="yes"/>
      <point x="264" y="16"/>
      <point x="322" y="294"/>
    </contour>
    <contour>
      <point x="284" y="462" type="curve" smooth="yes"/>
      <point x="375" y="462"/>
      <point x="441" y="399"/>
      <point x="441" y="311" type="curve" smooth="yes"/>
      <point x="441" y="142"/>
      <point x="305" y="-13"/>
      <point x="156" y="-13" type="curve" smooth="yes"/>
      <point x="64" y="-13"/>
      <point x="-3" y="50"/>
      <point x="-3" y="135" type="curve" smooth="yes"/>
      <point x="-3" y="303"/>
      <point x="137" y="462"/>
    </contour>
    <contour>
      <point x="490" y="677" type="line"/>
      <point x="461" y="586"/>
      <point x="399" y="514"/>
      <point x="297" y="514" type="curve" smooth="yes"/>
      <point x="226" y="514"/>
      <point x="180" y="547"/>
      <point x="180" y="621" type="curve" smooth="yes"/>
      <point x="180" y="640"/>
      <point x="182" y="659"/>
      <point x="187" y="677" type="curve"/>
      <point x="231" y="677" type="line"/>
      <point x="230" y="662" type="line" smooth="yes"/>
      <point x="229.894" y="660.055"/>
      <point x="229.842" y="658.158"/>
      <point x="229.842" y="656.307" type="curve" smooth="yes"/>
      <point x="229.842" y="605.819"/>
      <point x="268.768" y="590"/>
      <point x="317" y="590" type="curve" smooth="yes"/>
      <point x="381" y="590"/>
      <point x="418" y="621"/>
      <point x="446" y="677" type="curve"/>
    </contour>
  </outline>
</glyph>
<glyph name="Ohungarumlaut" format="1">
  <advance width="722"/>
  <unicode hex="0150"/>
  <outline>
    <contour>
      <point x="691" y="444" type="curve" smooth="yes"/>
      <point x="691" y="225"/>
      <point x="493" y="-18"/>
      <point x="265" y="-18" type="curve" smooth="yes"/>
      <point x="135" y="-18"/>
      <point x="27" y="73"/>
      <point x="27" y="207" type="curve" smooth="yes"/>
      <point x="27" y="430"/>
      <point x="211" y="685"/>
      <point x="449" y="685" type="curve" smooth="yes"/>
      <point x="592" y="685"/>
      <point x="691" y="588"/>
    </contour>
    <contour>
      <point x="547" y="526" type="curve" smooth="yes"/>
      <point x="547" y="593"/>
      <point x="518" y="651"/>
      <point x="442" y="651" type="curve" smooth="yes"/>
      <point x="274" y="651"/>
      <point x="171" y="284"/>
      <point x="171" y="150" type="curve" smooth="yes"/>
      <point x="171" y="79"/>
      <point x="195" y="16"/>
      <point x="275" y="16" type="curve" smooth="yes"/>
      <point x="445" y="16"/>
      <point x="547" y="391"/>
    </contour>
    <contour>
      <point x="388" y="723" type="line"/>
      <point x="339" y="723" type="line"/>
      <point x="461" y="854" type="line" smooth="yes"/>
      <point x="496" y="892"/>
      <point x="513" y="904"/>
      <point x="531" y="904" type="curve" smooth="yes"/>
      <point x="557" y="904"/>
      <point x="579" y="882"/>
      <point x="579" y="857" type="curve" smooth="yes"/>
      <point x="579" y="838"/>
      <point x="570" y="827"/>
      <point x="540" y="810" type="curve" smooth="yes"/>
    </contour>
    <contour>
      <point x="577" y="723" type="line"/>
      <point x="528" y="723" type="line"/>
      <point x="650" y="854" type="line" smooth="yes"/>
      <point x="685" y="892"/>
      <point x="702" y="904"/>
      <point x="720" y="904" type="curve" smooth="yes"/>
      <point x="746" y="904"/>
      <point x="768" y="882"/>
      <point x="768" y="857" type="curve" smooth="yes"/>
      <point x="768" y="838"/>
      <point x="759" y="827"/>
      <point x="729" y="810" type="curve" smooth="yes"/>
    </contour>
  </outline>
</glyph>
<glyph name="Scedilla" format="1">
  <advance width="556"/>
  <unicode hex="015E"/>
  <outline>
    <contour>
      <point x="202" y="-16" type="curve"/>
      <point x="172" y="-62" type="line"/>
      <point x="182" y="-60"/>
      <point x="188" y="-59"/>
      <point x="197" y="-59" type="curve" smooth="yes"/>
      <point x="250" y="-59"/>
      <point x="288" y="-89"/>
      <point x="288" y="-131" type="curve" smooth="yes"/>
      <point x="288" y="-181"/>
      <point x="235" y="-218"/>
      <point x="164" y="-218" type="curve" smooth="yes"/>
      <point x="127" y="-218"/>
      <point x="95" y="-211"/>
      <point x="52" y="-193" type="curve"/>
      <point x="74" y="-160" type="line"/>
      <point x="102" y="-173"/>
      <point x="119" y="-177"/>
      <point x="141" y="-177" type="curve" smooth="yes"/>
      <point x="175" y="-177"/>
      <point x="197" y="-161"/>
      <point x="197" y="-136" type="curve" smooth="yes"/>
      <point x="197" y="-114"/>
      <point x="179" y="-100"/>
      <point x="150" y="-100" type="curve" smooth="yes"/>
      <point x="139" y="-100"/>
      <point x="131" y="-101"/>
      <point x="120" y="-104" type="curve"/>
      <point x="107" y="-92" type="line"/>
      <point x="163" y="-9" type="line"/>
      <point x="147" y="-4"/>
      <point x="133" y="0"/>
      <point x="116" y="6" type="curve" smooth="yes"/>
      <point x="92" y="14"/>
      <point x="79" y="17"/>
      <point x="70" y="17" type="curve" smooth="yes"/>
      <point x="51" y="17"/>
      <point x="44" y="11"/>
      <point x="32" y="-18" type="curve"/>
      <point x="2" y="-18" type="line"/>
      <point x="38" y="206" type="line"/>
      <point x="67" y="204" type="line"/>
      <point x="71" y="144"/>
      <point x="79" y="114"/>
      <point x="98" y="83" type="curve" smooth="yes"/>
      <point x="123" y="41"/>
      <point x="169" y="16"/>
      <point x="221" y="16" type="curve" smooth="yes"/>
      <point x="270" y="16"/>
      <point x="305" y="35"/>
      <point x="328" y="74" type="curve" smooth="yes"/>
      <point x="340" y="96"/>
      <point x="347" y="120"/>
      <point x="347" y="142" type="curve" smooth="yes"/>
      <point x="347" y="188"/>
      <point x="312" y="235"/>
      <point x="234" y="295" type="curve" smooth="yes"/>
      <point x="178" y="339"/>
      <point x="137" y="383"/>
      <point x="115" y="425" type="curve" smooth="yes"/>
      <point x="107" y="442"/>
      <point x="102" y="464"/>
      <point x="102" y="491" type="curve" smooth="yes"/>
      <point x="102" y="601"/>
      <point x="189" y="685"/>
      <point x="303" y="685" type="curve" smooth="yes"/>
      <point x="331" y="685"/>
      <point x="358" y="680"/>
      <point x="401" y="666" type="curve" smooth="yes"/>
      <point x="426" y="659"/>
      <point x="443" y="655"/>
      <point x="452" y="655" type="curve" smooth="yes"/>
      <point x="473" y="655"/>
      <point x="487" y="663"/>
      <point x="496" y="681" type="curve"/>
      <point x="526" y="681" type="line"/>
      <point x="486" y="480" type="line"/>
      <point x="459" y="484" type="line"/>
      <point x="446" y="601"/>
      <point x="407" y="650"/>
      <point x="327" y="650" type="curve" smooth="yes"/>
      <point x="263" y="650"/>
      <point x="223" y="609"/>
      <point x="223" y="545" type="curve" smooth="yes"/>
      <point x="223" y="500"/>
      <point x="238" y="478"/>
      <point x="300" y="431" type="curve" smooth="yes"/>
      <point x="422" y="338"/>
      <point x="468" y="271"/>
      <point x="468" y="185" type="curve" smooth="yes"/>
      <point x="468" y="60"/>
      <point x="379" y="-18"/>
      <point x="236" y="-18" type="curve" smooth="yes"/>
      <point x="225" y="-18"/>
      <point x="217" y="-18"/>
    </contour>
  </outline>
</glyph>
<glyph name="uni0162" format="1">
  <advance width="611"/>
  <unicode hex="0162"/>
  <outline>
    <contour>
      <point x="650" y="669" type="line"/>
      <point x="614" y="477" type="line"/>
      <point x="587" y="479" type="line"/>
      <point x="582" y="590"/>
      <point x="543" y="633"/>
      <point x="449" y="634" type="curve"/>
      <point x="309" y="128" type="line" smooth="yes"/>
      <point x="302" y="102"/>
      <point x="298" y="81"/>
      <point x="298" y="66" type="curve" smooth="yes"/>
      <point x="298" y="34"/>
      <point x="311" y="28"/>
      <point x="381" y="25" type="curve"/>
      <point x="381" y="0" type="line"/>
      <point x="220" y="0" type="line"/>
      <point x="178" y="-62" type="line"/>
      <point x="188" y="-60"/>
      <point x="194" y="-59"/>
      <point x="204" y="-59" type="curve" smooth="yes"/>
      <point x="256" y="-59"/>
      <point x="294" y="-89"/>
      <point x="294" y="-131" type="curve" smooth="yes"/>
      <point x="294" y="-181"/>
      <point x="241" y="-218"/>
      <point x="170" y="-218" type="curve" smooth="yes"/>
      <point x="134" y="-218"/>
      <point x="102" y="-211"/>
      <point x="58" y="-193" type="curve"/>
      <point x="80" y="-160" type="line"/>
      <point x="108" y="-173"/>
      <point x="125" y="-177"/>
      <point x="147" y="-177" type="curve" smooth="yes"/>
      <point x="181" y="-177"/>
      <point x="203" y="-161"/>
      <point x="203" y="-136" type="curve" smooth="yes"/>
      <point x="203" y="-114"/>
      <point x="185" y="-100"/>
      <point x="156" y="-100" type="curve" smooth="yes"/>
      <point x="146" y="-100"/>
      <point x="138" y="-101"/>
      <point x="126" y="-104" type="curve"/>
      <point x="113" y="-92" type="line"/>
      <point x="176" y="0" type="line"/>
      <point x="50" y="0" type="line"/>
      <point x="50" y="25" type="line"/>
      <point x="64" y="25" type="line" smooth="yes"/>
      <point x="115" y="25"/>
      <point x="141" y="46"/>
      <point x="155" y="97" type="curve" smooth="yes"/>
      <point x="303" y="634" type="line"/>
      <point x="201" y="632"/>
      <point x="138" y="591"/>
      <point x="86" y="491" type="curve"/>
      <point x="61" y="498" type="line"/>
      <point x="99" y="669" type="line"/>
    </contour>
  </outline>
</glyph>
<glyph name="uni0163" format="1">
  <advance width="278"/>
  <unicode hex="0163"/>
  <outline>
    <contour>
      <point x="281" y="407" type="line"/>
      <point x="198" y="407" type="line"/>
      <point x="182" y="349"/>
      <point x="111" y="120"/>
      <point x="111" y="76" type="curve" smooth="yes"/>
      <point x="111" y="69"/>
      <point x="119" y="61"/>
      <point x="126" y="61" type="curve" smooth="yes"/>
      <point x="151" y="61"/>
      <point x="191" y="121"/>
      <point x="203" y="141" type="curve"/>
      <point x="225" y="127" type="line"/>
      <point x="190" y="73"/>
      <point x="145" y="1"/>
      <point x="76" y="-8" type="curve"/>
      <point x="40" y="-62" type="line"/>
      <point x="50" y="-60"/>
      <point x="56" y="-59"/>
      <point x="66" y="-59" type="curve" smooth="yes"/>
      <point x="118" y="-59"/>
      <point x="156" y="-89"/>
      <point x="156" y="-131" type="curve" smooth="yes"/>
      <point x="156" y="-181"/>
      <point x="103" y="-218"/>
      <point x="32" y="-218" type="curve" smooth="yes"/>
      <point x="-4" y="-218"/>
      <point x="-36" y="-211"/>
      <point x="-80" y="-193" type="curve"/>
      <point x="-58" y="-160" type="line"/>
      <point x="-30" y="-173"/>
      <point x="-13" y="-177"/>
      <point x="9" y="-177" type="curve" smooth="yes"/>
      <point x="43" y="-177"/>
      <point x="65" y="-161"/>
      <point x="65" y="-136" type="curve" smooth="yes"/>
      <point x="65" y="-114"/>
      <point x="47" y="-100"/>
      <point x="18" y="-100" type="curve" smooth="yes"/>
      <point x="8" y="-100"/>
      <point x="0" y="-101"/>
      <point x="-12" y="-104" type="curve"/>
      <point x="-25" y="-92" type="line"/>
      <point x="34" y="-5" type="line"/>
      <point x="6" y="3"/>
      <point x="-11" y="25"/>
      <point x="-11" y="58" type="curve" smooth="yes"/>
      <point x="-11" y="110"/>
      <point x="64" y="345"/>
      <point x="81" y="407" type="curve"/>
      <point x="30" y="407" type="line"/>
      <point x="30" y="442" type="line"/>
      <point x="111" y="473"/>
      <point x="166" y="521"/>
      <point x="213" y="594" type="curve"/>
      <point x="248" y="594" type="line"/>
      <point x="209" y="449" type="line"/>
      <point x="281" y="449" type="line"/>
    </contour>
  </outline>
</glyph>
<glyph name="tcaron" format="1">
  <advance width="387"/>
  <unicode hex="0165"/>
  <outline>
    <contour>
      <point x="281" y="422" type="curve"/>
      <point x="281" y="407" type="line"/>
      <point x="198" y="407" type="line"/>
      <point x="165" y="289" type="line" smooth="yes"/>
      <point x="129" y="167"/>
      <point x="111" y="94"/>
      <point x="111" y="76" type="curve" smooth="yes"/>
      <point x="111" y="69"/>
      <point x="119" y="61"/>
      <point x="127" y="61" type="curve" smooth="yes"/>
      <point x="143" y="61"/>
      <point x="169" y="88"/>
      <point x="203" y="141" type="curve"/>
      <point x="225" y="127" type="line"/>
      <point x="159" y="24"/>
      <point x="119" y="-9"/>
      <point x="59" y="-9" type="curve" smooth="yes"/>
      <point x="17" y="-9"/>
      <point x="-11" y="17"/>
      <point x="-11" y="56" type="curve" smooth="yes"/>
      <point x="-11" y="73"/>
      <point x="-1" y="118"/>
      <point x="13" y="169" type="curve" smooth="yes"/>
      <point x="81" y="407" type="line"/>
      <point x="30" y="407" type="line"/>
      <point x="30" y="442" type="line"/>
      <point x="109" y="472"/>
      <point x="159" y="513"/>
      <point x="213" y="594" type="curve"/>
      <point x="248" y="594" type="line"/>
      <point x="209" y="449" type="line"/>
      <point x="271" y="449" type="line"/>
      <point x="312" y="478"/>
      <point x="332" y="503"/>
      <point x="332" y="527" type="curve" smooth="yes"/>
      <point x="332" y="540"/>
      <point x="325" y="549"/>
      <point x="305" y="562" type="curve" smooth="yes"/>
      <point x="278" y="581"/>
      <point x="269" y="595"/>
      <point x="269" y="619" type="curve" smooth="yes"/>
      <point x="269" y="657"/>
      <point x="296" y="685"/>
      <point x="333" y="685" type="curve" smooth="yes"/>
      <point x="378" y="685"/>
      <point x="409" y="650"/>
      <point x="409" y="597" type="curve" smooth="yes"/>
      <point x="409" y="536"/>
      <point x="360" y="470"/>
    </contour>
  </outline>
</glyph>
<glyph name="tbar" format="1">
  <advance width="313"/>
  <unicode hex="0167"/>
  <outline>
    <contour>
      <point x="316" y="407" type="line"/>
      <point x="233" y="407" type="line"/>
      <point x="211" y="326" type="line"/>
      <point x="294" y="326" type="line"/>
      <point x="282" y="282" type="line"/>
      <point x="198" y="282" type="line"/>
      <point x="187" y="244"/>
      <point x="146" y="110"/>
      <point x="146" y="76" type="curve" smooth="yes"/>
      <point x="146" y="69"/>
      <point x="154" y="61"/>
      <point x="161" y="61" type="curve" smooth="yes"/>
      <point x="186" y="61"/>
      <point x="225" y="121"/>
      <point x="238" y="141" type="curve"/>
      <point x="260" y="127" type="line"/>
      <point x="223" y="69"/>
      <point x="174" y="-9"/>
      <point x="96" y="-9" type="curve" smooth="yes"/>
      <point x="53" y="-9"/>
      <point x="24" y="15"/>
      <point x="24" y="58" type="curve" smooth="yes"/>
      <point x="24" y="98"/>
      <point x="68" y="238"/>
      <point x="80" y="282" type="curve"/>
      <point x="-6" y="282" type="line"/>
      <point x="6" y="326" type="line"/>
      <point x="93" y="326" type="line"/>
      <point x="116" y="407" type="line"/>
      <point x="65" y="407" type="line"/>
      <point x="65" y="442" type="line"/>
      <point x="146" y="473"/>
      <point x="201" y="521"/>
      <point x="248" y="594" type="curve"/>
      <point x="283" y="594" type="line"/>
      <point x="244" y="449" type="line"/>
      <point x="316" y="449" type="line"/>
    </contour>
  </outline>
</glyph>
<glyph name="ubreve" format="1">
  <advance width="556"/>
  <unicode hex="016D"/>
  <outline>
    <contour>
      <point x="492" y="120" type="line"/>
      <point x="460" y="62"/>
      <point x="407" y="-9"/>
      <point x="333" y="-9" type="curve" smooth="yes"/>
      <point x="296" y="-9"/>
      <point x="266" y="4"/>
      <point x="266" y="47" type="curve" smooth="yes"/>
      <point x="266" y="84"/>
      <point x="276" y="119"/>
      <point x="288" y="154" type="curve"/>
      <point x="286" y="155" type="line"/>
      <point x="240" y="91"/>
      <point x="181" y="-9"/>
      <point x="92" y="-9" type="curve" smooth="yes"/>
      <point x="37" y="-9"/>
      <point x="15" y="17"/>
      <point x="15" y="69" type="curve" smooth="yes"/>
      <point x="15" y="168"/>
      <point x="90" y="283"/>
      <point x="90" y="378" type="curve" smooth="yes"/>
      <point x="90" y="408"/>
      <point x="55" y="406"/>
      <point x="34" y="407" type="curve"/>
      <point x="34" y="434" type="line"/>
      <point x="105" y="437"/>
      <point x="173" y="456"/>
      <point x="243" y="462" type="curve"/>
      <point x="149" y="154" type="line" smooth="yes"/>
      <point x="142" y="132"/>
      <point x="134" y="110"/>
      <point x="134" y="87" type="curve" smooth="yes"/>
      <point x="134" y="71"/>
      <point x="141" y="63"/>
      <point x="157" y="63" type="curve" smooth="yes"/>
      <point x="195" y="63"/>
      <point x="254" y="150"/>
      <point x="271" y="182" type="curve" smooth="yes"/>
      <point x="317" y="266"/>
      <point x="344" y="358"/>
      <point x="370" y="449" type="curve"/>
      <point x="488" y="449" type="line"/>
      <point x="470" y="386"/>
      <point x="385" y="121"/>
      <point x="385" y="78" type="curve" smooth="yes"/>
      <point x="385" y="68"/>
      <point x="389" y="59"/>
      <point x="400" y="59" type="curve" smooth="yes"/>
      <point x="423" y="59"/>
      <point x="459" y="114"/>
      <point x="471" y="133" type="curve"/>
    </contour>
    <contour>
      <point x="494" y="677" type="line"/>
      <point x="465" y="586"/>
      <point x="403" y="514"/>
      <point x="301" y="514" type="curve" smooth="yes"/>
      <point x="230" y="514"/>
      <point x="184" y="547"/>
      <point x="184" y="621" type="curve" smooth="yes"/>
      <point x="184" y="640"/>
      <point x="186" y="659"/>
      <point x="191" y="677" type="curve"/>
      <point x="235" y="677" type="line"/>
      <point x="234" y="662" type="line" smooth="yes"/>
      <point x="233.894" y="660.055"/>
      <point x="233.842" y="658.158"/>
      <point x="233.842" y="656.307" type="curve" smooth="yes"/>
      <point x="233.842" y="605.819"/>
      <point x="272.768" y="590"/>
      <point x="321" y="590" type="curve" smooth="yes"/>
      <point x="385" y="590"/>
      <point x="422" y="621"/>
      <point x="450" y="677" type="curve"/>
    </contour>
  </outline>
</glyph>
<glyph name="Uring" format="1">
  <advance width="722"/>
  <unicode hex="016E"/>
  <outline>
    <contour>
      <point x="744" y="669" type="line"/>
      <point x="744" y="644" type="line"/>
      <point x="689" y="633"/>
      <point x="680" y="623"/>
      <point x="642" y="491" type="curve" smooth="yes"/>
      <point x="576" y="263" type="line" smooth="yes"/>
      <point x="545" y="155"/>
      <point x="521" y="101"/>
      <point x="487" y="62" type="curve" smooth="yes"/>
      <point x="442" y="9"/>
      <point x="375" y="-18"/>
      <point x="290" y="-18" type="curve" smooth="yes"/>
      <point x="159" y="-18"/>
      <point x="67" y="50"/>
      <point x="67" y="148" type="curve" smooth="yes"/>
      <point x="67" y="181"/>
      <point x="79" y="243"/>
      <point x="100" y="323" type="curve" smooth="yes"/>
      <point x="156" y="529" type="line" smooth="yes"/>
      <point x="165" y="562"/>
      <point x="171" y="593"/>
      <point x="171" y="605" type="curve" smooth="yes"/>
      <point x="171" y="627"/>
      <point x="161" y="635"/>
      <point x="129" y="640" type="curve" smooth="yes"/>
      <point x="125" y="640"/>
      <point x="112" y="642"/>
      <point x="98" y="644" type="curve"/>
      <point x="98" y="669" type="line"/>
      <point x="409" y="669" type="line"/>
      <point x="409" y="644" type="line"/>
      <point x="347" y="641"/>
      <point x="332" y="629"/>
      <point x="315" y="572" type="curve" smooth="yes"/>
      <point x="233" y="272" type="line" smooth="yes"/>
      <point x="208" y="181"/>
      <point x="205" y="166"/>
      <point x="205" y="139" type="curve" smooth="yes"/>
      <point x="205" y="76"/>
      <point x="251" y="38"/>
      <point x="327" y="38" type="curve" smooth="yes"/>
      <point x="382" y="38"/>
      <point x="426" y="58"/>
      <point x="460" y="98" type="curve" smooth="yes"/>
      <point x="490" y="135"/>
      <point x="512" y="185"/>
      <point x="539" y="282" type="curve" smooth="yes"/>
      <point x="597" y="491" type="line" smooth="yes"/>
      <point x="608" y="532"/>
      <point x="616" y="571"/>
      <point x="616" y="588" type="curve" smooth="yes"/>
      <point x="616" y="623"/>
      <point x="593" y="639"/>
      <point x="536" y="644" type="curve"/>
      <point x="536" y="669" type="line"/>
    </contour>
    <contour>
      <point x="494" y="964" type="curve" smooth="yes"/>
      <point x="552" y="964"/>
      <point x="600" y="916"/>
      <point x="600" y="857" type="curve" smooth="yes"/>
      <point x="600" y="798"/>
      <point x="552" y="750"/>
      <point x="493" y="750" type="curve" smooth="yes"/>
      <point x="434" y="750"/>
      <point x="387" y="799"/>
      <point x="387" y="859" type="curve" smooth="yes"/>
      <point x="387" y="916"/>
      <point x="436" y="964"/>
    </contour>
    <contour>
      <point x="492" y="916" type="curve" smooth="yes"/>
      <point x="462" y="916"/>
      <point x="435" y="888"/>
      <point x="435" y="857" type="curve" smooth="yes"/>
      <point x="435" y="825"/>
      <point x="461" y="798"/>
      <point x="492" y="798" type="curve" smooth="yes"/>
      <point x="525" y="798"/>
      <point x="552" y="824"/>
      <point x="552" y="856" type="curve" smooth="yes"/>
      <point x="552" y="889"/>
      <point x="525" y="916"/>
    </contour>
  </outline>
</glyph>
<glyph name="Uogonek" format="1">
  <advance width="722"/>
  <unicode hex="0172"/>
  <outline>
    <contour>
      <point x="521" y="-104" type="curve"/>
      <point x="521" y="-105" type="line"/>
      <point x="549" y="-105"/>
      <point x="563" y="-93"/>
      <point x="582" y="-85" type="curve"/>
      <point x="604" y="-99" type="line"/>
      <point x="579" y="-145"/>
      <point x="531" y="-174"/>
      <point x="481" y="-174" type="curve" smooth="yes"/>
      <point x="419" y="-174"/>
      <point x="374" y="-140"/>
      <point x="374" y="-93" type="curve" smooth="yes"/>
      <point x="374" y="-63"/>
      <point x="386" y="-40"/>
      <point x="428" y="12" type="curve"/>
      <point x="386" y="-9"/>
      <point x="342" y="-19"/>
      <point x="289" y="-19" type="curve" smooth="yes"/>
      <point x="159" y="-19"/>
      <point x="67" y="49"/>
      <point x="67" y="147" type="curve" smooth="yes"/>
      <point x="67" y="180"/>
      <point x="79" y="242"/>
      <point x="100" y="322" type="curve" smooth="yes"/>
      <point x="156" y="528" type="line" smooth="yes"/>
      <point x="165" y="561"/>
      <point x="171" y="592"/>
      <point x="171" y="604" type="curve" smooth="yes"/>
      <point x="171" y="626"/>
      <point x="161" y="634"/>
      <point x="129" y="639" type="curve" smooth="yes"/>
      <point x="125" y="639"/>
      <point x="112" y="641"/>
      <point x="98" y="643" type="curve"/>
      <point x="98" y="668" type="line"/>
      <point x="409" y="668" type="line"/>
      <point x="409" y="643" type="line"/>
      <point x="347" y="640"/>
      <point x="332" y="628"/>
      <point x="315" y="571" type="curve" smooth="yes"/>
      <point x="233" y="271" type="line" smooth="yes"/>
      <point x="208" y="180"/>
      <point x="205" y="165"/>
      <point x="205" y="138" type="curve" smooth="yes"/>
      <point x="205" y="75"/>
      <point x="251" y="37"/>
      <point x="327" y="37" type="curve" smooth="yes"/>
      <point x="382" y="37"/>
      <point x="426" y="57"/>
      <point x="460" y="97" type="curve" smooth="yes"/>
      <point x="490" y="134"/>
      <point x="512" y="184"/>
      <point x="539" y="281" type="curve" smooth="yes"/>
      <point x="597" y="490" type="line" smooth="yes"/>
      <point x="608" y="531"/>
      <point x="616" y="570"/>
      <point x="616" y="587" type="curve" smooth="yes"/>
      <point x="616" y="622"/>
      <point x="593" y="638"/>
      <point x="536" y="643" type="curve"/>
      <point x="536" y="668" type="line"/>
      <point x="744" y="668" type="line"/>
      <point x="744" y="643" type="line"/>
      <point x="689" y="632"/>
      <point x="680" y="622"/>
      <point x="642" y="490" type="curve" smooth="yes"/>
      <point x="576" y="262" type="line" smooth="yes"/>
      <point x="536" y="126"/>
      <point x="528" y="123"/>
      <point x="507" y="92" type="curve" smooth="yes"/>
      <point x="487" y="62" type="line" smooth="yes"/>
      <point x="470" y="36"/>
      <point x="458" y="-6"/>
      <point x="458" y="-42" type="curve" smooth="yes"/>
      <point x="458" y="-82"/>
      <point x="481" y="-104"/>
    </contour>
  </outline>
</glyph>
<glyph name="uogonek" format="1">
  <advance width="556"/>
  <unicode hex="0173"/>
  <outline>
    <contour>
      <point x="370" y="449" type="curve"/>
      <point x="488" y="449" type="line"/>
      <point x="410" y="181" type="line" smooth="yes"/>
      <point x="385" y="86"/>
      <point x="385" y="86"/>
      <point x="385" y="76" type="curve" smooth="yes"/>
      <point x="385" y="67"/>
      <point x="391" y="59"/>
      <point x="399" y="59" type="curve" smooth="yes"/>
      <point x="416" y="59"/>
      <point x="436" y="80"/>
      <point x="471" y="133" type="curve"/>
      <point x="492" y="120" type="line"/>
      <point x="476" y="92"/>
      <point x="469" y="81"/>
      <point x="451" y="59" type="curve" smooth="yes"/>
      <point x="420" y="19"/>
      <point x="411" y="-3"/>
      <point x="411" y="-41" type="curve" smooth="yes"/>
      <point x="411" y="-82"/>
      <point x="433" y="-104"/>
      <point x="474" y="-104" type="curve" smooth="yes"/>
      <point x="489" y="-104"/>
      <point x="500" y="-101"/>
      <point x="520" y="-91" type="curve" smooth="yes"/>
      <point x="528" y="-87"/>
      <point x="529" y="-86"/>
      <point x="534" y="-84" type="curve"/>
      <point x="556" y="-98" type="line"/>
      <point x="531" y="-144"/>
      <point x="483" y="-173"/>
      <point x="433" y="-173" type="curve" smooth="yes"/>
      <point x="372" y="-173"/>
      <point x="327" y="-139"/>
      <point x="327" y="-92" type="curve" smooth="yes"/>
      <point x="327" y="-65"/>
      <point x="336" y="-46"/>
      <point x="367" y="-4" type="curve"/>
      <point x="351" y="-8"/>
      <point x="343" y="-9"/>
      <point x="331" y="-9" type="curve" smooth="yes"/>
      <point x="287" y="-9"/>
      <point x="266" y="10"/>
      <point x="266" y="51" type="curve" smooth="yes"/>
      <point x="266" y="79"/>
      <point x="272" y="106"/>
      <point x="290" y="161" type="curve"/>
      <point x="187" y="17"/>
      <point x="157" y="-9"/>
      <point x="90" y="-9" type="curve" smooth="yes"/>
      <point x="41" y="-9"/>
      <point x="15" y="16"/>
      <point x="15" y="65" type="curve" smooth="yes"/>
      <point x="15" y="89"/>
      <point x="22" y="125"/>
      <point x="36" y="173" type="curve" smooth="yes"/>
      <point x="76" y="306" type="line" smooth="yes"/>
      <point x="85" y="335"/>
      <point x="90" y="363"/>
      <point x="90" y="379" type="curve" smooth="yes"/>
      <point x="90" y="399"/>
      <point x="80" y="404"/>
      <point x="34" y="407" type="curve"/>
      <point x="34" y="434" type="line"/>
      <point x="82" y="436"/>
      <point x="141" y="444"/>
      <point x="215" y="457" type="curve" smooth="yes"/>
      <point x="231" y="460"/>
      <point x="237" y="461"/>
      <point x="243" y="462" type="curve"/>
      <point x="149" y="154" type="line" smooth="yes"/>
      <point x="136" y="111"/>
      <point x="134" y="103"/>
      <point x="134" y="88" type="curve" smooth="yes"/>
      <point x="134" y="71"/>
      <point x="141" y="63"/>
      <point x="155" y="63" type="curve" smooth="yes"/>
      <point x="175" y="63"/>
      <point x="197" y="80"/>
      <point x="228" y="118" type="curve" smooth="yes"/>
      <point x="285" y="190"/>
      <point x="314" y="256"/>
    </contour>
  </outline>
</glyph>
<glyph name="Zacute" format="1">
  <advance width="611"/>
  <unicode hex="0179"/>
  <outline>
    <contour>
      <point x="554" y="194" type="line"/>
      <point x="495" y="0" type="line"/>
      <point x="-11" y="0" type="line"/>
      <point x="-11" y="29" type="line"/>
      <point x="423" y="634" type="line"/>
      <point x="345" y="634" type="line" smooth="yes"/>
      <point x="235" y="634"/>
      <point x="172" y="597"/>
      <point x="93" y="487" type="curve"/>
      <point x="65" y="491" type="line"/>
      <point x="122" y="669" type="line"/>
      <point x="590" y="669" type="line"/>
      <point x="590" y="640" type="line"/>
      <point x="156" y="35" type="line"/>
      <point x="226" y="35" type="line" smooth="yes"/>
      <point x="314" y="35"/>
      <point x="373" y="49"/>
      <point x="418" y="80" type="curve" smooth="yes"/>
      <point x="458" y="107"/>
      <point x="496" y="149"/>
      <point x="527" y="199" type="curve"/>
    </contour>
    <contour>
      <point x="328" y="723" type="line"/>
      <point x="279" y="723" type="line"/>
      <point x="401" y="854" type="line" smooth="yes"/>
      <point x="436" y="892"/>
      <point x="453" y="904"/>
      <point x="471" y="904" type="curve" smooth="yes"/>
      <point x="497" y="904"/>
      <point x="519" y="882"/>
      <point x="519" y="857" type="curve" smooth="yes"/>
      <point x="519" y="838"/>
      <point x="510" y="827"/>
      <point x="480" y="810" type="curve" smooth="yes"/>
    </contour>
  </outline>
</glyph>
<glyph name="Zdotaccent" format="1">
  <advance width="611"/>
  <unicode hex="017B"/>
  <outline>
    <contour>
      <point x="554" y="194" type="line"/>
      <point x="495" y="0" type="line"/>
      <point x="-11" y="0" type="line"/>
      <point x="-11" y="29" type="line"/>
      <point x="423" y="634" type="line"/>
      <point x="345" y="634" type="line" smooth="yes"/>
      <point x="235" y="634"/>
      <point x="172" y="597"/>
      <point x="93" y="487" type="curve"/>
      <point x="65" y="491" type="line"/>
      <point x="122" y="669" type="line"/>
      <point x="590" y="669" type="line"/>
      <point x="590" y="640" type="line"/>
      <point x="156" y="35" type="line"/>
      <point x="226" y="35" type="line" smooth="yes"/>
      <point x="314" y="35"/>
      <point x="373" y="49"/>
      <point x="418" y="80" type="curve" smooth="yes"/>
      <point x="458" y="107"/>
      <point x="496" y="149"/>
      <point x="527" y="199" type="curve"/>
    </contour>
    <contour>
      <point x="367" y="862" type="curve" smooth="yes"/>
      <point x="403" y="862"/>
      <point x="433" y="832"/>
      <point x="433" y="796" type="curve" smooth="yes"/>
      <point x="433" y="762"/>
      <point x="402" y="732"/>
      <point x="367" y="732" type="curve" smooth="yes"/>
      <point x="333" y="732"/>
      <point x="303" y="762"/>
      <point x="303" y="796" type="curve" smooth="yes"/>
      <point x="303" y="832"/>
      <point x="332" y="862"/>
    </contour>
  </outline>
</glyph>
<glyph name="uni0190" format="1">
  <advance width="667"/>
  <unicode hex="0190"/>
  <outline>
    <contour>
      <point x="670" y="685" type="line"/>
      <point x="628" y="457" type="line"/>
      <point x="604" y="457" type="line"/>
      <point x="590" y="544"/>
      <point x="539" y="645"/>
      <point x="438" y="645" type="curve" smooth="yes"/>
      <point x="337" y="645"/>
      <point x="285" y="553"/>
      <point x="285" y="460" type="curve" smooth="yes"/>
      <point x="285" y="380.98"/>
      <point x="355.957" y="376.948"/>
      <point x="416.777" y="376.948" type="curve" smooth="yes"/>
      <point x="423.689" y="376.948"/>
      <point x="430.469" y="377"/>
      <point x="437" y="377" type="curve"/>
      <point x="427" y="336" type="line"/>
      <point x="309" y="336"/>
      <point x="245" y="323"/>
      <point x="216" y="197" type="curve" smooth="yes"/>
      <point x="212" y="180"/>
      <point x="210" y="163"/>
      <point x="210" y="145" type="curve" smooth="yes"/>
      <point x="210" y="75"/>
      <point x="248" y="35"/>
      <point x="319" y="35" type="curve" smooth="yes"/>
      <point x="417" y="35"/>
      <point x="497" y="93"/>
      <point x="571" y="151" type="curve"/>
      <point x="557" y="90" type="line"/>
      <point x="458" y="14"/>
      <point x="391" y="-17"/>
      <point x="262" y="-17" type="curve" smooth="yes"/>
      <point x="162" y="-17"/>
      <point x="16" y="11"/>
      <point x="16" y="138" type="curve" smooth="yes"/>
      <point x="16" y="281"/>
      <point x="142" y="328"/>
      <point x="258" y="354" type="curve"/>
      <point x="258" y="356" type="line"/>
      <point x="187" y="369"/>
      <point x="112" y="403"/>
      <point x="112" y="486" type="curve" smooth="yes"/>
      <point x="112" y="633"/>
      <point x="275" y="685"/>
      <point x="396" y="685" type="curve" smooth="yes"/>
      <point x="437" y="685"/>
      <point x="478" y="680"/>
      <point x="517" y="669" type="curve" smooth="yes"/>
      <point x="541" y="662"/>
      <point x="576" y="645"/>
      <point x="600" y="645" type="curve" smooth="yes"/>
      <point x="626" y="645"/>
      <point x="642" y="661"/>
      <point x="648" y="685" type="curve"/>
    </contour>
  </outline>
</glyph>
<glyph name="ohorn" format="1">
  <advance width="530"/>
  <unicode hex="01A1"/>
  <outline>
    <contour>
      <point x="322" y="369" type="curve" smooth="yes"/>
      <point x="322" y="402"/>
      <point x="312" y="433"/>
      <point x="274" y="433" type="curve" smooth="yes"/>
      <point x="171" y="433"/>
      <point x="116" y="166"/>
      <point x="116" y="86" type="curve" smooth="yes"/>
      <point x="116" y="50"/>
      <point x="124" y="16"/>
      <point x="168" y="16" type="curve" smooth="yes"/>
      <point x="264" y="16"/>
      <point x="322" y="294"/>
    </contour>
    <contour>
      <point x="426" y="378" type="curve"/>
      <point x="436" y="354"/>
      <point x="441" y="340"/>
      <point x="441" y="311" type="curve" smooth="yes"/>
      <point x="441" y="142"/>
      <point x="305" y="-13"/>
      <point x="156" y="-13" type="curve" smooth="yes"/>
      <point x="64" y="-13"/>
      <point x="-3" y="50"/>
      <point x="-3" y="135" type="curve" smooth="yes"/>
      <point x="-3" y="303"/>
      <point x="137" y="462"/>
      <point x="284" y="462" type="curve" smooth="yes"/>
      <point x="345" y="462"/>
      <point x="386" y="436"/>
      <point x="413" y="401" type="curve"/>
      <point x="414.363" y="400.903"/>
      <point x="415.743" y="400.855"/>
      <point x="417.135" y="400.855" type="curve" smooth="yes"/>
      <point x="444.325" y="400.855"/>
      <point x="476" y="419.023"/>
      <point x="476" y="439" type="curve" smooth="yes"/>
      <point x="476" y="475"/>
      <point x="464" y="476"/>
      <point x="464" y="514" type="curve" smooth="yes"/>
      <point x="464" y="551"/>
      <point x="488" y="577"/>
      <point x="527" y="577" type="curve" smooth="yes"/>
      <point x="568" y="577"/>
      <point x="588" y="541"/>
      <point x="588" y="507" type="curve" smooth="yes"/>
      <point x="588" y="423"/>
      <point x="468" y="383"/>
    </contour>
  </outline>
</glyph>
<glyph name="uni01C6" format="1">
  <advance width="889"/>
  <unicode hex="01C6"/>
  <outline>
    <contour>
      <point x="868" y="439" type="line"/>
      <point x="587" y="104" type="line"/>
      <point x="696" y="61"/>
      <point x="690" y="-49"/>
      <point x="742" y="-49" type="curve" smooth="yes"/>
      <point x="750" y="-49"/>
      <point x="763" y="-44"/>
      <point x="763" y="-34" type="curve" smooth="yes"/>
      <point x="763" y="-20"/>
      <point x="743" y="-13"/>
      <point x="743" y="15" type="curve" smooth="yes"/>
      <point x="743" y="41"/>
      <point x="766" y="65"/>
      <point x="792" y="65" type="curve" smooth="yes"/>
      <point x="822" y="65"/>
      <point x="846" y="41"/>
      <point x="846" y="11" type="curve" smooth="yes"/>
      <point x="846" y="-45"/>
      <point x="789" y="-78"/>
      <point x="739" y="-78" type="curve" smooth="yes"/>
      <point x="643" y="-78"/>
      <point x="589" y="5"/>
      <point x="535" y="5" type="curve" smooth="yes"/>
      <point x="514" y="5"/>
      <point x="498" y="-11"/>
      <point x="482" y="-23" type="curve"/>
      <point x="457" y="-1" type="line"/>
      <point x="749" y="353" type="line"/>
      <point x="604" y="353" type="line" smooth="yes"/>
      <point x="567" y="353"/>
      <point x="552" y="322"/>
      <point x="541" y="292" type="curve"/>
      <point x="513" y="295" type="line"/>
      <point x="556" y="449" type="line"/>
      <point x="868" y="449" type="line"/>
    </contour>
    <contour>
      <point x="929" y="690" type="line"/>
      <point x="767" y="516" type="line"/>
      <point x="685" y="516" type="line"/>
      <point x="597" y="690" type="line"/>
      <point x="647" y="690" type="line"/>
      <point x="738" y="593" type="line"/>
      <point x="873" y="690" type="line"/>
    </contour>
    <contour>
      <point x="517" y="699" type="curve"/>
      <point x="406" y="294" type="line" smooth="yes"/>
      <point x="396" y="258"/>
      <point x="349" y="97"/>
      <point x="349" y="73" type="curve" smooth="yes"/>
      <point x="349" y="66"/>
      <point x="353" y="59"/>
      <point x="361" y="59" type="curve" smooth="yes"/>
      <point x="381" y="59"/>
      <point x="417" y="114"/>
      <point x="427" y="131" type="curve"/>
      <point x="449" y="115" type="line"/>
      <point x="418" y="64"/>
      <point x="366" y="-11"/>
      <point x="300" y="-11" type="curve" smooth="yes"/>
      <point x="263" y="-11"/>
      <point x="240" y="12"/>
      <point x="240" y="50" type="curve" smooth="yes"/>
      <point x="240" y="72"/>
      <point x="245" y="94"/>
      <point x="250" y="115" type="curve"/>
      <point x="248" y="114" type="line"/>
      <point x="212" y="53"/>
      <point x="164" y="-13"/>
      <point x="85" y="-13" type="curve" smooth="yes"/>
      <point x="15" y="-13"/>
      <point x="-21" y="51"/>
      <point x="-21" y="114" type="curve" smooth="yes"/>
      <point x="-21" y="238"/>
      <point x="110" y="462"/>
      <point x="248" y="462" type="curve" smooth="yes"/>
      <point x="280" y="462"/>
      <point x="301" y="452"/>
      <point x="323" y="429" type="curve"/>
      <point x="331" y="458"/>
      <point x="370" y="591"/>
      <point x="370" y="613" type="curve" smooth="yes"/>
      <point x="370" y="640.524"/>
      <point x="345.098" y="643.145"/>
      <point x="322.879" y="643.145" type="curve" smooth="yes"/>
      <point x="317.651" y="643.145"/>
      <point x="312.571" y="643"/>
      <point x="308" y="643" type="curve"/>
      <point x="308" y="670" type="line"/>
      <point x="378" y="676"/>
      <point x="448" y="683"/>
    </contour>
    <contour>
      <point x="308" y="368" type="curve" smooth="yes"/>
      <point x="308" y="391"/>
      <point x="298" y="420"/>
      <point x="270" y="420" type="curve" smooth="yes"/>
      <point x="184" y="420"/>
      <point x="103" y="190"/>
      <point x="103" y="118" type="curve" smooth="yes"/>
      <point x="103" y="93"/>
      <point x="114" y="59"/>
      <point x="145" y="59" type="curve" smooth="yes"/>
      <point x="225" y="59"/>
      <point x="308" y="300"/>
    </contour>
  </outline>
</glyph>
<glyph name="uni01C8" format="1">
  <advance width="887"/>
  <unicode hex="01C8"/>
  <outline>
    <contour>
      <point x="848" y="462" type="curve"/>
      <point x="734" y="24" type="line" smooth="yes"/>
      <point x="707" y="-80"/>
      <point x="652" y="-207"/>
      <point x="526" y="-207" type="curve" smooth="yes"/>
      <point x="478" y="-207"/>
      <point x="420" y="-186"/>
      <point x="420" y="-130" type="curve" smooth="yes"/>
      <point x="420" y="-103"/>
      <point x="441" y="-77"/>
      <point x="469" y="-77" type="curve" smooth="yes"/>
      <point x="496" y="-77"/>
      <point x="518" y="-99"/>
      <point x="518" y="-126" type="curve" smooth="yes"/>
      <point x="518" y="-147"/>
      <point x="503" y="-156"/>
      <point x="503" y="-164" type="curve" smooth="yes"/>
      <point x="503" y="-171"/>
      <point x="520" y="-176"/>
      <point x="525" y="-176" type="curve" smooth="yes"/>
      <point x="571" y="-176"/>
      <point x="589" y="-78"/>
      <point x="598" y="-45" type="curve" smooth="yes"/>
      <point x="690" y="310" type="line" smooth="yes"/>
      <point x="695" y="331"/>
      <point x="702" y="354"/>
      <point x="702" y="376" type="curve" smooth="yes"/>
      <point x="702" y="402.863"/>
      <point x="680.794" y="407.93"/>
      <point x="659.178" y="407.93" type="curve" smooth="yes"/>
      <point x="652.63" y="407.93"/>
      <point x="646.045" y="407.465"/>
      <point x="640" y="407" type="curve"/>
      <point x="640" y="434" type="line"/>
      <point x="710" y="440"/>
      <point x="779" y="447"/>
    </contour>
    <contour>
      <point x="819" y="685" type="curve" smooth="yes"/>
      <point x="857" y="685"/>
      <point x="888" y="654"/>
      <point x="888" y="617" type="curve" smooth="yes"/>
      <point x="888" y="580"/>
      <point x="857" y="550"/>
      <point x="819" y="550" type="curve" smooth="yes"/>
      <point x="782" y="550"/>
      <point x="753" y="580"/>
      <point x="753" y="619" type="curve" smooth="yes"/>
      <point x="753" y="654"/>
      <point x="784" y="685"/>
    </contour>
    <contour>
      <point x="189" y="607" type="curve" smooth="yes"/>
      <point x="189" y="635"/>
      <point x="169" y="636"/>
      <point x="116" y="644" type="curve"/>
      <point x="116" y="669" type="line"/>
      <point x="433" y="669" type="line"/>
      <point x="433" y="644" type="line"/>
      <point x="367" y="640"/>
      <point x="348" y="627"/>
      <point x="332" y="572" type="curve" smooth="yes"/>
      <point x="203" y="94" type="line" smooth="yes"/>
      <point x="200" y="83"/>
      <point x="198" y="70"/>
      <point x="198" y="62" type="curve" smooth="yes"/>
      <point x="198" y="41"/>
      <point x="218" y="32"/>
      <point x="262" y="32" type="curve" smooth="yes"/>
      <point x="344" y="32"/>
      <point x="415" y="52"/>
      <point x="469" y="90" type="curve" smooth="yes"/>
      <point x="508" y="118"/>
      <point x="530" y="143"/>
      <point x="564" y="199" type="curve"/>
      <point x="588" y="194" type="line"/>
      <point x="529" y="0" type="line"/>
      <point x="-24" y="0" type="line"/>
      <point x="-24" y="25" type="line"/>
      <point x="25" y="32"/>
      <point x="42" y="45"/>
      <point x="56" y="97" type="curve" smooth="yes"/>
      <point x="179" y="546" type="line" smooth="yes"/>
      <point x="184" y="564"/>
      <point x="189" y="595"/>
    </contour>
  </outline>
</glyph>
<glyph name="uni01DE" format="1">
  <advance width="691"/>
  <unicode hex="01DE"/>
  <outline>
    <contour>
      <point x="617" y="0" type="line"/>
      <point x="313" y="0" type="line"/>
      <point x="313" y="25" type="line"/>
      <point x="353" y="28"/>
      <point x="392" y="30"/>
      <point x="392" y="81" type="curve" smooth="yes"/>
      <point x="392" y="123"/>
      <point x="383" y="167"/>
      <point x="377" y="208" type="curve"/>
      <point x="162" y="208" type="line"/>
      <point x="146" y="180"/>
      <point x="88" y="97"/>
      <point x="88" y="60" type="curve" smooth="yes"/>
      <point x="88" y="27"/>
      <point x="129" y="25"/>
      <point x="153" y="25" type="curve"/>
      <point x="153" y="0" type="line"/>
      <point x="-43" y="0" type="line"/>
      <point x="-43" y="25" type="line"/>
      <point x="1" y="36"/>
      <point x="16" y="57"/>
      <point x="40" y="95" type="curve" smooth="yes"/>
      <point x="412" y="683" type="line"/>
      <point x="437" y="683" type="line"/>
      <point x="533" y="111" type="line" smooth="yes"/>
      <point x="545" y="41"/>
      <point x="547" y="32"/>
      <point x="617" y="25" type="curve"/>
    </contour>
    <contour>
      <point x="185" y="248" type="line"/>
      <point x="370" y="248" type="line"/>
      <point x="333" y="491" type="line"/>
    </contour>
    <contour>
      <point x="331" y="862" type="curve" smooth="yes"/>
      <point x="367" y="862"/>
      <point x="397" y="832"/>
      <point x="397" y="796" type="curve" smooth="yes"/>
      <point x="397" y="762"/>
      <point x="366" y="732"/>
      <point x="331" y="732" type="curve" smooth="yes"/>
      <point x="297" y="732"/>
      <point x="267" y="762"/>
      <point x="267" y="796" type="curve" smooth="yes"/>
      <point x="267" y="832"/>
      <point x="296" y="862"/>
    </contour>
    <contour>
      <point x="543" y="862" type="curve" smooth="yes"/>
      <point x="579" y="862"/>
      <point x="609" y="832"/>
      <point x="609" y="796" type="curve" smooth="yes"/>
      <point x="609" y="762"/>
      <point x="578" y="732"/>
      <point x="543" y="732" type="curve" smooth="yes"/>
      <point x="509" y="732"/>
      <point x="479" y="762"/>
      <point x="479" y="796" type="curve" smooth="yes"/>
      <point x="479" y="832"/>
      <point x="508" y="862"/>
    </contour>
    <contour>
      <point x="624" y="1004" type="line"/>
      <point x="608" y="934" type="line"/>
      <point x="282" y="934" type="line"/>
      <point x="299" y="1004" type="line"/>
    </contour>
  </outline>
</glyph>
<glyph name="uni01E0" format="1">
  <advance width="691"/>
  <unicode hex="01E0"/>
  <outline>
    <contour>
      <point x="617" y="0" type="line"/>
      <point x="313" y="0" type="line"/>
      <point x="313" y="25" type="line"/>
      <point x="353" y="28"/>
      <point x="392" y="30"/>
      <point x="392" y="81" type="curve" smooth="yes"/>
      <point x="392" y="123"/>
      <point x="383" y="167"/>
      <point x="377" y="208" type="curve"/>
      <point x="162" y="208" type="line"/>
      <point x="146" y="180"/>
      <point x="88" y="97"/>
      <point x="88" y="60" type="curve" smooth="yes"/>
      <point x="88" y="27"/>
      <point x="129" y="25"/>
      <point x="153" y="25" type="curve"/>
      <point x="153" y="0" type="line"/>
      <point x="-43" y="0" type="line"/>
      <point x="-43" y="25" type="line"/>
      <point x="1" y="36"/>
      <point x="16" y="57"/>
      <point x="40" y="95" type="curve" smooth="yes"/>
      <point x="412" y="683" type="line"/>
      <point x="437" y="683" type="line"/>
      <point x="533" y="111" type="line" smooth="yes"/>
      <point x="545" y="41"/>
      <point x="547" y="32"/>
      <point x="617" y="25" type="curve"/>
    </contour>
    <contour>
      <point x="185" y="248" type="line"/>
      <point x="370" y="248" type="line"/>
      <point x="333" y="491" type="line"/>
    </contour>
    <contour>
      <point x="447" y="862" type="curve" smooth="yes"/>
      <point x="483" y="862"/>
      <point x="513" y="832"/>
      <point x="513" y="796" type="curve" smooth="yes"/>
      <point x="513" y="762"/>
      <point x="482" y="732"/>
      <point x="447" y="732" type="curve" smooth="yes"/>
      <point x="413" y="732"/>
      <point x="383" y="762"/>
      <point x="383" y="796" type="curve" smooth="yes"/>
      <point x="383" y="832"/>
      <point x="412" y="862"/>
    </contour>
    <contour>
      <point x="650" y="966" type="line"/>
      <point x="634" y="896" type="line"/>
      <point x="308" y="896" type="line"/>
      <point x="325" y="966" type="line"/>
    </contour>
  </outline>
</glyph>
<glyph name="Gcaron" format="1">
  <advance width="722"/>
  <unicode hex="01E6"/>
  <outline>
    <contour>
      <point x="706" y="304" type="line"/>
      <point x="645" y="301"/>
      <point x="641" y="276"/>
      <point x="627" y="222" type="curve" smooth="yes"/>
      <point x="579" y="41" type="line"/>
      <point x="499" y="3"/>
      <point x="411" y="-18"/>
      <point x="322" y="-18" type="curve" smooth="yes"/>
      <point x="156" y="-18"/>
      <point x="21" y="77"/>
      <point x="21" y="253" type="curve" smooth="yes"/>
      <point x="21" y="483"/>
      <point x="209" y="685"/>
      <point x="442" y="685" type="curve" smooth="yes"/>
      <point x="474" y="685"/>
      <point x="507" y="682"/>
      <point x="538" y="674" type="curve" smooth="yes"/>
      <point x="561" y="669"/>
      <point x="585" y="655"/>
      <point x="608" y="655" type="curve" smooth="yes"/>
      <point x="628" y="655"/>
      <point x="643" y="667"/>
      <point x="650" y="685" type="curve"/>
      <point x="681" y="685" type="line"/>
      <point x="630" y="464" type="line"/>
      <point x="601" y="468" type="line"/>
      <point x="601" y="566"/>
      <point x="570" y="649"/>
      <point x="458" y="649" type="curve" smooth="yes"/>
      <point x="267" y="649"/>
      <point x="177" y="353"/>
      <point x="177" y="201" type="curve" smooth="yes"/>
      <point x="177" y="97"/>
      <point x="230" y="20"/>
      <point x="338" y="20" type="curve" smooth="yes"/>
      <point x="372" y="20"/>
      <point x="418" y="27"/>
      <point x="439" y="56" type="curve" smooth="yes"/>
      <point x="449" y="70"/>
      <point x="493" y="240"/>
      <point x="493" y="262" type="curve" smooth="yes"/>
      <point x="493" y="304"/>
      <point x="451" y="302"/>
      <point x="419" y="304" type="curve"/>
      <point x="419" y="330" type="line"/>
      <point x="706" y="330" type="line"/>
    </contour>
    <contour>
      <point x="677" y="907" type="line"/>
      <point x="515" y="733" type="line"/>
      <point x="433" y="733" type="line"/>
      <point x="345" y="907" type="line"/>
      <point x="395" y="907" type="line"/>
      <point x="486" y="810" type="line"/>
      <point x="621" y="907" type="line"/>
    </contour>
  </outline>
</glyph>
<glyph name="uni01EC" format="1">
  <advance width="722"/>
  <unicode hex="01EC"/>
  <outline>
    <contour>
      <point x="675" y="830" type="line"/>
      <point x="659" y="760" type="line"/>
      <point x="333" y="760" type="line"/>
      <point x="350" y="830" type="line"/>
    </contour>
    <contour>
      <point x="360" y="-123" type="curve"/>
      <point x="382" y="-139" type="line"/>
      <point x="357" y="-185"/>
      <point x="309" y="-214"/>
      <point x="259" y="-214" type="curve" smooth="yes"/>
      <point x="198" y="-214"/>
      <point x="153" y="-180"/>
      <point x="153" y="-133" type="curve" smooth="yes"/>
      <point x="153" y="-84.4936"/>
      <point x="199.907" y="-36.8248"/>
      <point x="217.06" y="-13.7583" type="curve"/>
      <point x="109.488" y="5.62512"/>
      <point x="27" y="89.8913"/>
      <point x="27" y="207" type="curve" smooth="yes"/>
      <point x="27" y="430"/>
      <point x="211" y="685"/>
      <point x="449" y="685" type="curve" smooth="yes"/>
      <point x="592" y="685"/>
      <point x="691" y="588"/>
      <point x="691" y="444" type="curve" smooth="yes"/>
      <point x="691" y="225"/>
      <point x="493" y="-18"/>
      <point x="265" y="-18" type="curve" smooth="yes"/>
      <point x="259.503" y="-18"/>
      <point x="254.045" y="-17.8373"/>
      <point x="248.633" y="-17.5155" type="curve"/>
      <point x="243.641" y="-36.9141"/>
      <point x="237" y="-64.1826"/>
      <point x="237" y="-79" type="curve" smooth="yes"/>
      <point x="237" y="-120"/>
      <point x="259" y="-143"/>
      <point x="300" y="-143" type="curve" smooth="yes"/>
      <point x="321" y="-143"/>
      <point x="348" y="-130"/>
    </contour>
    <contour>
      <point x="547" y="526" type="curve" smooth="yes"/>
      <point x="547" y="593"/>
      <point x="518" y="651"/>
      <point x="442" y="651" type="curve" smooth="yes"/>
      <point x="274" y="651"/>
      <point x="171" y="284"/>
      <point x="171" y="150" type="curve" smooth="yes"/>
      <point x="171" y="79"/>
      <point x="195" y="16"/>
      <point x="275" y="16" type="curve" smooth="yes"/>
      <point x="445" y="16"/>
      <point x="547" y="391"/>
    </contour>
  </outline>
</glyph>
<glyph name="aeacute" format="1">
  <advance width="722"/>
  <unicode hex="01FD"/>
  <outline>
    <contour>
      <point x="402" y="516" type="line"/>
      <point x="353" y="516" type="line"/>
      <point x="475" y="647" type="line" smooth="yes"/>
      <point x="510" y="685"/>
      <point x="527" y="697"/>
      <point x="545" y="697" type="curve" smooth="yes"/>
      <point x="571" y="697"/>
      <point x="593" y="675"/>
      <point x="593" y="650" type="curve" smooth="yes"/>
      <point x="593" y="631"/>
      <point x="584" y="620"/>
      <point x="554" y="603" type="curve" smooth="yes"/>
    </contour>
    <contour>
      <point x="673" y="371" type="curve" smooth="yes"/>
      <point x="673" y="247"/>
      <point x="499" y="202"/>
      <point x="406" y="181" type="curve"/>
      <point x="403" y="165"/>
      <point x="401" y="149"/>
      <point x="401" y="133" type="curve" smooth="yes"/>
      <point x="401" y="91"/>
      <point x="420" y="50"/>
      <point x="468" y="50" type="curve" smooth="yes"/>
      <point x="522" y="50"/>
      <point x="567" y="94"/>
      <point x="591" y="139" type="curve"/>
      <point x="619" y="122" type="line"/>
      <point x="587" y="48"/>
      <point x="512" y="-13"/>
      <point x="430" y="-13" type="curve" smooth="yes"/>
      <point x="335" y="-13"/>
      <point x="298" y="29"/>
      <point x="282" y="116" type="curve"/>
      <point x="280" y="116" type="line"/>
      <point x="242" y="51"/>
      <point x="191" y="-12"/>
      <point x="108" y="-12" type="curve" smooth="yes"/>
      <point x="31" y="-12"/>
      <point x="-5" y="47"/>
      <point x="-5" y="119" type="curve" smooth="yes"/>
      <point x="-5" y="243"/>
      <point x="130" y="462"/>
      <point x="267" y="462" type="curve" smooth="yes"/>
      <point x="315" y="462"/>
      <point x="336" y="443"/>
      <point x="350" y="400" type="curve"/>
      <point x="353" y="400" type="line"/>
      <point x="370" y="454" type="line"/>
      <point x="473" y="459" type="line"/>
      <point x="455" y="400" type="line"/>
      <point x="457" y="398" type="line"/>
      <point x="488" y="438"/>
      <point x="523" y="459"/>
      <point x="574" y="459" type="curve" smooth="yes"/>
      <point x="630" y="459"/>
      <point x="673" y="431"/>
    </contour>
    <contour>
      <point x="333" y="356" type="curve" smooth="yes"/>
      <point x="333" y="390"/>
      <point x="321" y="419"/>
      <point x="282" y="419" type="curve" smooth="yes"/>
      <point x="196" y="419"/>
      <point x="121" y="188"/>
      <point x="121" y="118" type="curve" smooth="yes"/>
      <point x="121" y="87"/>
      <point x="136" y="58"/>
      <point x="171" y="58" type="curve" smooth="yes"/>
      <point x="258" y="58"/>
      <point x="333" y="284"/>
    </contour>
    <contour>
      <point x="418" y="231" type="curve" smooth="yes"/>
      <point x="413" y="214" type="line"/>
      <point x="441" y="218"/>
      <point x="463" y="227"/>
      <point x="494" y="246" type="curve" smooth="yes"/>
      <point x="552" y="282"/>
      <point x="583" y="331"/>
      <point x="583" y="388" type="curve" smooth="yes"/>
      <point x="583" y="416"/>
      <point x="573" y="429"/>
      <point x="550" y="429" type="curve" smooth="yes"/>
      <point x="500" y="429"/>
      <point x="458" y="365"/>
    </contour>
  </outline>
</glyph>
<glyph name="oslashacute" format="1">
  <advance width="500"/>
  <unicode hex="01FF"/>
  <outline>
    <contour>
      <point x="272" y="516" type="line"/>
      <point x="223" y="516" type="line"/>
      <point x="345" y="647" type="line" smooth="yes"/>
      <point x="380" y="685"/>
      <point x="397" y="697"/>
      <point x="415" y="697" type="curve" smooth="yes"/>
      <point x="441" y="697"/>
      <point x="463" y="675"/>
      <point x="463" y="650" type="curve" smooth="yes"/>
      <point x="463" y="631"/>
      <point x="454" y="620"/>
      <point x="424" y="603" type="curve" smooth="yes"/>
    </contour>
    <contour>
      <point x="441" y="308" type="curve" smooth="yes"/>
      <point x="441" y="158"/>
      <point x="317" y="-13"/>
      <point x="157" y="-13" type="curve" smooth="yes"/>
      <point x="140" y="-13"/>
      <point x="122" y="-10"/>
      <point x="106" y="-5" type="curve"/>
      <point x="42" y="-119" type="line"/>
      <point x="2" y="-119" type="line"/>
      <point x="74" y="7" type="line"/>
      <point x="24" y="32"/>
      <point x="-3" y="81"/>
      <point x="-3" y="136" type="curve" smooth="yes"/>
      <point x="-3" y="287"/>
      <point x="123" y="462"/>
      <point x="284" y="462" type="curve" smooth="yes"/>
      <point x="299" y="462"/>
      <point x="314" y="460"/>
      <point x="328" y="456" type="curve"/>
      <point x="387" y="560" type="line"/>
      <point x="424" y="560" type="line"/>
      <point x="359" y="444" type="line"/>
      <point x="416" y="419"/>
      <point x="441" y="368"/>
    </contour>
    <contour>
      <point x="307" y="419" type="line"/>
      <point x="298" y="429"/>
      <point x="287" y="433"/>
      <point x="274" y="433" type="curve" smooth="yes"/>
      <point x="170" y="433"/>
      <point x="116" y="163"/>
      <point x="116" y="82" type="curve"/>
      <point x="118" y="82" type="line"/>
    </contour>
    <contour>
      <point x="322" y="369" type="curve"/>
      <point x="321" y="377" type="line"/>
      <point x="128" y="34" type="line"/>
      <point x="137" y="21"/>
      <point x="153" y="16"/>
      <point x="168" y="16" type="curve" smooth="yes"/>
      <point x="264" y="16"/>
      <point x="322" y="294"/>
    </contour>
  </outline>
</glyph>
<glyph name="uni0200" format="1">
  <advance width="691"/>
  <unicode hex="0200"/>
  <outline>
    <contour>
      <point x="395" y="723" type="line"/>
      <point x="350" y="723" type="line"/>
      <point x="217" y="812" type="line" smooth="yes"/>
      <point x="195" y="827"/>
      <point x="183" y="844"/>
      <point x="183" y="859" type="curve" smooth="yes"/>
      <point x="183" y="883"/>
      <point x="204" y="904"/>
      <point x="228" y="904" type="curve" smooth="yes"/>
      <point x="247" y="904"/>
      <point x="268" y="891"/>
      <point x="284" y="870" type="curve" smooth="yes"/>
    </contour>
    <contour>
      <point x="584" y="723" type="line"/>
      <point x="539" y="723" type="line"/>
      <point x="406" y="812" type="line" smooth="yes"/>
      <point x="384" y="827"/>
      <point x="372" y="844"/>
      <point x="372" y="859" type="curve" smooth="yes"/>
      <point x="372" y="883"/>
      <point x="393" y="904"/>
      <point x="417" y="904" type="curve" smooth="yes"/>
      <point x="436" y="904"/>
      <point x="457" y="891"/>
      <point x="473" y="870" type="curve" smooth="yes"/>
    </contour>
    <contour>
      <point x="617" y="0" type="line"/>
      <point x="313" y="0" type="line"/>
      <point x="313" y="25" type="line"/>
      <point x="353" y="28"/>
      <point x="392" y="30"/>
      <point x="392" y="81" type="curve" smooth="yes"/>
      <point x="392" y="123"/>
      <point x="383" y="167"/>
      <point x="377" y="208" type="curve"/>
      <point x="162" y="208" type="line"/>
      <point x="146" y="180"/>
      <point x="88" y="97"/>
      <point x="88" y="60" type="curve" smooth="yes"/>
      <point x="88" y="27"/>
      <point x="129" y="25"/>
      <point x="153" y="25" type="curve"/>
      <point x="153" y="0" type="line"/>
      <point x="-43" y="0" type="line"/>
      <point x="-43" y="25" type="line"/>
      <point x="1" y="36"/>
      <point x="16" y="57"/>
      <point x="40" y="95" type="curve" smooth="yes"/>
      <point x="412" y="683" type="line"/>
      <point x="437" y="683" type="line"/>
      <point x="533" y="111" type="line" smooth="yes"/>
      <point x="545" y="41"/>
      <point x="547" y="32"/>
      <point x="617" y="25" type="curve"/>
    </contour>
    <contour>
      <point x="185" y="248" type="line"/>
      <point x="370" y="248" type="line"/>
      <point x="333" y="491" type="line"/>
    </contour>
  </outline>
</glyph>
<glyph name="uni0202" format="1">
  <advance width="691"/>
  <unicode hex="0202"/>
  <outline>
    <contour>
      <point x="569" y="723" type="curve"/>
      <point x="525" y="723" type="line"/>
      <point x="526" y="783"/>
      <point x="500" y="810"/>
      <point x="440" y="810" type="curve" smooth="yes"/>
      <point x="377" y="810"/>
      <point x="334" y="782"/>
      <point x="310" y="723" type="curve"/>
      <point x="266" y="723" type="line"/>
      <point x="290" y="818"/>
      <point x="356" y="886"/>
      <point x="458" y="886" type="curve" smooth="yes"/>
      <point x="533" y="886"/>
      <point x="574" y="848"/>
      <point x="574" y="772" type="curve" smooth="yes"/>
      <point x="574" y="756"/>
      <point x="572" y="739"/>
    </contour>
    <contour>
      <point x="617" y="0" type="line"/>
      <point x="313" y="0" type="line"/>
      <point x="313" y="25" type="line"/>
      <point x="353" y="28"/>
      <point x="392" y="30"/>
      <point x="392" y="81" type="curve" smooth="yes"/>
      <point x="392" y="123"/>
      <point x="383" y="167"/>
      <point x="377" y="208" type="curve"/>
      <point x="162" y="208" type="line"/>
      <point x="146" y="180"/>
      <point x="88" y="97"/>
      <point x="88" y="60" type="curve" smooth="yes"/>
      <point x="88" y="27"/>
      <point x="129" y="25"/>
      <point x="153" y="25" type="curve"/>
      <point x="153" y="0" type="line"/>
      <point x="-43" y="0" type="line"/>
      <point x="-43" y="25" type="line"/>
      <point x="1" y="36"/>
      <point x="16" y="57"/>
      <point x="40" y="95" type="curve" smooth="yes"/>
      <point x="412" y="683" type="line"/>
      <point x="437" y="683" type="line"/>
      <point x="533" y="111" type="line" smooth="yes"/>
      <point x="545" y="41"/>
      <point x="547" y="32"/>
      <point x="617" y="25" type="curve"/>
    </contour>
    <contour>
      <point x="185" y="248" type="line"/>
      <point x="370" y="248" type="line"/>
      <point x="333" y="491" type="line"/>
    </contour>
  </outline>
</glyph>
<glyph name="uni020E" format="1">
  <advance width="722"/>
  <unicode hex="020E"/>
  <outline>
    <contour>
      <point x="627" y="723" type="curve"/>
      <point x="583" y="723" type="line"/>
      <point x="584" y="783"/>
      <point x="558" y="810"/>
      <point x="498" y="810" type="curve" smooth="yes"/>
      <point x="435" y="810"/>
      <point x="392" y="782"/>
      <point x="368" y="723" type="curve"/>
      <point x="324" y="723" type="line"/>
      <point x="348" y="818"/>
      <point x="414" y="886"/>
      <point x="516" y="886" type="curve" smooth="yes"/>
      <point x="591" y="886"/>
      <point x="632" y="848"/>
      <point x="632" y="772" type="curve" smooth="yes"/>
      <point x="632" y="756"/>
      <point x="630" y="739"/>
    </contour>
    <contour>
      <point x="691" y="444" type="curve" smooth="yes"/>
      <point x="691" y="225"/>
      <point x="493" y="-18"/>
      <point x="265" y="-18" type="curve" smooth="yes"/>
      <point x="135" y="-18"/>
      <point x="27" y="73"/>
      <point x="27" y="207" type="curve" smooth="yes"/>
      <point x="27" y="430"/>
      <point x="211" y="685"/>
      <point x="449" y="685" type="curve" smooth="yes"/>
      <point x="592" y="685"/>
      <point x="691" y="588"/>
    </contour>
    <contour>
      <point x="547" y="526" type="curve" smooth="yes"/>
      <point x="547" y="593"/>
      <point x="518" y="651"/>
      <point x="442" y="651" type="curve" smooth="yes"/>
      <point x="274" y="651"/>
      <point x="171" y="284"/>
      <point x="171" y="150" type="curve" smooth="yes"/>
      <point x="171" y="79"/>
      <point x="195" y="16"/>
      <point x="275" y="16" type="curve" smooth="yes"/>
      <point x="445" y="16"/>
      <point x="547" y="391"/>
    </contour>
  </outline>
</glyph>
<glyph name="uni0210" format="1">
  <advance width="688"/>
  <unicode hex="0210"/>
  <outline>
    <contour>
      <point x="355" y="723" type="line"/>
      <point x="310" y="723" type="line"/>
      <point x="177" y="812" type="line" smooth="yes"/>
      <point x="155" y="827"/>
      <point x="143" y="844"/>
      <point x="143" y="859" type="curve" smooth="yes"/>
      <point x="143" y="883"/>
      <point x="164" y="904"/>
      <point x="188" y="904" type="curve" smooth="yes"/>
      <point x="207" y="904"/>
      <point x="228" y="891"/>
      <point x="244" y="870" type="curve" smooth="yes"/>
    </contour>
    <contour>
      <point x="544" y="723" type="line"/>
      <point x="499" y="723" type="line"/>
      <point x="366" y="812" type="line" smooth="yes"/>
      <point x="344" y="827"/>
      <point x="332" y="844"/>
      <point x="332" y="859" type="curve" smooth="yes"/>
      <point x="332" y="883"/>
      <point x="353" y="904"/>
      <point x="377" y="904" type="curve" smooth="yes"/>
      <point x="396" y="904"/>
      <point x="417" y="891"/>
      <point x="433" y="870" type="curve" smooth="yes"/>
    </contour>
    <contour>
      <point x="477" y="542" type="curve" smooth="yes"/>
      <point x="477" y="603"/>
      <point x="445" y="637"/>
      <point x="383" y="637" type="curve" smooth="yes"/>
      <point x="353" y="637"/>
      <point x="345" y="619"/>
      <point x="338" y="593" type="curve" smooth="yes"/>
      <point x="278" y="363" type="line"/>
      <point x="400" y="363"/>
      <point x="477" y="409"/>
    </contour>
    <contour>
      <point x="189" y="607" type="curve" smooth="yes"/>
      <point x="189" y="635"/>
      <point x="169" y="636"/>
      <point x="116" y="644" type="curve"/>
      <point x="116" y="669" type="line"/>
      <point x="392" y="669" type="line" smooth="yes"/>
      <point x="550" y="669"/>
      <point x="628" y="622"/>
      <point x="628" y="526" type="curve" smooth="yes"/>
      <point x="628" y="394"/>
      <point x="496" y="352"/>
      <point x="436" y="343" type="curve"/>
      <point x="519" y="97" type="line" smooth="yes"/>
      <point x="539" y="37"/>
      <point x="551" y="30"/>
      <point x="607" y="25" type="curve"/>
      <point x="607" y="0" type="line"/>
      <point x="405" y="0" type="line"/>
      <point x="298" y="331" type="line"/>
      <point x="269" y="331" type="line"/>
      <point x="214" y="138" type="line" smooth="yes"/>
      <point x="205" y="107"/>
      <point x="200" y="81"/>
      <point x="200" y="67" type="curve" smooth="yes"/>
      <point x="200" y="37"/>
      <point x="214" y="29"/>
      <point x="272" y="25" type="curve"/>
      <point x="272" y="0" type="line"/>
      <point x="-24" y="0" type="line"/>
      <point x="-24" y="25" type="line"/>
      <point x="25" y="31"/>
      <point x="42" y="45"/>
      <point x="56" y="97" type="curve" smooth="yes"/>
      <point x="179" y="546" type="line" smooth="yes"/>
      <point x="184" y="563"/>
      <point x="189" y="595"/>
    </contour>
  </outline>
</glyph>
<glyph name="uni0214" format="1">
  <advance width="722"/>
  <unicode hex="0214"/>
  <outline>
    <contour>
      <point x="438" y="723" type="line"/>
      <point x="393" y="723" type="line"/>
      <point x="260" y="812" type="line" smooth="yes"/>
      <point x="238" y="827"/>
      <point x="226" y="844"/>
      <point x="226" y="859" type="curve" smooth="yes"/>
      <point x="226" y="883"/>
      <point x="247" y="904"/>
      <point x="271" y="904" type="curve" smooth="yes"/>
      <point x="290" y="904"/>
      <point x="311" y="891"/>
      <point x="327" y="870" type="curve" smooth="yes"/>
    </contour>
    <contour>
      <point x="627" y="723" type="line"/>
      <point x="582" y="723" type="line"/>
      <point x="449" y="812" type="line" smooth="yes"/>
      <point x="427" y="827"/>
      <point x="415" y="844"/>
      <point x="415" y="859" type="curve" smooth="yes"/>
      <point x="415" y="883"/>
      <point x="436" y="904"/>
      <point x="460" y="904" type="curve" smooth="yes"/>
      <point x="479" y="904"/>
      <point x="500" y="891"/>
      <point x="516" y="870" type="curve" smooth="yes"/>
    </contour>
    <contour>
      <point x="744" y="669" type="line"/>
      <point x="744" y="644" type="line"/>
      <point x="689" y="633"/>
      <point x="680" y="623"/>
      <point x="642" y="491" type="curve" smooth="yes"/>
      <point x="576" y="263" type="line" smooth="yes"/>
      <point x="545" y="155"/>
      <point x="521" y="101"/>
      <point x="487" y="62" type="curve" smooth="yes"/>
      <point x="442" y="9"/>
      <point x="375" y="-18"/>
      <point x="290" y="-18" type="curve" smooth="yes"/>
      <point x="159" y="-18"/>
      <point x="67" y="50"/>
      <point x="67" y="148" type="curve" smooth="yes"/>
      <point x="67" y="181"/>
      <point x="79" y="243"/>
      <point x="100" y="323" type="curve" smooth="yes"/>
      <point x="156" y="529" type="line" smooth="yes"/>
      <point x="165" y="562"/>
      <point x="171" y="593"/>
      <point x="171" y="605" type="curve" smooth="yes"/>
      <point x="171" y="627"/>
      <point x="161" y="635"/>
      <point x="129" y="640" type="curve" smooth="yes"/>
      <point x="125" y="640"/>
      <point x="112" y="642"/>
      <point x="98" y="644" type="curve"/>
      <point x="98" y="669" type="line"/>
      <point x="409" y="669" type="line"/>
      <point x="409" y="644" type="line"/>
      <point x="347" y="641"/>
      <point x="332" y="629"/>
      <point x="315" y="572" type="curve" smooth="yes"/>
      <point x="233" y="272" type="line" smooth="yes"/>
      <point x="208" y="181"/>
      <point x="205" y="166"/>
      <point x="205" y="139" type="curve" smooth="yes"/>
      <point x="205" y="76"/>
      <point x="251" y="38"/>
      <point x="327" y="38" type="curve" smooth="yes"/>
      <point x="382" y="38"/>
      <point x="426" y="58"/>
      <point x="460" y="98" type="curve" smooth="yes"/>
      <point x="490" y="135"/>
      <point x="512" y="185"/>
      <point x="539" y="282" type="curve" smooth="yes"/>
      <point x="597" y="491" type="line" smooth="yes"/>
      <point x="608" y="532"/>
      <point x="616" y="571"/>
      <point x="616" y="588" type="curve" smooth="yes"/>
      <point x="616" y="623"/>
      <point x="593" y="639"/>
      <point x="536" y="644" type="curve"/>
      <point x="536" y="669" type="line"/>
    </contour>
  </outline>
</glyph>
<glyph name="uni0216" format="1">
  <advance width="722"/>
  <unicode hex="0216"/>
  <outline>
    <contour>
      <point x="612" y="723" type="curve"/>
      <point x="568" y="723" type="line"/>
      <point x="569" y="783"/>
      <point x="543" y="810"/>
      <point x="483" y="810" type="curve" smooth="yes"/>
      <point x="420" y="810"/>
      <point x="377" y="782"/>
      <point x="353" y="723" type="curve"/>
      <point x="309" y="723" type="line"/>
      <point x="333" y="818"/>
      <point x="399" y="886"/>
      <point x="501" y="886" type="curve" smooth="yes"/>
      <point x="576" y="886"/>
      <point x="617" y="848"/>
      <point x="617" y="772" type="curve" smooth="yes"/>
      <point x="617" y="756"/>
      <point x="615" y="739"/>
    </contour>
    <contour>
      <point x="744" y="669" type="line"/>
      <point x="744" y="644" type="line"/>
      <point x="689" y="633"/>
      <point x="680" y="623"/>
      <point x="642" y="491" type="curve" smooth="yes"/>
      <point x="576" y="263" type="line" smooth="yes"/>
      <point x="545" y="155"/>
      <point x="521" y="101"/>
      <point x="487" y="62" type="curve" smooth="yes"/>
      <point x="442" y="9"/>
      <point x="375" y="-18"/>
      <point x="290" y="-18" type="curve" smooth="yes"/>
      <point x="159" y="-18"/>
      <point x="67" y="50"/>
      <point x="67" y="148" type="curve" smooth="yes"/>
      <point x="67" y="181"/>
      <point x="79" y="243"/>
      <point x="100" y="323" type="curve" smooth="yes"/>
      <point x="156" y="529" type="line" smooth="yes"/>
      <point x="165" y="562"/>
      <point x="171" y="593"/>
      <point x="171" y="605" type="curve" smooth="yes"/>
      <point x="171" y="627"/>
      <point x="161" y="635"/>
      <point x="129" y="640" type="curve" smooth="yes"/>
      <point x="125" y="640"/>
      <point x="112" y="642"/>
      <point x="98" y="644" type="curve"/>
      <point x="98" y="669" type="line"/>
      <point x="409" y="669" type="line"/>
      <point x="409" y="644" type="line"/>
      <point x="347" y="641"/>
      <point x="332" y="629"/>
      <point x="315" y="572" type="curve" smooth="yes"/>
      <point x="233" y="272" type="line" smooth="yes"/>
      <point x="208" y="181"/>
      <point x="205" y="166"/>
      <point x="205" y="139" type="curve" smooth="yes"/>
      <point x="205" y="76"/>
      <point x="251" y="38"/>
      <point x="327" y="38" type="curve" smooth="yes"/>
      <point x="382" y="38"/>
      <point x="426" y="58"/>
      <point x="460" y="98" type="curve" smooth="yes"/>
      <point x="490" y="135"/>
      <point x="512" y="185"/>
      <point x="539" y="282" type="curve" smooth="yes"/>
      <point x="597" y="491" type="line" smooth="yes"/>
      <point x="608" y="532"/>
      <point x="616" y="571"/>
      <point x="616" y="588" type="curve" smooth="yes"/>
      <point x="616" y="623"/>
      <point x="593" y="639"/>
      <point x="536" y="644" type="curve"/>
      <point x="536" y="669" type="line"/>
    </contour>
  </outline>
</glyph>
<glyph name="uni0218" format="1">
  <advance width="556"/>
  <unicode hex="0218"/>
  <outline>
    <contour>
      <point x="119" y="-234" type="curve"/>
      <point x="112" y="-218" type="line"/>
      <point x="151" y="-208"/>
      <point x="185" y="-187"/>
      <point x="185" y="-158" type="curve" smooth="yes"/>
      <point x="185" y="-150"/>
      <point x="181" y="-144"/>
      <point x="173" y="-141" type="curve" smooth="yes"/>
      <point x="154" y="-134"/>
      <point x="128" y="-121"/>
      <point x="128" y="-93" type="curve" smooth="yes"/>
      <point x="128" y="-60"/>
      <point x="152" y="-40"/>
      <point x="181" y="-40" type="curve" smooth="yes"/>
      <point x="222" y="-40"/>
      <point x="249" y="-70"/>
      <point x="249" y="-112" type="curve" smooth="yes"/>
      <point x="249" y="-176"/>
      <point x="183" y="-218"/>
    </contour>
    <contour>
      <point x="526" y="681" type="line"/>
      <point x="486" y="480" type="line"/>
      <point x="459" y="484" type="line"/>
      <point x="450" y="567"/>
      <point x="427" y="650"/>
      <point x="326" y="650" type="curve" smooth="yes"/>
      <point x="260" y="650"/>
      <point x="223" y="606"/>
      <point x="223" y="543" type="curve" smooth="yes"/>
      <point x="223" y="426"/>
      <point x="468" y="375"/>
      <point x="468" y="194" type="curve" smooth="yes"/>
      <point x="468" y="48"/>
      <point x="371" y="-18"/>
      <point x="233" y="-18" type="curve" smooth="yes"/>
      <point x="172" y="-18"/>
      <point x="115" y="17"/>
      <point x="72" y="17" type="curve" smooth="yes"/>
      <point x="47" y="17"/>
      <point x="40" y="3"/>
      <point x="32" y="-18" type="curve"/>
      <point x="2" y="-18" type="line"/>
      <point x="38" y="206" type="line"/>
      <point x="67" y="204" type="line"/>
      <point x="70" y="106"/>
      <point x="113" y="16"/>
      <point x="222" y="16" type="curve" smooth="yes"/>
      <point x="294" y="16"/>
      <point x="347" y="70"/>
      <point x="347" y="142" type="curve" smooth="yes"/>
      <point x="347" y="273"/>
      <point x="102" y="326"/>
      <point x="102" y="488" type="curve" smooth="yes"/>
      <point x="102" y="607"/>
      <point x="191" y="685"/>
      <point x="307" y="685" type="curve" smooth="yes"/>
      <point x="358" y="685"/>
      <point x="404" y="655"/>
      <point x="452" y="655" type="curve" smooth="yes"/>
      <point x="470" y="655"/>
      <point x="487" y="665"/>
      <point x="496" y="681" type="curve"/>
    </contour>
  </outline>
</glyph>
<glyph name="uni021A" format="1">
  <advance width="611"/>
  <unicode hex="021A"/>
  <outline>
    <contour>
      <point x="650" y="669" type="line"/>
      <point x="614" y="477" type="line"/>
      <point x="587" y="479" type="line"/>
      <point x="582" y="590"/>
      <point x="543" y="633"/>
      <point x="449" y="634" type="curve"/>
      <point x="309" y="128" type="line" smooth="yes"/>
      <point x="302" y="102"/>
      <point x="298" y="81"/>
      <point x="298" y="66" type="curve" smooth="yes"/>
      <point x="298" y="34"/>
      <point x="311" y="28"/>
      <point x="381" y="25" type="curve"/>
      <point x="381" y="0" type="line"/>
      <point x="50" y="0" type="line"/>
      <point x="50" y="25" type="line"/>
      <point x="64" y="25" type="line" smooth="yes"/>
      <point x="115" y="25"/>
      <point x="141" y="46"/>
      <point x="155" y="97" type="curve" smooth="yes"/>
      <point x="303" y="634" type="line"/>
      <point x="201" y="632"/>
      <point x="138" y="591"/>
      <point x="86" y="491" type="curve"/>
      <point x="61" y="498" type="line"/>
      <point x="99" y="669" type="line"/>
    </contour>
    <contour>
      <point x="129" y="-234" type="curve"/>
      <point x="122" y="-218" type="line"/>
      <point x="161" y="-208"/>
      <point x="195" y="-187"/>
      <point x="195" y="-158" type="curve" smooth="yes"/>
      <point x="195" y="-150"/>
      <point x="191" y="-144"/>
      <point x="183" y="-141" type="curve" smooth="yes"/>
      <point x="164" y="-134"/>
      <point x="138" y="-121"/>
      <point x="138" y="-93" type="curve" smooth="yes"/>
      <point x="138" y="-60"/>
      <point x="162" y="-40"/>
      <point x="191" y="-40" type="curve" smooth="yes"/>
      <point x="232" y="-40"/>
      <point x="259" y="-70"/>
      <point x="259" y="-112" type="curve" smooth="yes"/>
      <point x="259" y="-176"/>
      <point x="193" y="-218"/>
    </contour>
  </outline>
</glyph>
<glyph name="uni021B" format="1">
  <advance width="278"/>
  <unicode hex="021B"/>
  <outline>
    <contour>
      <point x="281" y="407" type="line"/>
      <point x="198" y="407" type="line"/>
      <point x="182" y="349"/>
      <point x="111" y="120"/>
      <point x="111" y="76" type="curve" smooth="yes"/>
      <point x="111" y="69"/>
      <point x="119" y="61"/>
      <point x="126" y="61" type="curve" smooth="yes"/>
      <point x="151" y="61"/>
      <point x="191" y="121"/>
      <point x="203" y="141" type="curve"/>
      <point x="225" y="127" type="line"/>
      <point x="188" y="69"/>
      <point x="139" y="-9"/>
      <point x="61" y="-9" type="curve" smooth="yes"/>
      <point x="18" y="-9"/>
      <point x="-11" y="15"/>
      <point x="-11" y="58" type="curve" smooth="yes"/>
      <point x="-11" y="110"/>
      <point x="64" y="345"/>
      <point x="81" y="407" type="curve"/>
      <point x="30" y="407" type="line"/>
      <point x="30" y="442" type="line"/>
      <point x="111" y="473"/>
      <point x="166" y="521"/>
      <point x="213" y="594" type="curve"/>
      <point x="248" y="594" type="line"/>
      <point x="209" y="449" type="line"/>
      <point x="281" y="449" type="line"/>
    </contour>
    <contour>
      <point x="-21" y="-234" type="curve"/>
      <point x="-28" y="-218" type="line"/>
      <point x="11" y="-208"/>
      <point x="45" y="-187"/>
      <point x="45" y="-158" type="curve" smooth="yes"/>
      <point x="45" y="-150"/>
      <point x="41" y="-144"/>
      <point x="33" y="-141" type="curve" smooth="yes"/>
      <point x="14" y="-134"/>
      <point x="-12" y="-121"/>
      <point x="-12" y="-93" type="curve" smooth="yes"/>
      <point x="-12" y="-60"/>
      <point x="12" y="-40"/>
      <point x="41" y="-40" type="curve" smooth="yes"/>
      <point x="82" y="-40"/>
      <point x="109" y="-70"/>
      <point x="109" y="-112" type="curve" smooth="yes"/>
      <point x="109" y="-176"/>
      <point x="43" y="-218"/>
    </contour>
  </outline>
</glyph>
<glyph name="uni0222" format="1">
  <advance width="568"/>
  <unicode hex="0222"/>
  <outline>
    <contour>
      <point x="342" y="685" type="curve"/>
      <point x="346" y="670" type="line"/>
      <point x="269" y="670"/>
      <point x="232" y="619"/>
      <point x="232" y="563" type="curve" smooth="yes"/>
      <point x="232" y="484"/>
      <point x="320" y="437"/>
      <point x="358" y="413" type="curve"/>
      <point x="473" y="461"/>
      <point x="502" y="517"/>
      <point x="502" y="584" type="curve" smooth="yes"/>
      <point x="502" y="630"/>
      <point x="454" y="660"/>
      <point x="419" y="660" type="curve"/>
      <point x="422" y="669" type="line"/>
      <point x="552" y="669" type="line"/>
      <point x="570" y="659"/>
      <point x="604" y="628"/>
      <point x="604" y="588" type="curve" smooth="yes"/>
      <point x="604" y="470"/>
      <point x="438" y="415"/>
      <point x="384" y="394" type="curve"/>
      <point x="443" y="357"/>
      <point x="482" y="304"/>
      <point x="482" y="238" type="curve" smooth="yes"/>
      <point x="482" y="92"/>
      <point x="358" y="-18"/>
      <point x="199" y="-18" type="curve" smooth="yes"/>
      <point x="100" y="-18"/>
      <point x="28" y="35"/>
      <point x="28" y="136" type="curve" smooth="yes"/>
      <point x="28" y="237"/>
      <point x="138" y="320"/>
      <point x="214" y="344" type="curve"/>
      <point x="145" y="384"/>
      <point x="88" y="440"/>
      <point x="88" y="522" type="curve" smooth="yes"/>
      <point x="88" y="613"/>
      <point x="197" y="685"/>
    </contour>
    <contour>
      <point x="243" y="325" type="curve"/>
      <point x="167" y="285"/>
      <point x="126" y="223"/>
      <point x="126" y="128" type="curve" smooth="yes"/>
      <point x="126" y="48"/>
      <point x="177" y="15"/>
      <point x="228" y="15" type="curve" smooth="yes"/>
      <point x="314" y="15"/>
      <point x="362" y="95"/>
      <point x="362" y="148" type="curve" smooth="yes"/>
      <point x="362" y="236"/>
      <point x="322" y="286"/>
    </contour>
  </outline>
</glyph>
<glyph name="uni0224" format="1">
  <advance width="611"/>
  <unicode hex="0224"/>
  <outline>
    <contour>
      <point x="156" y="36" type="line"/>
      <point x="391" y="36" type="line" smooth="yes"/>
      <point x="470" y="36"/>
      <point x="502" y="0"/>
      <point x="502" y="-47" type="curve" smooth="yes"/>
      <point x="502" y="-136"/>
      <point x="391" y="-197"/>
      <point x="355" y="-212" type="curve"/>
      <point x="333" y="-196" type="line"/>
      <point x="380" y="-169"/>
      <point x="407" y="-128"/>
      <point x="407" y="-76" type="curve" smooth="yes"/>
      <point x="407" y="-31"/>
      <point x="387" y="0"/>
      <point x="324" y="0" type="curve" smooth="yes"/>
      <point x="-11" y="0" type="line"/>
      <point x="-11" y="29" type="line"/>
      <point x="423" y="634" type="line"/>
      <point x="345" y="634" type="line" smooth="yes"/>
      <point x="235" y="634"/>
      <point x="172" y="597"/>
      <point x="93" y="487" type="curve"/>
      <point x="65" y="491" type="line"/>
      <point x="122" y="669" type="line"/>
      <point x="590" y="669" type="line"/>
      <point x="590" y="640" type="line"/>
    </contour>
  </outline>
</glyph>
<glyph name="uni022A" format="1">
  <advance width="722"/>
  <unicode hex="022A"/>
  <outline>
    <contour>
      <point x="691" y="444" type="curve" smooth="yes"/>
      <point x="691" y="225"/>
      <point x="493" y="-18"/>
      <point x="265" y="-18" type="curve" smooth="yes"/>
      <point x="135" y="-18"/>
      <point x="27" y="73"/>
      <point x="27" y="207" type="curve" smooth="yes"/>
      <point x="27" y="430"/>
      <point x="211" y="685"/>
      <point x="449" y="685" type="curve" smooth="yes"/>
      <point x="592" y="685"/>
      <point x="691" y="588"/>
    </contour>
    <contour>
      <point x="547" y="526" type="curve" smooth="yes"/>
      <point x="547" y="593"/>
      <point x="518" y="651"/>
      <point x="442" y="651" type="curve" smooth="yes"/>
      <point x="274" y="651"/>
      <point x="171" y="284"/>
      <point x="171" y="150" type="curve" smooth="yes"/>
      <point x="171" y="79"/>
      <point x="195" y="16"/>
      <point x="275" y="16" type="curve" smooth="yes"/>
      <point x="445" y="16"/>
      <point x="547" y="391"/>
    </contour>
    <contour>
      <point x="389" y="862" type="curve" smooth="yes"/>
      <point x="425" y="862"/>
      <point x="455" y="832"/>
      <point x="455" y="796" type="curve" smooth="yes"/>
      <point x="455" y="762"/>
      <point x="424" y="732"/>
      <point x="389" y="732" type="curve" smooth="yes"/>
      <point x="355" y="732"/>
      <point x="325" y="762"/>
      <point x="325" y="796" type="curve" smooth="yes"/>
      <point x="325" y="832"/>
      <point x="354" y="862"/>
    </contour>
    <contour>
      <point x="601" y="862" type="curve" smooth="yes"/>
      <point x="637" y="862"/>
      <point x="667" y="832"/>
      <point x="667" y="796" type="curve" smooth="yes"/>
      <point x="667" y="762"/>
      <point x="636" y="732"/>
      <point x="601" y="732" type="curve" smooth="yes"/>
      <point x="567" y="732"/>
      <point x="537" y="762"/>
      <point x="537" y="796" type="curve" smooth="yes"/>
      <point x="537" y="832"/>
      <point x="566" y="862"/>
    </contour>
    <contour>
      <point x="705" y="1007" type="line"/>
      <point x="689" y="937" type="line"/>
      <point x="363" y="937" type="line"/>
      <point x="380" y="1007" type="line"/>
    </contour>
  </outline>
</glyph>
<glyph name="uni022C" format="1">
  <advance width="722"/>
  <unicode hex="022C"/>
  <outline>
    <contour>
      <point x="691" y="444" type="curve" smooth="yes"/>
      <point x="691" y="225"/>
      <point x="493" y="-18"/>
      <point x="265" y="-18" type="curve" smooth="yes"/>
      <point x="135" y="-18"/>
      <point x="27" y="73"/>
      <point x="27" y="207" type="curve" smooth="yes"/>
      <point x="27" y="430"/>
      <point x="211" y="685"/>
      <point x="449" y="685" type="curve" smooth="yes"/>
      <point x="592" y="685"/>
      <point x="691" y="588"/>
    </contour>
    <contour>
      <point x="547" y="526" type="curve" smooth="yes"/>
      <point x="547" y="593"/>
      <point x="518" y="651"/>
      <point x="442" y="651" type="curve" smooth="yes"/>
      <point x="274" y="651"/>
      <point x="171" y="284"/>
      <point x="171" y="150" type="curve" smooth="yes"/>
      <point x="171" y="79"/>
      <point x="195" y="16"/>
      <point x="275" y="16" type="curve" smooth="yes"/>
      <point x="445" y="16"/>
      <point x="547" y="391"/>
    </contour>
    <contour>
      <point x="636" y="862" type="curve"/>
      <point x="677" y="862" type="line"/>
      <point x="655" y="779"/>
      <point x="620" y="743"/>
      <point x="560" y="743" type="curve" smooth="yes"/>
      <point x="541" y="743"/>
      <point x="529" y="746"/>
      <point x="503" y="756" type="curve" smooth="yes"/>
      <point x="444" y="779" type="line" smooth="yes"/>
      <point x="431" y="784"/>
      <point x="417" y="787"/>
      <point x="406" y="787" type="curve" smooth="yes"/>
      <point x="384" y="787"/>
      <point x="371" y="776"/>
      <point x="358" y="744" type="curve"/>
      <point x="318" y="744" type="line"/>
      <point x="331" y="816"/>
      <point x="377" y="862"/>
      <point x="434" y="862" type="curve" smooth="yes"/>
      <point x="458" y="862"/>
      <point x="490" y="854"/>
      <point x="531" y="836" type="curve" smooth="yes"/>
      <point x="557" y="825"/>
      <point x="574" y="820"/>
      <point x="585" y="820" type="curve" smooth="yes"/>
      <point x="608" y="820"/>
      <point x="621" y="831"/>
    </contour>
    <contour>
      <point x="723" y="1003" type="line"/>
      <point x="707" y="933" type="line"/>
      <point x="381" y="933" type="line"/>
      <point x="398" y="1003" type="line"/>
    </contour>
  </outline>
</glyph>
<glyph name="uni022E" format="1">
  <advance width="722"/>
  <unicode hex="022E"/>
  <outline>
    <contour>
      <point x="691" y="444" type="curve" smooth="yes"/>
      <point x="691" y="225"/>
      <point x="493" y="-18"/>
      <point x="265" y="-18" type="curve" smooth="yes"/>
      <point x="135" y="-18"/>
      <point x="27" y="73"/>
      <point x="27" y="207" type="curve" smooth="yes"/>
      <point x="27" y="430"/>
      <point x="211" y="685"/>
      <point x="449" y="685" type="curve" smooth="yes"/>
      <point x="592" y="685"/>
      <point x="691" y="588"/>
    </contour>
    <contour>
      <point x="547" y="526" type="curve" smooth="yes"/>
      <point x="547" y="593"/>
      <point x="518" y="651"/>
      <point x="442" y="651" type="curve" smooth="yes"/>
      <point x="274" y="651"/>
      <point x="171" y="284"/>
      <point x="171" y="150" type="curve" smooth="yes"/>
      <point x="171" y="79"/>
      <point x="195" y="16"/>
      <point x="275" y="16" type="curve" smooth="yes"/>
      <point x="445" y="16"/>
      <point x="547" y="391"/>
    </contour>
    <contour>
      <point x="490" y="862" type="curve" smooth="yes"/>
      <point x="526" y="862"/>
      <point x="556" y="832"/>
      <point x="556" y="796" type="curve" smooth="yes"/>
      <point x="556" y="762"/>
      <point x="525" y="732"/>
      <point x="490" y="732" type="curve" smooth="yes"/>
      <point x="456" y="732"/>
      <point x="426" y="762"/>
      <point x="426" y="796" type="curve" smooth="yes"/>
      <point x="426" y="832"/>
      <point x="455" y="862"/>
    </contour>
  </outline>
</glyph>
<glyph name="uni02BD" format="1">
  <advance width="333"/>
  <unicode hex="02BD"/>
  <outline>
    <contour>
      <point x="252" y="516" type="line"/>
      <point x="166" y="567"/>
      <point x="164" y="634"/>
      <point x="164" y="660" type="curve" smooth="yes"/>
      <point x="164" y="736"/>
      <point x="220" y="800"/>
      <point x="297" y="800" type="curve" smooth="yes"/>
      <point x="336" y="800"/>
      <point x="355" y="777"/>
      <point x="355" y="749" type="curve" smooth="yes"/>
      <point x="355" y="718"/>
      <point x="337" y="693"/>
      <point x="293" y="693" type="curve" smooth="yes"/>
      <point x="291.806" y="693"/>
      <point x="290.604" y="693.001"/>
      <point x="289.393" y="693.001" type="curve" smooth="yes"/>
      <point x="253.08" y="693.001"/>
      <point x="210" y="692.065"/>
      <point x="210" y="634" type="curve" smooth="yes"/>
      <point x="210" y="613"/>
      <point x="214" y="572"/>
      <point x="268" y="530" type="curve"/>
    </contour>
  </outline>
</glyph>
<glyph name="uni02BF" format="1">
  <advance width="248"/>
  <unicode hex="02BF"/>
  <outline>
    <contour>
      <point x="178" y="588" type="curve"/>
      <point x="178" y="540" type="line"/>
      <point x="119" y="540"/>
      <point x="70" y="588"/>
      <point x="70" y="647" type="curve" smooth="yes"/>
      <point x="70" y="706"/>
      <point x="120" y="754"/>
      <point x="178" y="754" type="curve"/>
      <point x="178" y="706" type="line"/>
      <point x="145" y="706"/>
      <point x="118" y="679"/>
      <point x="118" y="646" type="curve" smooth="yes"/>
      <point x="118" y="614"/>
      <point x="145" y="588"/>
    </contour>
  </outline>
</glyph>
<glyph name="uni02C0" format="1">
  <advance width="333"/>
  <unicode hex="02C0"/>
  <outline>
    <contour>
      <point x="261" y="745" type="curve" smooth="yes"/>
      <point x="299" y="745"/>
      <point x="358" y="735"/>
      <point x="358" y="679" type="curve" smooth="yes"/>
      <point x="358" y="620"/>
      <point x="265" y="585"/>
      <point x="240" y="556" type="curve" smooth="yes"/>
      <point x="233" y="547"/>
      <point x="226" y="534"/>
      <point x="219" y="516" type="curve"/>
      <point x="191" y="516" type="line"/>
      <point x="207" y="564"/>
      <point x="226" y="598"/>
      <point x="249" y="622" type="curve" smooth="yes"/>
      <point x="277" y="649"/>
      <point x="283" y="669"/>
      <point x="283" y="681" type="curve" smooth="yes"/>
      <point x="283" y="689"/>
      <point x="275" y="703"/>
      <point x="244" y="703" type="curve" smooth="yes"/>
      <point x="220" y="703"/>
      <point x="201" y="696"/>
      <point x="200" y="693" type="curve" smooth="yes"/>
      <point x="200" y="688"/>
      <point x="210" y="679"/>
      <point x="210" y="661" type="curve" smooth="yes"/>
      <point x="206" y="641"/>
      <point x="193" y="631"/>
      <point x="176" y="631" type="curve" smooth="yes"/>
      <point x="153" y="631"/>
      <point x="139" y="646"/>
      <point x="139" y="669" type="curve" smooth="yes"/>
      <point x="139" y="670"/>
      <point x="140" y="675"/>
      <point x="140" y="677" type="curve" smooth="yes"/>
      <point x="149" y="716"/>
      <point x="199" y="745"/>
    </contour>
  </outline>
</glyph>
<glyph name="uni02CA" format="1">
  <advance width="333"/>
  <unicode hex="02CA"/>
  <outline>
    <contour>
      <point x="188" y="516" type="line"/>
      <point x="139" y="516" type="line"/>
      <point x="261" y="647" type="line" smooth="yes"/>
      <point x="296" y="685"/>
      <point x="313" y="697"/>
      <point x="331" y="697" type="curve" smooth="yes"/>
      <point x="357" y="697"/>
      <point x="379" y="675"/>
      <point x="379" y="650" type="curve" smooth="yes"/>
      <point x="379" y="631"/>
      <point x="370" y="620"/>
      <point x="340" y="603" type="curve" smooth="yes"/>
    </contour>
  </outline>
</glyph>
<glyph name="breve" format="1">
  <advance width="450"/>
  <unicode hex="02D8"/>
  <outline>
    <contour>
      <point x="380" y="677" type="line"/>
      <point x="351" y="586"/>
      <point x="289" y="514"/>
      <point x="187" y="514" type="curve" smooth="yes"/>
      <point x="116" y="514"/>
      <point x="70" y="547"/>
      <point x="70" y="621" type="curve" smooth="yes"/>
      <point x="70" y="640"/>
      <point x="72" y="659"/>
      <point x="77" y="677" type="curve"/>
      <point x="121" y="677" type="line"/>
      <point x="120" y="662" type="line" smooth="yes"/>
      <point x="119.894" y="660.055"/>
      <point x="119.842" y="658.158"/>
      <point x="119.842" y="656.307" type="curve" smooth="yes"/>
      <point x="119.842" y="605.819"/>
      <point x="158.768" y="590"/>
      <point x="207" y="590" type="curve" smooth="yes"/>
      <point x="271" y="590"/>
      <point x="308" y="621"/>
      <point x="336" y="677" type="curve"/>
    </contour>
  </outline>
</glyph>
<glyph name="tilde" format="1">
  <advance width="333"/>
  <unicode hex="02DC"/>
  <outline>
    <contour>
      <point x="366" y="655" type="curve"/>
      <point x="407" y="655" type="line"/>
      <point x="385" y="572"/>
      <point x="350" y="536"/>
      <point x="290" y="536" type="curve" smooth="yes"/>
      <point x="271" y="536"/>
      <point x="259" y="539"/>
      <point x="233" y="549" type="curve" smooth="yes"/>
      <point x="174" y="572" type="line" smooth="yes"/>
      <point x="161" y="577"/>
      <point x="147" y="580"/>
      <point x="136" y="580" type="curve" smooth="yes"/>
      <point x="114" y="580"/>
      <point x="101" y="569"/>
      <point x="88" y="537" type="curve"/>
      <point x="48" y="537" type="line"/>
      <point x="61" y="609"/>
      <point x="107" y="655"/>
      <point x="164" y="655" type="curve" smooth="yes"/>
      <point x="188" y="655"/>
      <point x="220" y="647"/>
      <point x="261" y="629" type="curve" smooth="yes"/>
      <point x="287" y="618"/>
      <point x="304" y="613"/>
      <point x="315" y="613" type="curve" smooth="yes"/>
      <point x="338" y="613"/>
      <point x="351" y="624"/>
    </contour>
  </outline>
</glyph>
<glyph name="macroncomb" format="1">
  <advance width="0"/>
  <unicode hex="0304"/>
  <outline>
    <contour>
      <point x="-67" y="623" type="line"/>
      <point x="-83" y="553" type="line"/>
      <point x="-409" y="553" type="line"/>
      <point x="-392" y="623" type="line"/>
    </contour>
  </outline>
</glyph>
<glyph name="diaeresiscomb" format="1">
  <advance width="0"/>
  <unicode hex="0308"/>
  <outline>
    <contour>
      <point x="-341" y="655" type="curve" smooth="yes"/>
      <point x="-305" y="655"/>
      <point x="-275" y="625"/>
      <point x="-275" y="589" type="curve" smooth="yes"/>
      <point x="-275" y="555"/>
      <point x="-306" y="525"/>
      <point x="-341" y="525" type="curve" smooth="yes"/>
      <point x="-375" y="525"/>
      <point x="-405" y="555"/>
      <point x="-405" y="589" type="curve" smooth="yes"/>
      <point x="-405" y="625"/>
      <point x="-376" y="655"/>
    </contour>
    <contour>
      <point x="-129" y="655" type="curve" smooth="yes"/>
      <point x="-93" y="655"/>
      <point x="-63" y="625"/>
      <point x="-63" y="589" type="curve" smooth="yes"/>
      <point x="-63" y="555"/>
      <point x="-94" y="525"/>
      <point x="-129" y="525" type="curve" smooth="yes"/>
      <point x="-163" y="525"/>
      <point x="-193" y="555"/>
      <point x="-193" y="589" type="curve" smooth="yes"/>
      <point x="-193" y="625"/>
      <point x="-164" y="655"/>
    </contour>
  </outline>
</glyph>
<glyph name="doubleacutecomb" format="1">
  <advance width="0"/>
  <unicode hex="030B"/>
  <outline>
    <contour>
      <point x="-342" y="516" type="line"/>
      <point x="-391" y="516" type="line"/>
      <point x="-269" y="647" type="line" smooth="yes"/>
      <point x="-234" y="685"/>
      <point x="-217" y="697"/>
      <point x="-199" y="697" type="curve" smooth="yes"/>
      <point x="-173" y="697"/>
      <point x="-151" y="675"/>
      <point x="-151" y="650" type="curve" smooth="yes"/>
      <point x="-151" y="631"/>
      <point x="-160" y="620"/>
      <point x="-190" y="603" type="curve" smooth="yes"/>
    </contour>
    <contour>
      <point x="-153" y="516" type="line"/>
      <point x="-202" y="516" type="line"/>
      <point x="-80" y="647" type="line" smooth="yes"/>
      <point x="-45" y="685"/>
      <point x="-28" y="697"/>
      <point x="-10" y="697" type="curve" smooth="yes"/>
      <point x="16" y="697"/>
      <point x="38" y="675"/>
      <point x="38" y="650" type="curve" smooth="yes"/>
      <point x="38" y="631"/>
      <point x="29" y="620"/>
      <point x="-1" y="603" type="curve" smooth="yes"/>
    </contour>
  </outline>
</glyph>
<glyph name="gravebelowcomb" format="1">
  <advance width="0"/>
  <unicode hex="0316"/>
  <outline>
    <contour>
      <point x="-508" y="-227" type="line"/>
      <point x="-557" y="-227" type="line"/>
      <point x="-435" y="-96" type="line" smooth="yes"/>
      <point x="-400" y="-58"/>
      <point x="-383" y="-46"/>
      <point x="-365" y="-46" type="curve" smooth="yes"/>
      <point x="-339" y="-46"/>
      <point x="-317" y="-68"/>
      <point x="-317" y="-93" type="curve" smooth="yes"/>
      <point x="-317" y="-112"/>
      <point x="-326" y="-123"/>
      <point x="-356" y="-140" type="curve" smooth="yes"/>
    </contour>
  </outline>
</glyph>
<glyph name="acutebelowcomb" format="1">
  <advance width="0"/>
  <unicode hex="0317"/>
  <outline>
    <contour>
      <point x="-331" y="-227" type="line"/>
      <point x="-376" y="-227" type="line"/>
      <point x="-509" y="-138" type="line" smooth="yes"/>
      <point x="-531" y="-123"/>
      <point x="-543" y="-106"/>
      <point x="-543" y="-91" type="curve" smooth="yes"/>
      <point x="-543" y="-67"/>
      <point x="-522" y="-46"/>
      <point x="-498" y="-46" type="curve" smooth="yes"/>
      <point x="-479" y="-46"/>
      <point x="-458" y="-59"/>
      <point x="-442" y="-80" type="curve" smooth="yes"/>
    </contour>
  </outline>
</glyph>
<glyph name="dotbelowcomb" format="1">
  <advance width="0"/>
  <unicode hex="0323"/>
  <outline>
    <contour>
      <point x="-416" y="-55" type="curve" smooth="yes"/>
      <point x="-380" y="-55"/>
      <point x="-350" y="-85"/>
      <point x="-350" y="-121" type="curve" smooth="yes"/>
      <point x="-350" y="-155"/>
      <point x="-381" y="-185"/>
      <point x="-416" y="-185" type="curve" smooth="yes"/>
      <point x="-450" y="-185"/>
      <point x="-480" y="-155"/>
      <point x="-480" y="-121" type="curve" smooth="yes"/>
      <point x="-480" y="-85"/>
      <point x="-451" y="-55"/>
    </contour>
  </outline>
</glyph>
<glyph name="uni0325" format="1">
  <advance width="0"/>
  <unicode hex="0325"/>
  <outline>
    <contour>
      <point x="-435" y="-46" type="curve" smooth="yes"/>
      <point x="-377" y="-46"/>
      <point x="-329" y="-94"/>
      <point x="-329" y="-153" type="curve" smooth="yes"/>
      <point x="-329" y="-212"/>
      <point x="-377" y="-260"/>
      <point x="-436" y="-260" type="curve" smooth="yes"/>
      <point x="-495" y="-260"/>
      <point x="-542" y="-211"/>
      <point x="-542" y="-151" type="curve" smooth="yes"/>
      <point x="-542" y="-94"/>
      <point x="-493" y="-46"/>
    </contour>
    <contour>
      <point x="-437" y="-94" type="curve" smooth="yes"/>
      <point x="-467" y="-94"/>
      <point x="-494" y="-122"/>
      <point x="-494" y="-153" type="curve" smooth="yes"/>
      <point x="-494" y="-185"/>
      <point x="-468" y="-212"/>
      <point x="-437" y="-212" type="curve" smooth="yes"/>
      <point x="-404" y="-212"/>
      <point x="-377" y="-186"/>
      <point x="-377" y="-154" type="curve" smooth="yes"/>
      <point x="-377" y="-121"/>
      <point x="-404" y="-94"/>
    </contour>
  </outline>
</glyph>
<glyph name="uni0328" format="1">
  <advance width="0"/>
  <unicode hex="0328"/>
  <outline>
    <contour>
      <point x="-254" y="-84" type="curve"/>
      <point x="-232" y="-100" type="line"/>
      <point x="-257" y="-146"/>
      <point x="-305" y="-175"/>
      <point x="-355" y="-175" type="curve" smooth="yes"/>
      <point x="-416" y="-175"/>
      <point x="-461" y="-141"/>
      <point x="-461" y="-94" type="curve" smooth="yes"/>
      <point x="-461" y="-41"/>
      <point x="-405" y="11"/>
      <point x="-393" y="31" type="curve"/>
      <point x="-360" y="43" type="line"/>
      <point x="-361" y="36"/>
      <point x="-377" y="-17"/>
      <point x="-377" y="-40" type="curve" smooth="yes"/>
      <point x="-377" y="-81"/>
      <point x="-355" y="-104"/>
      <point x="-314" y="-104" type="curve" smooth="yes"/>
      <point x="-293" y="-104"/>
      <point x="-266" y="-91"/>
    </contour>
  </outline>
</glyph>
<glyph name="uni032C" format="1">
  <advance width="0"/>
  <unicode hex="032C"/>
  <outline>
    <contour>
      <point x="-245" y="-46" type="line"/>
      <point x="-407" y="-220" type="line"/>
      <point x="-489" y="-220" type="line"/>
      <point x="-577" y="-46" type="line"/>
      <point x="-527" y="-46" type="line"/>
      <point x="-436" y="-143" type="line"/>
      <point x="-301" y="-46" type="line"/>
    </contour>
  </outline>
</glyph>
<glyph name="uni032E" format="1">
  <advance width="0"/>
  <unicode hex="032E"/>
  <outline>
    <contour>
      <point x="-251" y="-46" type="line"/>
      <point x="-280" y="-137"/>
      <point x="-342" y="-209"/>
      <point x="-444" y="-209" type="curve" smooth="yes"/>
      <point x="-515" y="-209"/>
      <point x="-561" y="-176"/>
      <point x="-561" y="-102" type="curve" smooth="yes"/>
      <point x="-561" y="-83"/>
      <point x="-559" y="-64"/>
      <point x="-554" y="-46" type="curve"/>
      <point x="-510" y="-46" type="line"/>
      <point x="-511" y="-61" type="line" smooth="yes"/>
      <point x="-511.106" y="-62.945"/>
      <point x="-511.158" y="-64.8425"/>
      <point x="-511.158" y="-66.6934" type="curve" smooth="yes"/>
      <point x="-511.158" y="-117.181"/>
      <point x="-472.232" y="-133"/>
      <point x="-424" y="-133" type="curve" smooth="yes"/>
      <point x="-360" y="-133"/>
      <point x="-323" y="-102"/>
      <point x="-295" y="-46" type="curve"/>
    </contour>
  </outline>
</glyph>
<glyph name="uni0330" format="1">
  <advance width="0"/>
  <unicode hex="0330"/>
  <outline>
    <contour>
      <point x="-281" y="-46" type="curve"/>
      <point x="-240" y="-46" type="line"/>
      <point x="-262" y="-129"/>
      <point x="-297" y="-165"/>
      <point x="-357" y="-165" type="curve" smooth="yes"/>
      <point x="-376" y="-165"/>
      <point x="-388" y="-162"/>
      <point x="-414" y="-152" type="curve" smooth="yes"/>
      <point x="-473" y="-129" type="line" smooth="yes"/>
      <point x="-486" y="-124"/>
      <point x="-500" y="-121"/>
      <point x="-511" y="-121" type="curve" smooth="yes"/>
      <point x="-533" y="-121"/>
      <point x="-546" y="-132"/>
      <point x="-559" y="-164" type="curve"/>
      <point x="-599" y="-164" type="line"/>
      <point x="-586" y="-92"/>
      <point x="-540" y="-46"/>
      <point x="-483" y="-46" type="curve" smooth="yes"/>
      <point x="-459" y="-46"/>
      <point x="-427" y="-54"/>
      <point x="-386" y="-72" type="curve" smooth="yes"/>
      <point x="-360" y="-83"/>
      <point x="-343" y="-88"/>
      <point x="-332" y="-88" type="curve" smooth="yes"/>
      <point x="-309" y="-88"/>
      <point x="-296" y="-77"/>
    </contour>
  </outline>
</glyph>
<glyph name="uni0345" format="1">
  <advance width="0"/>
  <unicode hex="0345"/>
  <outline>
    <contour>
      <point x="-135" y="-131" type="line"/>
      <point x="-145" y="-190"/>
      <point x="-180" y="-212"/>
      <point x="-235" y="-212" type="curve" smooth="yes"/>
      <point x="-267" y="-212"/>
      <point x="-308" y="-195"/>
      <point x="-308" y="-158" type="curve" smooth="yes"/>
      <point x="-308" y="-120"/>
      <point x="-292" y="-84"/>
      <point x="-281" y="-50" type="curve"/>
      <point x="-193" y="-50" type="line"/>
      <point x="-202" y="-78"/>
      <point x="-217" y="-122"/>
      <point x="-217" y="-149" type="curve" smooth="yes"/>
      <point x="-217" y="-166"/>
      <point x="-208" y="-172"/>
      <point x="-198" y="-172" type="curve" smooth="yes"/>
      <point x="-174" y="-172"/>
      <point x="-166" y="-146"/>
      <point x="-162" y="-131" type="curve"/>
    </contour>
  </outline>
</glyph>
<glyph name="uni0374" format="1">
  <advance width="136"/>
  <unicode hex="0374"/>
  <outline>
    <contour>
      <point x="229" y="651" type="curve"/>
      <point x="228" y="649" type="line"/>
      <point x="228" y="634"/>
      <point x="220" y="620"/>
      <point x="207" y="602" type="curve" smooth="yes"/>
      <point x="207" y="602"/>
      <point x="109" y="482"/>
      <point x="91" y="467" type="curve"/>
      <point x="65" y="485" type="line"/>
      <point x="76" y="517"/>
      <point x="129" y="658"/>
      <point x="129" y="658" type="curve"/>
      <point x="142" y="681"/>
      <point x="159" y="696"/>
      <point x="180" y="696" type="curve" smooth="yes"/>
      <point x="215" y="696"/>
      <point x="229" y="674"/>
    </contour>
  </outline>
</glyph>
<glyph name="uni0375" format="1">
  <advance width="280"/>
  <unicode hex="0375"/>
  <outline>
    <contour>
      <point x="34" y="-166" type="curve"/>
      <point x="33" y="-168" type="line"/>
      <point x="33" y="-152"/>
      <point x="41" y="-137"/>
      <point x="54" y="-119" type="curve" smooth="yes"/>
      <point x="54" y="-119"/>
      <point x="152" y="1"/>
      <point x="170" y="16" type="curve"/>
      <point x="196" y="-2" type="line"/>
      <point x="185" y="-34"/>
      <point x="132" y="-175"/>
      <point x="132" y="-175" type="curve"/>
      <point x="119" y="-198"/>
      <point x="102" y="-213"/>
      <point x="81" y="-213" type="curve" smooth="yes"/>
      <point x="47" y="-213"/>
      <point x="34" y="-190"/>
    </contour>
  </outline>
</glyph>
<glyph name="dieresistonos" format="1">
  <advance width="433"/>
  <unicode hex="0385"/>
  <outline>
    <contour>
      <point x="312" y="468" type="curve"/>
      <point x="281" y="468" type="line"/>
      <point x="364" y="644" type="line" smooth="yes"/>
      <point x="378" y="674"/>
      <point x="393" y="692"/>
      <point x="424" y="692" type="curve" smooth="yes"/>
      <point x="445" y="692"/>
      <point x="463" y="676"/>
      <point x="463" y="653" type="curve" smooth="yes"/>
      <point x="463" y="631"/>
      <point x="445" y="610"/>
      <point x="421" y="583" type="curve" smooth="yes"/>
      <point x="421" y="583"/>
      <point x="330" y="488"/>
    </contour>
    <contour>
      <point x="556" y="536" type="curve" smooth="yes"/>
      <point x="556" y="502"/>
      <point x="527" y="472"/>
      <point x="493" y="472" type="curve" smooth="yes"/>
      <point x="458" y="472"/>
      <point x="429" y="501"/>
      <point x="429" y="536" type="curve" smooth="yes"/>
      <point x="429" y="570"/>
      <point x="459" y="599"/>
      <point x="493" y="599" type="curve" smooth="yes"/>
      <point x="527" y="599"/>
      <point x="556" y="570"/>
    </contour>
    <contour>
      <point x="274" y="536" type="curve" smooth="yes"/>
      <point x="274" y="501"/>
      <point x="245" y="472"/>
      <point x="210" y="472" type="curve" smooth="yes"/>
      <point x="176" y="472"/>
      <point x="147" y="502"/>
      <point x="147" y="536" type="curve" smooth="yes"/>
      <point x="147" y="570"/>
      <point x="176" y="599"/>
      <point x="210" y="599" type="curve" smooth="yes"/>
      <point x="244" y="599"/>
      <point x="274" y="570"/>
    </contour>
  </outline>
</glyph>
